SplineFontDB: 3.2
FontName: Hookings-Regular
FullName: Hookings Regular
FamilyName: Hookings
Weight: Regular
Copyright: Copyright (c) 2024, Zamero Type
UComments: "2024-8-13: Created with FontForge (http://fontforge.org)+AAoACgAK-Why does this font remind me of the old Burger King branding that was before 2021?"
Version: 001.000
ItalicAngle: 0
UnderlinePosition: -100
UnderlineWidth: 50
Ascent: 800
Descent: 200
InvalidEm: 0
LayerCount: 2
Layer: 0 0 "Back" 1
Layer: 1 0 "Fore" 0
XUID: [1021 474 1118879153 7726]
FSType: 0
OS2Version: 0
OS2_WeightWidthSlopeOnly: 0
OS2_UseTypoMetrics: 1
CreationTime: 1723605476
ModificationTime: 1730826822
PfmFamily: 81
TTFWeight: 400
TTFWidth: 5
LineGap: 90
VLineGap: 0
OS2TypoAscent: 0
OS2TypoAOffset: 1
OS2TypoDescent: 0
OS2TypoDOffset: 1
OS2TypoLinegap: 90
OS2WinAscent: 0
OS2WinAOffset: 1
OS2WinDescent: 0
OS2WinDOffset: 1
HheadAscent: 0
HheadAOffset: 1
HheadDescent: 0
HheadDOffset: 1
OS2Vendor: 'ZAM '
Lookup: 1 0 0 "'ss08' Style Set 8 lookup 11" { "'ss08' Style Set 8 lookup 11-1" ("ss08") } ['ss08' ('DFLT' <'dflt' > 'grek' <'dflt' > 'latn' <'dflt' > ) ]
Lookup: 1 0 0 "'ss03' Style Set 3 lookup 6" { "'ss03' Style Set 3 lookup 6-1" ("ss03") } ['ss03' ('DFLT' <'dflt' > 'grek' <'dflt' > 'latn' <'dflt' > ) ]
Lookup: 1 0 0 "'ss04' Style Set 4 lookup 7" { "'ss04' Style Set 4 lookup 7-1" ("ss04") } ['ss04' ('DFLT' <'dflt' > 'grek' <'dflt' > 'latn' <'dflt' > ) ]
Lookup: 1 0 0 "'ss05' Style Set 5 lookup 8" { "'ss05' Style Set 5 lookup 8-1" ("ss05") } ['ss05' ('DFLT' <'dflt' > 'grek' <'dflt' > 'latn' <'dflt' > ) ]
Lookup: 1 0 0 "'ss06' Style Set 6 lookup 9" { "'ss06' Style Set 6 lookup 9-1" ("ss06") } ['ss06' ('DFLT' <'dflt' > 'grek' <'dflt' > 'latn' <'dflt' > ) ]
Lookup: 1 0 0 "'ss07' Style Set 7 lookup 10" { "'ss07' Style Set 7 lookup 10-1" ("ss07") } ['ss07' ('DFLT' <'dflt' > 'grek' <'dflt' > 'latn' <'dflt' > ) ]

StartChar: I
Encoding: 73 73 0
Width: 189
Flags: W
HStem: 0 21G<40 149> 711.008 20G<40 149>
VStem: 40 109<0 731.008>
LayerCount: 2
Fore
SplineSet
40 0 m 5
 40 731.0078125 l 5
 149 731.0078125 l 5
 149 0 l 5
 40 0 l 5
EndSplineSet
Validated: 1
EndChar

StartChar: F
Encoding: 70 70 1
Width: 528
Flags: W
HStem: 0 21G<40 149> 292 94<88 456> 633.008 98<149 503>
VStem: 40 109<0 292 386 633.008> 88 61<292 386>
LayerCount: 2
Fore
SplineSet
88 386 m 1xe8
 456 386 l 1
 456 292 l 1
 88 292 l 1
 88 386 l 1xe8
40 731.0078125 m 5xf0
 503 731.0078125 l 5
 503 633.0078125 l 5
 149 633.0078125 l 5
 149 0 l 5
 40 0 l 5
 40 731.0078125 l 5xf0
EndSplineSet
Validated: 5
EndChar

StartChar: E
Encoding: 69 69 2
Width: 528
Flags: W
HStem: 0 98<149 503> 312 94<88 466> 633.008 98<149 503>
VStem: 88 61<312 406>
LayerCount: 2
Fore
SplineSet
88 406 m 5
 466 406 l 5
 466 312 l 5
 88 312 l 5
 88 406 l 5
40 731.0078125 m 5
 503 731.0078125 l 5
 503 633.0078125 l 5
 149 633.0078125 l 5
 149 98 l 5
 503 98 l 5
 503 0 l 5
 40 0 l 5
 40 731.0078125 l 5
EndSplineSet
Validated: 5
EndChar

StartChar: H
Encoding: 72 72 3
Width: 643
Flags: W
HStem: 0 21G<40 149 494 603> 322 98<93 531> 711.008 20G<40 149 494 603>
VStem: 40 109<0 322 420 731.008> 93 56<322 420> 494 109<0 322 420 731.008> 494 37<322 420>
LayerCount: 2
Fore
SplineSet
494 0 m 5xe4
 494 731.0078125 l 5
 603 731.0078125 l 5
 603 0 l 5
 494 0 l 5xe4
93 420 m 5xea
 531 420 l 5
 531 322 l 5
 93 322 l 5
 93 420 l 5xea
40 0 m 5xf0
 40 731.0078125 l 5
 149 731.0078125 l 5
 149 0 l 5
 40 0 l 5xf0
EndSplineSet
Validated: 5
EndChar

StartChar: L
Encoding: 76 76 4
Width: 538
Flags: W
HStem: 0 98<149 405.4> 711.008 20G<40 149>
VStem: 40 109<98 731.008> 424 98<113.728 220>
LayerCount: 2
Fore
SplineSet
40 0 m 1
 40 731.0078125 l 1
 149 731.0078125 l 1
 149 98 l 1
 349 98 l 2
 401.352539062 98 424 121.55254962 424 176 c 2
 424 220 l 1
 522 220 l 1
 522 151 l 2
 522 57.428511639 458.866403839 -1.26287869051e-14 356 0 c 2
 40 0 l 1
EndSplineSet
Validated: 1
EndChar

StartChar: N
Encoding: 78 78 5
Width: 663
Flags: W
HStem: 0 21G<40 149 500.556 623> 711.008 20G<40 162.444 514 623>
VStem: 40 109<0 543.008> 514 109<188 731.008>
LayerCount: 2
Fore
SplineSet
40 0 m 5
 40 731.0078125 l 5
 149 731.0078125 l 5
 514 188 l 5
 514 731.0078125 l 5
 623 731.0078125 l 5
 623 0 l 5
 514 0 l 5
 149 543.0078125 l 5
 149 0 l 5
 40 0 l 5
EndSplineSet
Validated: 1
Substitution2: "'ss01' Style Set 1 lookup 4-1" N.ss01
EndChar

StartChar: N.ss01
Encoding: 65536 -1 6
Width: 663
Flags: W
HStem: 0 21G<40 149 514 623> 711.008 20G<40 165.63 514 623>
VStem: 40 109<0 573.008> 514 109<0 110 268 731.008> 514 20<110 268>
LayerCount: 2
Fore
SplineSet
514 0 m 1xf0
 514 731.0078125 l 1
 623 731.0078125 l 1
 623 0 l 1
 514 0 l 1xf0
40 0 m 1
 40 731.0078125 l 1
 149 731.0078125 l 1
 534 268 l 1
 534 110 l 1xe8
 149 573.0078125 l 5
 149 0 l 1
 40 0 l 1
EndSplineSet
Validated: 5
EndChar

StartChar: O
Encoding: 79 79 7
Width: 762
Flags: W
HStem: -10.0078 101<277.889 484.599> 638.008 101<277.889 484.599>
VStem: 25 109<248.249 485.512> 628 109<245.188 488.543>
LayerCount: 2
Fore
SplineSet
134 366 m 4
 134 202.299720711 230.824815393 90.9921875 382.16796875 90.9921875 c 4
 531.156263004 90.9921875 628 202.299720711 628 366 c 4
 628 528.509765625 531.156263004 638.0078125 382.16796875 638.0078125 c 4
 230.824815393 638.0078125 134 528.509765625 134 366 c 4
25 364 m 4
 25 580.229802382 163.72573896 739.0078125 381 739.0078125 c 4
 598.27426104 739.0078125 737 580.229802382 737 364 c 4
 737 146.59355747 598.27426104 -10.0078125 381 -10.0078125 c 4
 163.72573896 -10.0078125 25 146.59355747 25 364 c 4
EndSplineSet
Validated: 1
EndChar

StartChar: Z
Encoding: 90 90 8
Width: 581
Flags: W
HStem: 0 98<172.532 439.4> 633.008 98<141.6 408.468>
VStem: 25 98<511.008 617.28> 458 98<113.728 220>
LayerCount: 2
Back
SplineSet
18 0 m 5
 348 731.0078125 l 5
 461 731.0078125 l 5
 181 98 l 5
 361 98 l 6
 413.352539062 98 436 121.552734375 436 176 c 6
 436 220 l 5
 540 220 l 5
 540 151 l 6
 540 57.4287109375 476.866210938 -0 374 0 c 6
 18 0 l 5
EndSplineSet
Fore
SplineSet
390 0 m 2
 28 0 l 1
 28 54 l 1
 408.467773438 633.0078125 l 1
 198 633.0078125 l 6
 145.647460938 633.0078125 123 609.455078125 123 555.0078125 c 6
 123 511.0078125 l 5
 25 511.0078125 l 5
 25 580.0078125 l 6
 25 673.579101562 88.1337890625 731.0078125 191 731.0078125 c 6
 553 731.0078125 l 1
 553 677.0078125 l 1
 172.532226562 98 l 1
 383 98 l 2
 435.352539062 98 458 121.552734375 458 176 c 2
 458 220 l 1
 556 220 l 1
 556 151 l 2
 556 57.4287109375 492.866210938 -1.25970615508e-14 390 0 c 2
EndSplineSet
Validated: 1
EndChar

StartChar: J
Encoding: 74 74 9
Width: 365
Flags: W
HStem: 0 98<25 199.346> 633.008 98<54 216>
VStem: 216 109<113.779 633.008>
LayerCount: 2
Fore
SplineSet
54 633.0078125 m 29
 54 731.0078125 l 13
 325 731.0078125 l 5
 325 166 l 6
 325 66 267.571289062 0 174 0 c 6
 25 0 l 5
 25 98 l 5
 138 98 l 6
 192.447265625 98 216 121 216 173 c 6
 216 633.0078125 l 5
 54 633.0078125 l 29
EndSplineSet
Validated: 1
Substitution2: "'ss02' Style Set 2 lookup 5-1" J.ss02
EndChar

StartChar: J.ss02
Encoding: 65537 -1 10
Width: 407
Flags: W
HStem: 0 98<67 241.346> 633.008 98<151.6 258>
VStem: 35 98<511.008 617.28> 258 109<113.779 633.008>
LayerCount: 2
Fore
SplineSet
258 173 m 6
 258 633.0078125 l 5
 208 633.0078125 l 2
 155.647460938 633.0078125 133 609.455078125 133 555.0078125 c 2
 133 511.0078125 l 1
 35 511.0078125 l 1
 35 580.0078125 l 2
 35 673.579101562 98.1337890625 731.0078125 201 731.0078125 c 2
 367 731.0078125 l 1
 367 166 l 2
 367 66 309.571289062 0 216 0 c 2
 67 0 l 1
 67 98 l 1
 180 98 l 6
 234.447265625 98 258 121 258 173 c 6
EndSplineSet
Validated: 1
EndChar

StartChar: T
Encoding: 84 84 11
Width: 581
Flags: W
HStem: 0 21G<236.004 345.004> 632.008 99<25 236.004 345.004 556.008> 632.008 39<236.004 345.004>
VStem: 236.004 109<0 671.008>
LayerCount: 2
Fore
SplineSet
556.0078125 632.0078125 m 5xd0
 25 632.0078125 l 5
 25 731.0078125 l 5
 556.0078125 731.0078125 l 5
 556.0078125 632.0078125 l 5xd0
236.00390625 0 m 5
 236.00390625 671.0078125 l 5
 345.00390625 671.0078125 l 5xb0
 345.00390625 0 l 5
 236.00390625 0 l 5
EndSplineSet
Validated: 5
EndChar

StartChar: .notdef
Encoding: 65538 -1 12
Width: 882
Flags: W
HStem: 0 98<304 578 687 750.4> 20 78<578 687> 633.008 98<131.6 195 304 578> 633.008 78<195 304>
VStem: 15 98<511.008 617.28> 195 109<98 711.008> 578 109<20 633.008> 769 98<113.728 220>
LayerCount: 2
Fore
SplineSet
687 731.0078125 m 1x6f
 687 20 l 1
 578 20 l 1
 578 633.0078125 l 1
 188 633.0078125 l 2
 135.647460938 633.0078125 113 609.455078125 113 555.0078125 c 2
 113 511.0078125 l 1
 15 511.0078125 l 1
 15 580.0078125 l 2
 15 673.579101562 78.1337890625 731.0078125 181 731.0078125 c 2
 687 731.0078125 l 1x6f
195 0 m 1x9f
 195 711.0078125 l 1
 304 711.0078125 l 1
 304 98 l 1
 694 98 l 2
 746.352539062 98 769 121.552734375 769 176 c 2
 769 220 l 1
 867 220 l 1
 867 151 l 2
 867 57.4287109375 803.866210938 0 701 0 c 2
 195 0 l 1x9f
EndSplineSet
Validated: 5
EndChar

StartChar: D
Encoding: 68 68 13
Width: 689
Flags: W
HStem: 0 98<149 397.825> 633.008 98<149 407.041>
VStem: 40 109<98 633.008> 555 109<254.703 488.603>
LayerCount: 2
Fore
SplineSet
284.16796875 633.0078125 m 6
 149 633.0078125 l 5
 149 98 l 5
 278.486328125 98 l 6
 449.958899709 98 555 203.605721709 555 376 c 4
 555 538.510129527 455.419371773 633.0078125 284.16796875 633.0078125 c 6
283 0 m 6
 40 0 l 5
 40 731.0078125 l 5
 283 731.0078125 l 6
 522.351098961 731.0078125 664 588.499946157 664 374 c 4
 664 148.956465205 523.17644703 -2.78665979181e-14 283 0 c 6
EndSplineSet
Validated: 1
EndChar

StartChar: C
Encoding: 67 67 14
Width: 586
Flags: W
HStem: 0 98<291.174 559> 633.008 98<277.18 561.318>
VStem: 25 109<247.863 489.242>
LayerCount: 2
Fore
SplineSet
385.318359375 731.0078125 m 6
 561.318359375 731.0078125 l 5
 561.318359375 633.0078125 l 5
 384.83203125 633.0078125 l 6
 226.364662481 633.0078125 134 534.465225089 134 365 c 4
 134 199.426835094 239.041015625 98 410.513671875 98 c 6
 559 98 l 5
 559 0 l 5
 406 0 l 6
 165.823242188 0 25 144.574994256 25 363 c 4
 25 584.109099066 159.463599685 731.0078125 385.318359375 731.0078125 c 6
EndSplineSet
Validated: 1
Substitution2: "'ss04' Style Set 4 lookup 7-1" C.ss04
EndChar

StartChar: G
Encoding: 71 71 15
Width: 697
Flags: W
HStem: -10 98<268.961 491.1> 317 94<354 578> 633.008 98<291.174 609>
VStem: 25 109<231.169 476.305> 578 104<173.95 317>
LayerCount: 2
Fore
SplineSet
406 731.0078125 m 2
 609 731.0078125 l 1
 609 633.0078125 l 1
 410.513671875 633.0078125 l 2
 239.041015625 633.0078125 134 527.40234375 134 355.0078125 c 0
 134 186.174901907 222.55089719 88 374.83203125 88 c 4
 506 88 578 142.65445209 578 269 c 6
 578 317 l 5
 354 317 l 5
 354 411 l 5
 682 411 l 5
 682 262 l 6
 682 92.4832270053 565.621115057 -10 376 -10 c 0
 155.495154417 -10 25 136.499540622 25 357.0078125 c 0
 25 582.051757812 165.823242188 731.0078125 406 731.0078125 c 2
EndSplineSet
EndChar

StartChar: K
Encoding: 75 75 16
Width: 643
Flags: W
HStem: 0 94<506.348 618> 310.008 98<60 412.097> 310.008 60.9922<286 360> 711.008 20G<40 149 474 582>
VStem: 40 109<0 310.008 408.008 731.008> 60 89<310.008 408.008> 474 108<507.752 731.008>
LayerCount: 2
Fore
SplineSet
60 408.0078125 m 5xd6
 269 408.0078125 l 6
 412.096940104 408.0078125 474 476.853726774 474 636.0078125 c 6
 474 731.0078125 l 5
 582 731.0078125 l 5
 582 611.0078125 l 6
 582 424.484514509 469.424430941 310.0078125 286 310.0078125 c 6
 60 310.0078125 l 5
 60 408.0078125 l 5xd6
40 0 m 5x9a
 40 731.0078125 l 5
 149 731.0078125 l 5
 149 0 l 5
 40 0 l 5x9a
440 0 m 5
 250 371 l 5
 360 371 l 5xb2
 506.34765625 94 l 5
 618 94 l 5
 618 0 l 5
 440 0 l 5
EndSplineSet
Validated: 5
EndChar

StartChar: R
Encoding: 82 82 17
Width: 638
Flags: W
HStem: 0 94<501.348 613> 280.008 98<60 430.931> 280.008 80.9922<245 355> 633.008 98<60 424.782>
VStem: 40 109<0 280.008 378.008 633.008> 60 89<280.008 378.008 633.008 731.008> 484 108<425.479 580.379>
LayerCount: 2
Fore
SplineSet
435 0 m 5xb2
 245 361 l 5
 355 361 l 5
 501.34765625 94 l 5
 613 94 l 5
 613 0 l 5
 435 0 l 5xb2
592 505.0078125 m 4
 592 365.581054688 494.63671875 280.0078125 336 280.0078125 c 6
 60 280.0078125 l 5
 60 378.0078125 l 5
 319 378.0078125 l 6
 434.17578125 378.0078125 484 414.846679688 484 500.0078125 c 4
 484 592.84765625 434.17578125 633.0078125 319 633.0078125 c 6
 60 633.0078125 l 5
 60 731.0078125 l 5xd6
 336 731.0078125 l 6
 494.63671875 731.0078125 592 645.055664062 592 505.0078125 c 4
40 0 m 5x9a
 40 731.0078125 l 5x9a
 149 731.0078125 l 5x96
 149 0 l 5
 40 0 l 5x9a
EndSplineSet
Validated: 5
EndChar

StartChar: S
Encoding: 83 83 18
Width: 570
Flags: W
HStem: 0 98<37 390.223> 633 98<170.339 502>
VStem: 25 108<474.575 599.32> 437 108<139.896 279.942>
LayerCount: 2
Fore
SplineSet
25 536 m 0
 25 656.837890625 112.855133929 731 256 731 c 2
 502 731 l 1
 502 633 l 1
 273 633 l 2
 175.275390625 633 133 603.408203125 133 535 c 0
 133 469.471305491 173.421302341 445.308522117 264 431 c 0
 473.245117188 397.945998733 545 345.428381018 545 206 c 0
 545 78.3466796875 451.440429688 0 299 0 c 2
 37 0 l 1
 37 98 l 1
 282 98 l 2
 390.1953125 98 437 131.819335938 437 210 c 0
 437 291.671484375 390.181640625 312.593994141 282 327 c 0
 93.4972875424 352.101959672 25 406.487650751 25 536 c 0
EndSplineSet
Validated: 1
Substitution2: "'ss07' Style Set 7 lookup 10-1" S.ss07
EndChar

StartChar: A
Encoding: 65 65 19
Width: 622
Flags: W
HStem: 0 21G<40 149 474 582> 252 94<128 496> 633.008 98<60 395.187>
VStem: 40 109<0 252 346 633.008> 60 89<633.008 731.008> 128 21<252 346> 474 108<0.0078125 252 346 559.588> 474 22<252 346>
LayerCount: 2
Fore
SplineSet
128 346 m 1xe5
 496 346 l 1
 496 252 l 1
 128 252 l 1
 128 346 l 1xe5
40 0 m 5xf0
 40 731.0078125 l 5xf0
 149 731.0078125 l 5xe8
 149 0 l 5
 40 0 l 5xf0
60 633.0078125 m 5xea
 60 731.0078125 l 5
 296 731.0078125 l 6
 473.227491425 731.0078125 582 646.380952171 582 470.0078125 c 6
 582 0.0078125 l 5
 474 0.0078125 l 5
 474 442.0078125 l 6
 474 590.344590749 414.21078629 633.0078125 276 633.0078125 c 6
 60 633.0078125 l 5xea
EndSplineSet
Validated: 5
EndChar

StartChar: M
Encoding: 77 77 20
Width: 832
Flags: W
HStem: 0.0078125 21G<40 149 370.233 458.81 681 792> 711.008 20G<40 133.966 690.103 792>
VStem: 40 109<0 473.008> 681 111<0.0078125 473.008>
LayerCount: 2
Back
SplineSet
60 633.0078125 m 5xd6
 60 731.0078125 l 5
 336 731.0078125 l 6
 488.440429688 731.0078125 582 659.350585938 582 510.0078125 c 6
 582 0.0078125 l 5
 474 0.0078125 l 5
 474 482.0078125 l 6
 474 599.279296875 427.1953125 633.0078125 319 633.0078125 c 6
 60 633.0078125 l 5xd6
EndSplineSet
Fore
SplineSet
40 731.0078125 m 1
 124 731.0078125 l 1
 413 151.0078125 l 1
 700 731.0078125 l 1
 792 731.0078125 l 1
 792 0.0078125 l 1
 681 0.0078125 l 1
 681 473.0078125 l 5
 449 0 l 1
 380 0 l 1
 149 473.0078125 l 5
 149 0 l 1
 40 0 l 1
 40 731.0078125 l 1
EndSplineSet
Validated: 1
Substitution2: "'ss03' Style Set 3 lookup 6-1" M.ss03
EndChar

StartChar: U
Encoding: 85 85 22
Width: 644
Flags: W
HStem: -10.0078 98<225.199 419.248> 711.008 20G<40 149 495.336 604.336>
VStem: 40 109<169.573 731.008> 495.336 109<169.573 731.008>
LayerCount: 2
Fore
SplineSet
495.3359375 289 m 6
 495.3359375 731.0078125 l 5
 604.3359375 731.0078125 l 5
 604.3359375 279 l 6
 604.3359375 111.002929688 529.93359375 -10.0078125 322.3359375 -10.0078125 c 4
 114.491210938 -10.0078125 40 111.002929688 40 279 c 6
 40 731.0078125 l 5
 149 731.0078125 l 5
 149 289 l 6
 149 169.348632812 181.969726562 87.9921875 322.16796875 87.9921875 c 4
 462.366210938 87.9921875 495.3359375 169.348632812 495.3359375 289 c 6
EndSplineSet
Validated: 1
EndChar

StartChar: P
Encoding: 80 80 23
Width: 622
Flags: W
HStem: 0 21G<40 149> 250.008 98<60 420.324> 633.008 98<60 420.324>
VStem: 40 109<0 250.008 348.008 633.008> 60 89<250.008 348.008 633.008 731.008> 489 108<408.612 572.254>
LayerCount: 2
Fore
SplineSet
597 495.0078125 m 4xec
 597 343.186523438 499.263671875 250.0078125 314 250.0078125 c 6
 60 250.0078125 l 5
 60 348.0078125 l 5
 297 348.0078125 l 6
 431.022460938 348.0078125 489 390.885742188 489 490.0078125 c 4
 489 589.828125 431.022460938 633.0078125 297 633.0078125 c 6
 60 633.0078125 l 5
 60 731.0078125 l 5
 314 731.0078125 l 6
 499.263671875 731.0078125 597 641.251953125 597 495.0078125 c 4xec
40 0 m 5xf4
 40 731.0078125 l 5xf4
 149 731.0078125 l 5xec
 149 0 l 5
 40 0 l 5xf4
EndSplineSet
Validated: 5
EndChar

StartChar: M.ss03
Encoding: 65539 -1 24
Width: 892
Flags: W
HStem: 0.0078125 20.9922G<40 149 390 499 741 852> 633.008 98<60 390 499 665.187> 633.008 48<390 499>
VStem: 40 109<0 633.008> 60 89<633.008 731.008> 390 109<0 681.008> 741 111<0.0078125 559.588>
LayerCount: 2
Fore
SplineSet
390 0 m 1xa6
 390 681.0078125 l 1
 499 681.0078125 l 1
 499 0 l 1
 390 0 l 1xa6
40 0 m 1xd6
 40 731.0078125 l 1xd6
 149 731.0078125 l 1xce
 149 0 l 1
 40 0 l 1xd6
60 633.0078125 m 1xce
 60 731.0078125 l 1
 566 731.0078125 l 6
 743.227491425 731.0078125 852 646.380952171 852 470.0078125 c 6
 852 0.0078125 l 5
 741 0.0078125 l 5
 741 442.0078125 l 6
 741 590.344590749 682.116683468 633.0078125 546 633.0078125 c 6
 60 633.0078125 l 1xce
EndSplineSet
Validated: 5
EndChar

StartChar: Q
Encoding: 81 81 25
Width: 821
Flags: W
HStem: -0.0078125 101.008<277.889 806> 638.008 101<275.067 487.392>
VStem: 25 109<255.095 488.61> 628 109<252.089 491.584>
LayerCount: 2
Fore
SplineSet
382 101 m 1
 806 101 l 1
 806 0 l 1
 382 0 l 1
 382 101 l 1
134 371 m 0
 134 210.276004871 230.824815393 100.9921875 382.16796875 100.9921875 c 0
 531.156263004 100.9921875 628 210.276004871 628 371 c 0
 628 530.522539557 531.156263004 638.0078125 382.16796875 638.0078125 c 0
 230.824815393 638.0078125 134 530.522539557 134 371 c 0
25 369 m 0
 25 582.346798412 163.72573896 739.0078125 381 739.0078125 c 0
 598.27426104 739.0078125 737 582.346798412 737 369 c 0
 737 154.5 598.27426104 -0.0078125 381 -0.0078125 c 0
 163.72573896 -0.0078125 25 154.5 25 369 c 0
EndSplineSet
Validated: 5
EndChar

StartChar: B
Encoding: 66 66 26
Width: 607
Flags: W
HStem: 0 98<149 423.287> 323 98.0078<232 411.404> 633.008 98<149 409.76>
VStem: 40 109<98 633.008> 454 108<460.475 595.111> 474 108<143.751 278.368>
LayerCount: 2
Fore
SplineSet
149 633.0078125 m 1xf8
 149 98 l 1
 307 98 l 2
 423.571289062 98 474 132.12109375 474 211 c 0xf4
 474 289.180664062 421.155273438 323 299 323 c 2
 232 323 l 1
 232 421.0078125 l 1
 299 421.0078125 l 2
 407.1953125 421.0078125 454 452.712890625 454 526.0078125 c 0
 454 600.698242188 409.610351562 633.0078125 307 633.0078125 c 2
 149 633.0078125 l 1xf8
40 731.0078125 m 1
 324 731.0078125 l 6
 479.8046875 731.0078125 562 654.944335938 562 531.0078125 c 0xf8
 562 411.049804688 461.224609375 378.603515625 461.224609375 378.603515625 c 1
 461.224609375 378.603515625 582 344.708007812 582 206 c 0
 582 78.345703125 492.897460938 0 324 0 c 2
 40 0 l 1
 40 731.0078125 l 1
EndSplineSet
Validated: 1
EndChar

StartChar: comma
Encoding: 44 44 27
Width: 205
Flags: W
HStem: -109.006 80<-15 51.4325>
VStem: 70 95<-12.1354 102.002>
LayerCount: 2
Fore
SplineSet
70 102.001953125 m 5
 165 102.001953125 l 5
 165 26.994140625 l 6
 165 -54.9336306014 111.374498522 -109.005859375 24 -109.005859375 c 6
 -15 -109.005859375 l 5
 -15 -29.005859375 l 5
 -12 -29.005859375 l 6
 45.2404597356 -29.005859375 70 -6.00618489583 70 45.994140625 c 6
 70 102.001953125 l 5
EndSplineSet
Validated: 1
EndChar

StartChar: t
Encoding: 116 116 28
Width: 285
Flags: W
HStem: 0 88<161.622 260> 397.011 84<82 260>
VStem: 40 99<109.539 397.011 481.011 691.008> 82 57<397.011 481.011>
LayerCount: 2
Fore
SplineSet
82 481.010742188 m 5xd0
 260 481.010742188 l 5
 260 397.010742188 l 5
 82 397.010742188 l 5
 82 481.010742188 l 5xd0
139 691.0078125 m 1xe0
 139 173 l 2
 139 114.066666667 165.572315705 88 227 88 c 2
 260 88 l 1
 260 0 l 1
 191 0 l 2
 97.4287109375 0 40 66 40 166 c 2
 40 691.0078125 l 1
 139 691.0078125 l 1xe0
EndSplineSet
Validated: 5
EndChar

StartChar: V
Encoding: 86 86 29
Width: 622
Flags: W
HStem: 0 98<60 306.787> 711.008 20G<40 149 474 582>
VStem: 40 109<98 731.008> 60 89<0 98> 474 108<285.47 731>
LayerCount: 2
Fore
SplineSet
40 731.0078125 m 1xe8
 149 731.0078125 l 1xe8
 149 0 l 1xd8
 40 0 l 1
 40 731.0078125 l 1xe8
60 98 m 1xd8
 156 98 l 2
 377.974899194 98 474 183.103075849 474 479 c 6
 474 731 l 1
 582 731 l 1
 582 451 l 6
 582 146.232620723 427.588676639 0 176 0 c 2
 60 0 l 1
 60 98 l 1xd8
EndSplineSet
Validated: 5
EndChar

StartChar: W
Encoding: 87 87 30
Width: 892
Flags: W
HStem: 0 98<60 382 426 576.787> 40 58<382 491> 711.008 20G<40 149 382 491 744 852>
VStem: 40 109<98 731.008> 60 89<0 98> 382 109<40 731.008> 744 108<285.47 731>
LayerCount: 2
Fore
SplineSet
382 731.0078125 m 5x66
 491 731.0078125 l 5
 491 40 l 5
 382 40 l 5
 382 731.0078125 l 5x66
40 731.0078125 m 5xb6
 149 731.0078125 l 5xb6
 149 0 l 5xae
 40 0 l 5
 40 731.0078125 l 5xb6
60 98 m 5xae
 426 98 l 6
 647.974899194 98 744 183.103075849 744 479 c 6
 744 731 l 5
 852 731 l 5
 852 451 l 6
 852 146.232620723 697.588676639 0 446 0 c 6
 60 0 l 5
 60 98 l 5xae
EndSplineSet
Validated: 5
EndChar

StartChar: X
Encoding: 88 88 31
Width: 643
Flags: W
HStem: 0 21G<10 148.883 494.117 633> 711.008 20G<17 154.016 488.984 626>
VStem: 297 49<326 416>
LayerCount: 2
Fore
SplineSet
136 0 m 1
 10 0 l 1
 253 372 l 5
 17 731.0078125 l 1
 141 731.0078125 l 1
 346 416 l 5
 346 326 l 5
 136 0 l 1
507 0 m 1
 297 326 l 5
 297 416 l 5
 502 731.0078125 l 1
 626 731.0078125 l 1
 390 372 l 5
 633 0 l 1
 507 0 l 1
EndSplineSet
Substitution2: "'ss05' Style Set 5 lookup 8-1" X.ss05
EndChar

StartChar: Y
Encoding: 89 89 32
Width: 629
Flags: W
HStem: 0 21G<260 369> 272 49.0078<276 353> 711.008 20G<10 145.226 483.774 619>
VStem: 260 109<0 321.008>
LayerCount: 2
Fore
SplineSet
353 272 m 5
 276 272 l 5
 10 731.0078125 l 1
 134 731.0078125 l 1
 314.5 409.423828125 l 5
 495 731.0078125 l 1
 619 731.0078125 l 1
 353 272 l 5
260 0 m 1
 260 321.0078125 l 5
 369 321.0078125 l 5
 369 0 l 1
 260 0 l 1
EndSplineSet
Validated: 5
EndChar

StartChar: i
Encoding: 105 105 33
Width: 178
Flags: W
HStem: 0 21G<40 138> 565.207 121.801<42.962 135.038>
VStem: 28.0996 121.801<580.069 672.145> 40 98<0 481.008>
LayerCount: 2
Fore
SplineSet
40 0 m 5xd0
 40 481.0078125 l 5
 138 481.0078125 l 5
 138 0 l 5
 40 0 l 5xd0
28.099609375 626.107421875 m 0xe0
 28.099609375 659.70703125 55.400390625 687.0078125 89 687.0078125 c 0
 122.599609375 687.0078125 149.900390625 659.70703125 149.900390625 626.107421875 c 0
 149.900390625 592.5078125 122.599609375 565.20703125 89 565.20703125 c 0
 55.400390625 565.20703125 28.099609375 592.5078125 28.099609375 626.107421875 c 0xe0
EndSplineSet
Validated: 1
EndChar

StartChar: o
Encoding: 111 111 34
Width: 550
Flags: W
HStem: -10.0078 91<194.322 356.085> 399.934 91<194.322 356.085>
VStem: 25 99<151.747 329.605> 426 99<151.747 329.605>
LayerCount: 2
Fore
SplineSet
124 241 m 4
 124 145.75425641 183.369609854 80.9921875 276.16796875 80.9921875 c 0
 366.974763321 80.9921875 426 145.75425641 426 241 c 0
 426 335.954114857 366.974763321 399.93359375 276.16796875 399.93359375 c 0
 183.369609854 399.93359375 124 335.954114857 124 241 c 4
25 241 m 4
 25 385.111908562 122.419760506 490.93359375 275 490.93359375 c 0
 427.580239494 490.93359375 525 385.111908562 525 241 c 0
 525 95.0920436983 427.580239494 -10.0078125 275 -10.0078125 c 0
 122.419760506 -10.0078125 25 95.0920436983 25 241 c 4
EndSplineSet
Validated: 1
EndChar

StartChar: h
Encoding: 104 104 35
Width: 512
Flags: W
HStem: 0 21.0078G<40 138 378 472> 392.008 89<60 317.223>
VStem: 40 98<0 392.008 481.008 751.008> 60 78<392.008 481.008> 378 94<0.0078125 334.129>
LayerCount: 2
Fore
SplineSet
60 392.0078125 m 1xd8
 60 481.0078125 l 1
 226 481.0078125 l 2
 378.440429688 481.0078125 472 409.350585938 472 260.0078125 c 2
 472 0.0078125 l 1
 378 0.0078125 l 1
 378 232.0078125 l 2
 378 356.268987997 326.061895161 392.0078125 206 392.0078125 c 2
 60 392.0078125 l 1xd8
40 0 m 1xe8
 40 751.0078125 l 1
 138 751.0078125 l 1
 138 0 l 1
 40 0 l 1xe8
EndSplineSet
Validated: 5
EndChar

StartChar: p
Encoding: 112 112 36
Width: 530
Flags: W
HStem: -178.997 21G<40 138> 0.00292969 91<70 334.886> 390.011 91<40 334.515>
VStem: 40 98<-178.997 0.00292969 91.0029 390.011> 70 68<0.00292969 91.0029> 406 99<158.765 321.863>
LayerCount: 2
Fore
SplineSet
40 481.010742188 m 5xf4
 138 481.010742188 l 5xec
 138 -178.997070312 l 5
 40 -178.997070312 l 5
 40 481.010742188 l 5xf4
255 0.0029296875 m 2
 70 0.0029296875 l 1
 70 91.0029296875 l 1xec
 256.16796875 91.0029296875 l 2
 347 91.0029296875 406 151.03125 406 240.010742188 c 0
 406 329.303710938 347 390.010742188 256.486328125 390.010742188 c 2
 40 390.010742188 l 1
 40 481.010742188 l 1xf4
 255 481.010742188 l 2
 407 481.010742188 505 380.10546875 505 240.010742188 c 0
 505 101.665039062 408 0.00292968749998 255 0.0029296875 c 2
EndSplineSet
Validated: 5
EndChar

StartChar: n
Encoding: 110 110 37
Width: 512
Flags: W
HStem: 0 21.0078G<40 138 378 472> 392.008 89<60 317.223>
VStem: 40 98<0 392.008> 60 78<392.008 481.008> 378 94<0.0078125 334.129>
LayerCount: 2
Fore
SplineSet
60 392.0078125 m 1xd8
 60 481.0078125 l 1
 226 481.0078125 l 2
 378.440429688 481.0078125 472 409.350585938 472 260.0078125 c 2
 472 0.0078125 l 1
 378 0.0078125 l 1
 378 232.0078125 l 2
 378 356.268987997 326.061895161 392.0078125 206 392.0078125 c 2
 60 392.0078125 l 1xd8
40 0 m 1xe8
 40 481.0078125 l 5xe8
 138 481.0078125 l 5xd8
 138 0 l 1
 40 0 l 1xe8
EndSplineSet
Validated: 5
EndChar

StartChar: m
Encoding: 109 109 38
Width: 744
Flags: W
HStem: 0 21G<40 138 324 422 610 704> 392.008 89<60 324 422 549.223> 392.008 59<324 422>
VStem: 40 98<0 392.008> 60 78<392.008 481.008> 324 98<0 451.008> 610 94<0.0078125 334.129>
LayerCount: 2
Fore
SplineSet
324 0 m 5xa6
 324 451.0078125 l 5
 422 451.0078125 l 5
 422 0 l 5
 324 0 l 5xa6
60 392.0078125 m 1xce
 60 481.0078125 l 1
 458 481.0078125 l 6
 610.440429688 481.0078125 704 409.350585938 704 260.0078125 c 6
 704 0.0078125 l 5
 610 0.0078125 l 5
 610 232.0078125 l 6
 610 356.268987997 558.061895161 392.0078125 438 392.0078125 c 6
 60 392.0078125 l 1xce
40 0 m 1xd6
 40 481.0078125 l 1xd6
 138 481.0078125 l 1xce
 138 0 l 1
 40 0 l 1xd6
EndSplineSet
Validated: 5
EndChar

StartChar: u
Encoding: 117 117 39
Width: 512
Flags: W
HStem: 0 89<194.777 452> 461 20.0078G<40 134 374 472>
VStem: 40 94<146.879 481> 374 98<89 481.008> 374 78<0 89>
LayerCount: 2
Fore
SplineSet
452 89 m 1xe8
 452 0 l 1
 286 0 l 2
 133.559570312 0 40 71.6572265625 40 221 c 2
 40 481 l 1
 134 481 l 1
 134 249 l 2
 134 124.739257812 185.938476562 89 306 89 c 2
 452 89 l 1xe8
472 481.0078125 m 1xf0
 472 0 l 5xf0
 374 0 l 5xe8
 374 481.0078125 l 1
 472 481.0078125 l 1xf0
EndSplineSet
Validated: 5
EndChar

StartChar: v
Encoding: 118 118 40
Width: 512
Flags: W
HStem: 0 89<60 271.568> 461 20.0078G<40 138 378 472>
VStem: 40 98<89 481.008> 60 78<0 89> 378 94<207.7 481>
LayerCount: 2
Fore
SplineSet
60 89 m 1xd8
 146 89 l 2
 307.943450218 89 378 151.543701172 378 369 c 2
 378 481 l 1
 472 481 l 1
 472 341 l 2
 472 110.566127863 355.621022294 -2.39808173319e-14 166 0 c 6
 60 0 l 1
 60 89 l 1xd8
40 481.0078125 m 1xe8
 138 481.0078125 l 1xe8
 138 0 l 1xd8
 40 0 l 1
 40 481.0078125 l 1xe8
EndSplineSet
Validated: 5
EndChar

StartChar: w
Encoding: 119 119 41
Width: 744
Flags: W
HStem: 0 89<60 319 378 503.568> 30 59<319 417> 461.008 20G<40 138 319 417 610 704>
VStem: 40 98<89 481.008> 60 78<0 89> 319 98<30 481.008> 610 94<207.7 481>
LayerCount: 2
Fore
SplineSet
319 481.0078125 m 1x66
 417 481.0078125 l 1
 417 30 l 5
 319 30 l 5
 319 481.0078125 l 1x66
60 89 m 1xae
 378 89 l 2
 539.943450218 89 610 151.543701172 610 369 c 2
 610 481 l 1
 704 481 l 1
 704 341 l 2
 704 110.566127863 587.621022294 -2.39808173319e-14 398 0 c 2
 60 0 l 1
 60 89 l 1xae
40 481.0078125 m 1xb6
 138 481.0078125 l 1xb6
 138 0 l 1xae
 40 0 l 1
 40 481.0078125 l 1xb6
EndSplineSet
Validated: 5
EndChar

StartChar: l
Encoding: 108 108 42
Width: 275
Flags: W
HStem: 0 88<161.622 260> 731.008 20G<40 139>
VStem: 40 99<109.539 751.008>
LayerCount: 2
Fore
SplineSet
139 751.0078125 m 5
 139 173 l 6
 139 114.066666667 165.572315705 88 227 88 c 6
 260 88 l 5
 260 0 l 5
 191 0 l 6
 97.4287109375 -1.14630527293e-14 40 66 40 166 c 6
 40 751.0078125 l 5
 139 751.0078125 l 5
EndSplineSet
Validated: 1
EndChar

StartChar: f
Encoding: 102 102 43
Width: 275
Flags: W
HStem: 0 21G<40 139> 397.011 84<82 250> 668.008 83<157.647 260>
VStem: 40 99<0 397.011 481.011 648.067> 82 57<397.011 481.011>
LayerCount: 2
Fore
SplineSet
82 481.010742188 m 5xe8
 250 481.010742188 l 5
 250 397.010742188 l 5
 82 397.010742188 l 5
 82 481.010742188 l 5xe8
139 0 m 5xf0
 40 0 l 5
 40 595.0078125 l 6
 40 688.983716114 97.4287109375 751.0078125 191 751.0078125 c 6
 260 751.0078125 l 5
 260 668.0078125 l 5
 227 668.0078125 l 6
 165.572265625 668.0078125 139 643.474724265 139 588.0078125 c 6
 139 0 l 5xf0
EndSplineSet
Validated: 5
EndChar

StartChar: c
Encoding: 99 99 44
Width: 436
Flags: W
HStem: -0.0078125 88<197.571 411> 389.934 91<189.102 408>
VStem: 25 99<157.818 326.53>
LayerCount: 2
Fore
SplineSet
408 389.93359375 m 5
 263.16796875 389.93359375 l 2
 178.297550826 389.93359375 124 329.979662722 124 241 c 0
 124 145.75425641 188.040482608 87.9921875 289.16796875 87.9921875 c 2
 411 87.9921875 l 5
 411 -0.0078125 l 5
 288 -0.0078125 l 2
 127.044 -0.0078125 25 95.0920436983 25 241 c 0
 25 379.345900624 114.863367187 480.93359375 258 480.93359375 c 2
 408 480.93359375 l 5
 408 389.93359375 l 5
EndSplineSet
Validated: 1
Substitution2: "'ss04' Style Set 4 lookup 7-1" c.ss04
EndChar

StartChar: e
Encoding: 101 101 45
Width: 500
Flags: W
HStem: -0.0078125 88<202.164 448> 399.934 91<185.042 330.167>
VStem: 25 99<173.717 334.082>
LayerCount: 2
Fore
SplineSet
86.6953125 203.283203125 m 5
 439.5 331.063476562 l 5
 475 254.93359375 l 5
 122.1953125 127.153320312 l 5
 86.6953125 203.283203125 l 5
254 490.93359375 m 4
 401.283925413 490.93359375 475 392.364531675 475 273.93359375 c 6
 475 254.93359375 l 5
 377 254.93359375 l 5
 377 256.93359375 l 6
 377 337.199869792 351.512252804 399.93359375 255.16796875 399.93359375 c 4
 175.176283642 399.93359375 124 335.954114857 124 241 c 4
 124 145.75425641 190.754588628 87.9921875 296.16796875 87.9921875 c 6
 448 87.9921875 l 5
 448 -0.0078125 l 5
 295 -0.0078125 l 6
 129.76 -0.0078125 25 95.0920436983 25 241 c 4
 25 385.111908562 113.320648438 490.93359375 254 490.93359375 c 4
EndSplineSet
Validated: 5
Substitution2: "'ss08' Style Set 8 lookup 11-1" e.ss08
EndChar

StartChar: d
Encoding: 100 100 46
Width: 530
Flags: W
HStem: 0 91<195.485 490> 390.008 91<195.114 460> 731.008 20G<392 490>
VStem: 25 99<159.148 322.245> 392 98<0 390.008 481.008 751.008> 392 68<390.008 481.008>
LayerCount: 2
Fore
SplineSet
490 0 m 5xf8
 392 0 l 5
 392 751.0078125 l 5
 490 751.0078125 l 5
 490 0 l 5xf8
275 481.0078125 m 6
 460 481.0078125 l 5
 460 390.0078125 l 5xf4
 273.83203125 390.0078125 l 6
 183 390.0078125 124 329.979662722 124 241 c 4
 124 151.706824731 183 91 273.513671875 91 c 6
 490 91 l 5
 490 0 l 5
 275 0 l 6
 123 0 25 100.904928757 25 241 c 4
 25 379.345900624 122 481.0078125 275 481.0078125 c 6
EndSplineSet
Validated: 5
EndChar

StartChar: j
Encoding: 106 106 47
Width: 178
Flags: W
HStem: -179 88<-81 17.3781> 461.008 20G<40 139> 565.207 121.801<42.962 135.038>
VStem: 28.0996 121.801<580.069 672.145> 40 99<-69.4608 481.008>
LayerCount: 2
Fore
SplineSet
40 481.0078125 m 5xe8
 139 481.0078125 l 5
 139 -13 l 6
 139 -113 81.5712890625 -179 -12 -179 c 6
 -81 -179 l 5
 -81 -91 l 5
 -48 -91 l 6
 13.4276842949 -91 40 -64.9333333333 40 -6 c 6
 40 481.0078125 l 5xe8
28.099609375 626.107421875 m 0xf0
 28.099609375 659.70703125 55.400390625 687.0078125 89 687.0078125 c 0
 122.599609375 687.0078125 149.900390625 659.70703125 149.900390625 626.107421875 c 0
 149.900390625 592.5078125 122.599609375 565.20703125 89 565.20703125 c 0
 55.400390625 565.20703125 28.099609375 592.5078125 28.099609375 626.107421875 c 0xf0
EndSplineSet
Validated: 1
EndChar

StartChar: z
Encoding: 122 122 48
Width: 461
Flags: W
HStem: 0 88<159.532 340.634> 393.011 88<120.366 301.468>
VStem: 25 88<281.011 385.696> 348 88<95.3149 200>
LayerCount: 2
Fore
SplineSet
290 0 m 6
 28 0 l 5
 28 54 l 5
 301.467773438 393.010742188 l 5
 168 393.010742188 l 6
 129.608138021 393.010742188 113 375.497170473 113 335.010742188 c 6
 113 281.010742188 l 5
 25 281.010742188 l 5
 25 350.010742188 l 6
 25 431.18848303 80.5273084526 481.010742188 171 481.010742188 c 6
 433 481.010742188 l 5
 433 427.010742188 l 5
 159.532226562 88 l 5
 293 88 l 6
 331.391861979 88 348 105.513571715 348 146 c 6
 348 200 l 5
 436 200 l 5
 436 131 l 6
 436 49.8222591577 380.472691547 -1.09356967926e-14 290 0 c 6
EndSplineSet
Validated: 1
EndChar

StartChar: y
Encoding: 121 121 49
Width: 512
Flags: W
HStem: -179 88<82 350.378> 30 89<166.035 452> 461.008 20G<40 134 373 472>
VStem: 40 94<151.218 481> 373 99<-69.4608 30 119 481.008> 373 79<30 119>
LayerCount: 2
Fore
SplineSet
373 481.0078125 m 1xf8
 472 481.0078125 l 1
 472 -13 l 2
 472 -113 414.571289062 -179 321 -179 c 2
 82 -179 l 1
 82 -91 l 1
 285 -91 l 2
 346.427684295 -91 373 -64.9333333333 373 -6 c 2
 373 481.0078125 l 1xf8
452 119 m 1xf4
 452 30 l 1
 226 30 l 2
 110.740162919 30 40 85.4451843538 40 201 c 2
 40 481 l 1
 134 481 l 1
 134 229 l 2
 134 143.570739746 167.820403343 119 246 119 c 2
 452 119 l 1xf4
EndSplineSet
Validated: 5
EndChar

StartChar: b
Encoding: 98 98 50
Width: 530
Flags: W
HStem: 0 91<40 334.515> 390.008 91<70 334.886> 731.008 20G<40 138>
VStem: 40 98<91 390.008 481.008 751.008> 70 68<390.008 481.008> 406 99<159.148 322.245>
LayerCount: 2
Fore
SplineSet
40 0 m 1xf4
 40 751.0078125 l 1
 138 751.0078125 l 1xf4
 138 0 l 1xec
 40 0 l 1xf4
255 481.0078125 m 6
 408 481.0078125 505 379.345900624 505 241 c 4
 505 100.904928757 407 0 255 0 c 6
 40 0 l 5
 40 91 l 5xf4
 256.486328125 91 l 6
 347 91 406 151.706824731 406 241 c 4
 406 329.979662722 347 390.0078125 256.16796875 390.0078125 c 6
 70 390.0078125 l 5
 70 481.0078125 l 5xec
 255 481.0078125 l 6
EndSplineSet
Validated: 5
EndChar

StartChar: q
Encoding: 113 113 51
Width: 530
Flags: W
HStem: -178.997 21G<392 490> 0.00292969 91<195.114 460> 390.011 91<195.485 490>
VStem: 25 99<158.765 321.863> 392 98<-178.997 0.00292969 91.0029 481.011> 392 68<0.00292969 91.0029>
LayerCount: 2
Fore
SplineSet
490 481.010742188 m 1xf8
 490 -178.997070312 l 5
 392 -178.997070312 l 5
 392 481.010742188 l 1
 490 481.010742188 l 1xf8
275 0.0029296875 m 2
 122 0.0029296875 25 101.665039062 25 240.010742188 c 0
 25 380.10546875 123 481.010742188 275 481.010742188 c 2
 490 481.010742188 l 1
 490 390.010742188 l 1xf8
 273.513671875 390.010742188 l 2
 183 390.010742188 124 329.303710938 124 240.010742188 c 0
 124 151.03125 183 91.0029296875 273.83203125 91.0029296875 c 2
 460 91.0029296875 l 1
 460 0.0029296875 l 1xf4
 275 0.0029296875 l 2
EndSplineSet
Validated: 5
EndChar

StartChar: g
Encoding: 103 103 52
Width: 515
Flags: W
HStem: -178.997 88<85 353.378> 30.0029 91<180.25 445> 390.011 91<180.167 475>
VStem: 25 99<179.093 331.538> 376 99<-69.4579 30.0029 121.003 481.011> 376 69<30.0029 121.003>
LayerCount: 2
Fore
SplineSet
376 481.010742188 m 1xf8
 475 481.010742188 l 1
 475 -12.9970703125 l 2
 475 -112.997070312 417.571289062 -178.997070312 324 -178.997070312 c 2
 85 -178.997070312 l 1
 85 -90.9970703125 l 1
 288 -90.9970703125 l 2
 349.427684295 -90.9970703125 376 -64.9304036458 376 -5.9970703125 c 2
 376 481.010742188 l 1xf8
260 30.0029296875 m 2
 116.18 30.0029296875 25 125.311364052 25 255.010742188 c 0
 25 386.38587996 117.12 481.010742188 260 481.010742188 c 2
 475 481.010742188 l 1
 475 390.010742188 l 1xf8
 258.513671875 390.010742188 l 2
 177.080808873 390.010742188 124 335.374414063 124 255.010742188 c 0
 124 174.988447347 177.093385823 121.002929688 258.83203125 121.002929688 c 2
 445 121.002929688 l 1
 445 30.0029296875 l 1xf4
 260 30.0029296875 l 2
EndSplineSet
Validated: 5
EndChar

StartChar: x
Encoding: 120 120 53
Width: 494
Flags: W
HStem: 0 91<25 137.12 356.88 469> 390.008 91<25 139.082 354.918 469>
VStem: 204 86<100.905 379.346>
LayerCount: 2
Fore
SplineSet
434 481.0078125 m 6
 469 481.0078125 l 5
 469 390.0078125 l 5
 432.83203125 390.0078125 l 6
 348.062257215 390.0078125 293 329.979662722 293 241 c 4
 293 151.706824731 348.053872582 91 432.513671875 91 c 6
 469 91 l 5
 469 0 l 5
 434 0 l 6
 294.16 0 204 100.904928757 204 241 c 4
 204 379.345900624 293.24 481.0078125 434 481.0078125 c 6
60 481.0078125 m 2
 200.76 481.0078125 290 379.345900624 290 241 c 0
 290 100.904928757 199.84 -1.71248952519e-14 60 0 c 2
 25 0 l 1
 25 91 l 1
 61.486328125 91 l 2
 145.946127418 91 201 151.706824731 201 241 c 0
 201 329.979662722 145.937742785 390.0078125 61.16796875 390.0078125 c 2
 25 390.0078125 l 1
 25 481.0078125 l 1
 60 481.0078125 l 2
EndSplineSet
Validated: 5
EndChar

StartChar: s
Encoding: 115 115 54
Width: 420
Flags: W
HStem: 0 88<37 279.743> 393 88<135.136 359>
VStem: 25 98<304.505 378.556> 297 98<105.875 178.935>
LayerCount: 2
Fore
SplineSet
25 340 m 0
 25 427.375090144 93.8388711735 481 206 481 c 2
 359 481 l 5
 359 393 l 5
 223 393 l 2
 153.196707589 393 123 376.996273119 123 340 c 0
 123 309.75598715 141.989502601 298.490747152 184 292 c 0
 343.01473893 267.431748545 395 233.050662479 395 137 c 0
 395 52.1043452291 316.65336795 0 189 0 c 2
 37 0 l 1
 37 88 l 1
 172 88 l 2
 259.254284274 88 297 104.003792899 297 141 c 0
 297 180.788671875 268.025082255 188.711197848 202 198 c 0
 72.3257656283 216.24334429 25 262.005963668 25 340 c 0
EndSplineSet
Validated: 1
Substitution2: "'ss07' Style Set 7 lookup 10-1" s.ss07
EndChar

StartChar: k
Encoding: 107 107 55
Width: 493
Flags: W
HStem: 0 84<381.348 468> 220.008 88<60 316.667> 220.008 60.9922<180 280> 461.008 20G<354 452> 731.008 20G<40 139>
VStem: 40 99<0 220.008 308.008 751.008> 60 79<220.008 308.008> 354 98<349.43 481.008>
LayerCount: 2
Fore
SplineSet
60 308.0078125 m 1xdb
 239 308.0078125 l 2
 319.273893229 308.0078125 354 346.658150338 354 436.0078125 c 2
 354 481.0078125 l 1
 452 481.0078125 l 1
 452 411.0078125 l 2
 452 292.649174904 381.25994647 220.0078125 266 220.0078125 c 2
 60 220.0078125 l 1
 60 308.0078125 l 1xdb
40 0 m 1x9d
 40 751.0078125 l 1
 139 751.0078125 l 1
 139 0 l 1
 40 0 l 1x9d
320 0 m 1
 180 281 l 1
 280 281 l 1xb9
 381.34765625 84 l 1
 468 84 l 1
 468 0 l 1
 320 0 l 1
EndSplineSet
Validated: 5
EndChar

StartChar: a
Encoding: 97 97 56
Width: 585
Flags: W
HStem: 0 91<195.485 367 465 560> 30 61<367 465> 390.008 91<195.114 435>
VStem: 25 99<159.148 322.245> 367 98<30 390.008> 367 68<390.008 481.008>
LayerCount: 2
Fore
SplineSet
465 30 m 5x78
 367 30 l 5x78
 367 481.0078125 l 5x74
 465 481.0078125 l 5
 465 30 l 5x78
275 481.0078125 m 2
 435 481.0078125 l 5
 435 390.0078125 l 5
 273.83203125 390.0078125 l 2
 183 390.0078125 124 329.979662722 124 241 c 0
 124 151.706824731 183 91 273.513671875 91 c 2
 560 91 l 1
 560 0 l 1
 275 0 l 2xb4
 123 0 25 100.904928757 25 241 c 0
 25 379.345900624 122 481.0078125 275 481.0078125 c 2
EndSplineSet
Validated: 5
Substitution2: "'ss06' Style Set 6 lookup 9-1" a.ss06
EndChar

StartChar: r
Encoding: 114 114 57
Width: 295
Flags: W
HStem: 0 21G<40 139> 398.008 83<161.622 280>
VStem: 40 99<0 375.948>
LayerCount: 2
Fore
SplineSet
139 0 m 5
 40 0 l 5
 40 335.0078125 l 6
 40 428.983398438 97.4287109375 481.0078125 191 481.0078125 c 6
 280 481.0078125 l 5
 280 398.0078125 l 5
 227 398.0078125 l 6
 165.572265625 398.0078125 139 373.474609375 139 308.0078125 c 6
 139 0 l 5
EndSplineSet
Validated: 1
EndChar

StartChar: period
Encoding: 46 46 58
Width: 171
Flags: W
HStem: -10 121.801<39.8624 131.938>
VStem: 25 121.801<4.86242 96.9384>
LayerCount: 2
Fore
SplineSet
25 50.900390625 m 0
 25 84.5 52.30078125 111.80078125 85.900390625 111.80078125 c 4
 119.5 111.80078125 146.80078125 84.5 146.80078125 50.900390625 c 0
 146.80078125 17.30078125 119.5 -10 85.900390625 -10 c 0
 52.30078125 -10 25 17.30078125 25 50.900390625 c 0
EndSplineSet
Validated: 1
EndChar

StartChar: C.ss04
Encoding: 65540 -1 60
Width: 666
Flags: W
HStem: 0 98<291.174 619> 641.008 98<262.694 473.057>
VStem: 25 109<254.703 501.954> 547 104<410.008 569.178>
LayerCount: 2
Back
SplineSet
411 0 m 6
 151.911686454 0 0 148.956054687 0 374 c 4
 0 593.306617502 134.212823983 739.0078125 361 739.0078125 c 4
 556.197930393 739.0078125 676 628.714261693 676 449.0078125 c 6
 676 390.0078125 l 5
 482 390.0078125 l 5
 482 432.0078125 l 6
 482 523.451297075 444.596750143 562.994691506 359.83203125 563.0078125 c 4
 258.135631873 563.0078125 199 494.247750852 199 376 c 4
 199 253.2154058 281.248432189 178 415.513671875 178 c 6
 624 178 l 5
 624 0 l 5
 411 0 l 6
EndSplineSet
Fore
SplineSet
406 0 m 6
 165.823242188 0 25 148.956054687 25 374 c 4
 25 593.306617502 151.777210466 739.0078125 366 739.0078125 c 4
 542.607651308 739.0078125 651 640.123939363 651 479.0078125 c 6
 651 410.0078125 l 5
 547 410.0078125 l 5
 547 472.0078125 l 6
 547 589.976888021 491.227000574 640.990885417 364.83203125 641.0078125 c 4
 218.873628209 641.0078125 134 543.568281599 134 376 c 4
 134 203.60546875 239.041015625 98 410.513671875 98 c 6
 619 98 l 5
 619 0 l 5
 406 0 l 6
EndSplineSet
Validated: 1
EndChar

StartChar: c.ss04
Encoding: 65541 -1 61
Width: 498
Flags: W
HStem: -0.0078125 88<197.571 441> 399.934 91<188.275 345.256>
VStem: 25 99<157.818 331.193> 389 94<251.934 352.516>
LayerCount: 2
Fore
SplineSet
258 490.93359375 m 0
 407.949697818 490.93359375 483 407.262695312 483 270.93359375 c 2
 483 251.93359375 l 1
 389 251.93359375 l 1
 389 263.93359375 l 2
 389 355.091264205 353 399.93359375 263.16796875 399.93359375 c 0
 178.297550826 399.93359375 124 335.954114857 124 241 c 0
 124 145.75425641 188.040482608 87.9921875 289.16796875 87.9921875 c 2
 441 87.9921875 l 1
 441 -0.0078125 l 1
 288 -0.0078125 l 2
 127.044 -0.0078125 25 95.0920436983 25 241 c 0
 25 385.111908562 114.863367187 490.93359375 258 490.93359375 c 0
EndSplineSet
Validated: 1
EndChar

StartChar: X.ss05
Encoding: 65542 -1 62
Width: 676
Flags: W
HStem: 0 98<27.3184 143.089 533.23 649> 633.008 98<25 149.715 526.603 651.318>
VStem: 284.318 107.682<199.427 534.465> 295 86.3184<144.575 584.109>
LayerCount: 2
Fore
SplineSet
635.318359375 731.0078125 m 6xd0
 651.318359375 731.0078125 l 5
 651.318359375 633.0078125 l 5
 634.83203125 633.0078125 l 6
 481.418797489 633.0078125 392 534.465225089 392 365 c 4xe0
 392 199.426835094 486.404476688 98 640.513671875 98 c 6
 649 98 l 5
 649 0 l 5
 636 0 l 6
 421.038649832 0 295 144.574994256 295 363 c 4
 295 584.109099066 422 731.0078125 635.318359375 731.0078125 c 6xd0
41 731.0078125 m 2
 254.318359375 731.0078125 381.318359375 584.109099066 381.318359375 363 c 4xd0
 381.318359375 144.574994256 255.279709543 -2.78665979181e-14 40.318359375 0 c 2
 27.318359375 0 l 1
 27.318359375 98 l 1
 35.8046875 98 l 2
 189.913882687 98 284.318359375 199.426835094 284.318359375 365 c 4
 284.318359375 534.465225089 194.899561886 633.0078125 41.486328125 633.0078125 c 2
 25 633.0078125 l 1
 25 731.0078125 l 1
 41 731.0078125 l 2
EndSplineSet
Validated: 5
EndChar

StartChar: zero
Encoding: 48 48 64
Width: 642
Flags: W
HStem: -10.0078 101<238.58 403.899> 638.008 101<238.58 407.599>
VStem: 25 109<221.932 511.734> 508 109<221.932 511.734>
LayerCount: 2
Fore
SplineSet
134 366 m 0
 134 182.299720711 207.415311931 90.9921875 322.16796875 90.9921875 c 4
 434.792825702 90.9921875 508 182.299720711 508 366 c 4
 508 548.509765625 434.792825702 638.0078125 322.16796875 638.0078125 c 4
 207.415311931 638.0078125 134 548.509765625 134 366 c 0
25 364 m 0
 25 600.229802382 140.344996439 739.0078125 321 739.0078125 c 4
 501.655003561 739.0078125 617 600.229802382 617 364 c 4
 617 126.59355747 501.655003561 -10.0078125 321 -10.0078125 c 4
 140.344996439 -10.0078125 25 126.59355747 25 364 c 0
EndSplineSet
Substitution2: "'numr' Numerators lookup 0 subtable" zero.numerator
Substitution2: "'dnom' Denominators lookup 0 subtable" zero.dnom
Substitution2: "'numr' Numerators lookup 0 subtable" zero.numr
Substitution2: "'sinf' Scientific Inferiors lookup 0 subtable" zero.inferior
Substitution2: "'sups' Superscript lookup 0 subtable" zero.superior
EndChar

StartChar: one
Encoding: 49 49 65
Width: 298
Flags: W
HStem: 0 21G<149 258> 633.008 98<25 149>
VStem: 149 109<0 633.008>
LayerCount: 2
Fore
SplineSet
258 731.0078125 m 1
 258 0 l 1
 149 0 l 1
 149 633.0078125 l 1
 25 633.0078125 l 1
 25 731.0078125 l 1
 258 731.0078125 l 1
EndSplineSet
Substitution2: "'numr' Numerators lookup 0 subtable" one.numerator
Substitution2: "'dnom' Denominators lookup 0 subtable" one.dnom
Substitution2: "'numr' Numerators lookup 0 subtable" one.numr
Substitution2: "'sinf' Scientific Inferiors lookup 0 subtable" one.inferior
Substitution2: "'sups' Superscript lookup 0 subtable" one.superior
EndChar

StartChar: two
Encoding: 50 50 66
Width: 581
Flags: W
HStem: 0 98<212.532 439.4> 643.008 98<186.268 372.233>
VStem: 25 98<461.008 580.209> 424 103<443.468 594.653> 458 98<113.728 220>
LayerCount: 2
Fore
SplineSet
390 0 m 2xe8
 28 0 l 1
 28 54 l 1
 288 307 l 2
 348.44674211 365.819329822 424 437.876033058 424 521 c 0
 424 592.711797296 381.994531041 643.0078125 280 643.0078125 c 0
 181.836734694 643.0078125 123 598.318008814 123 495.0078125 c 6
 123 461.0078125 l 5
 25 461.0078125 l 5
 25 520.0078125 l 6
 25 656.956520332 127.010193557 741.0078125 282 741.0078125 c 0
 430.017364592 741.0078125 527 653.442099058 527 521 c 0xf0
 527 431.629901445 465.358848464 352.850279345 394.079101562 281 c 2
 212.532226562 98 l 1
 383 98 l 2
 435.352539062 98 458 121.552734375 458 176 c 2
 458 220 l 1
 556 220 l 1
 556 151 l 2
 556 57.4287109375 492.866210938 -1.25970615508e-14 390 0 c 2xe8
EndSplineSet
Substitution2: "'numr' Numerators lookup 0 subtable" two.numerator
Substitution2: "'dnom' Denominators lookup 0 subtable" two.dnom
Substitution2: "'numr' Numerators lookup 0 subtable" two.numr
Substitution2: "'sinf' Scientific Inferiors lookup 0 subtable" two.inferior
Substitution2: "'sups' Superscript lookup 0 subtable" two.superior
EndChar

StartChar: three
Encoding: 51 51 67
Width: 562
Flags: W
HStem: 0 98<45 378.287> 633.008 98<141.6 376.468>
VStem: 25 98<511.008 617.28> 429 108<143.751 276.576>
LayerCount: 2
Fore
SplineSet
341.532226562 414 m 1
 341.532226562 414 351.937703299 413.373749191 367.947063312 410 c 4
 421.325095027 398.751324777 537 356.959444063 537 206 c 0
 537 78.3458142785 447.897570203 -2.06779038336e-14 279 0 c 2
 45 0 l 1
 45 98 l 1
 262 98 l 2
 378.571319111 98 429 132.120991626 429 211 c 0
 429 289.180818257 376.155573918 323 254 323 c 2
 207 323 l 1
 207 391.0078125 l 1
 376.467773438 633.0078125 l 1
 198 633.0078125 l 2
 145.647460938 633.0078125 123 609.455078125 123 555.0078125 c 2
 123 511.0078125 l 1
 25 511.0078125 l 1
 25 580.0078125 l 2
 25 673.579101562 88.1337890625 731.0078125 191 731.0078125 c 2
 523 731.0078125 l 1
 523 677.0078125 l 1
 341.532226562 414 l 1
EndSplineSet
Substitution2: "'numr' Numerators lookup 0 subtable" three.numerator
Substitution2: "'dnom' Denominators lookup 0 subtable" three.dnom
Substitution2: "'numr' Numerators lookup 0 subtable" three.numr
Substitution2: "'sinf' Scientific Inferiors lookup 0 subtable" three.inferior
Substitution2: "'sups' Superscript lookup 0 subtable" three.superior
EndChar

StartChar: four
Encoding: 52 52 68
Width: 650
Flags: W
HStem: 0 21G<418 521> 172 96<183 625> 711 20G<422.701 521>
VStem: 418 103<0 558>
LayerCount: 2
Fore
SplineSet
521 731 m 1
 521 0 l 1
 418 0 l 1
 418 558 l 5
 183 268 l 1
 625 268 l 1
 625 172 l 1
 25 172 l 1
 25 223 l 1
 439 731 l 1
 521 731 l 1
EndSplineSet
Substitution2: "'numr' Numerators lookup 0 subtable" four.numerator
Substitution2: "'dnom' Denominators lookup 0 subtable" four.dnom
Substitution2: "'numr' Numerators lookup 0 subtable" four.numr
Substitution2: "'sinf' Scientific Inferiors lookup 0 subtable" four.inferior
Substitution2: "'sups' Superscript lookup 0 subtable" four.superior
EndChar

StartChar: five
Encoding: 53 53 69
Width: 532
Flags: W
HStem: 0 98<25 335.983> 340 98.0078<152 339.124> 633.008 98<152 473>
VStem: 50 102<438.008 633.008> 399 108<150.489 287.904>
LayerCount: 2
Fore
SplineSet
233 438.0078125 m 6
 398.047244094 438.0078125 507 362.995192023 507 216 c 4
 507 82.1490091464 410.990405102 -2.16909823436e-14 229 0 c 6
 25 0 l 1
 25 98 l 1
 212 98 l 6
 342.53195613 98 399 135.140548407 399 221 c 4
 399 304.067119398 340.116210937 340 204 340 c 6
 50 340 l 1
 50 731.0078125 l 1
 473 731.0078125 l 5
 473 633.0078125 l 5
 152 633.0078125 l 1
 152 438.0078125 l 1
 233 438.0078125 l 6
EndSplineSet
Substitution2: "'numr' Numerators lookup 0 subtable" five.numerator
Substitution2: "'dnom' Denominators lookup 0 subtable" five.dnom
Substitution2: "'numr' Numerators lookup 0 subtable" five.numr
Substitution2: "'sinf' Scientific Inferiors lookup 0 subtable" five.inferior
Substitution2: "'sups' Superscript lookup 0 subtable" five.superior
EndChar

StartChar: six
Encoding: 54 54 70
Width: 574
Flags: W
HStem: -10.0078 100.13<213.306 377.511> 382.878 95.1299<212.488 377.935> 633.008 98<305.175 501.318>
VStem: 25 124.06<170.708 446.271> 440.94 108.06<157.154 319.635>
LayerCount: 2
Fore
SplineSet
148.813476562 416.075195312 m 5
 148.813476562 416.075195312 204.339623381 478.0078125 307 478.0078125 c 4
 454.697671831 478.0078125 549 374.69509839 549 234 c 4
 549 92.1610632394 450.80088141 -10.0078125 297 -10.0078125 c 4
 121.137626966 -10.0078125 25 109.22782864 25 324 c 4
 25 568.541359389 174.390799056 731.0078125 425.318359375 731.0078125 c 6
 501.318359375 731.0078125 l 5
 501.318359375 633.0078125 l 5
 444.83203125 633.0078125 l 6
 281.323543515 633.0078125 172.212436773 569.071962776 148.813476562 416.075195312 c 5
149.059570312 238.030273438 m 4
 149.059570312 149.986904994 206.464290691 90.1220703125 296.19140625 90.1220703125 c 4
 383.917606889 90.1220703125 440.940429688 149.986904994 440.940429688 238.030273438 c 4
 440.940429688 324.568812357 383.917606889 382.877929688 296.19140625 382.877929688 c 4
 206.464290691 382.877929688 149.059570312 324.568812357 149.059570312 238.030273438 c 4
EndSplineSet
Substitution2: "'numr' Numerators lookup 0 subtable" six.numerator
Substitution2: "'dnom' Denominators lookup 0 subtable" six.dnom
Substitution2: "'numr' Numerators lookup 0 subtable" six.numr
Substitution2: "'sinf' Scientific Inferiors lookup 0 subtable" six.inferior
Substitution2: "'sups' Superscript lookup 0 subtable" six.superior
EndChar

StartChar: seven
Encoding: 55 55 71
Width: 581
Flags: W
HStem: 0 21G<137 263.803> 633.008 98<141.6 424.468>
VStem: 25 98<511.008 617.28>
LayerCount: 2
Fore
SplineSet
255 0 m 5
 137 0 l 5
 424.467773438 633.0078125 l 1
 198 633.0078125 l 2
 145.647460938 633.0078125 123 609.455078125 123 555.0078125 c 2
 123 511.0078125 l 1
 25 511.0078125 l 1
 25 580.0078125 l 2
 25 673.579101562 88.1337890625 731.0078125 191 731.0078125 c 2
 553 731.0078125 l 1
 553 677.0078125 l 1
 255 0 l 5
EndSplineSet
Substitution2: "'numr' Numerators lookup 0 subtable" seven.numerator
Substitution2: "'dnom' Denominators lookup 0 subtable" seven.dnom
Substitution2: "'numr' Numerators lookup 0 subtable" seven.numr
Substitution2: "'sinf' Scientific Inferiors lookup 0 subtable" seven.inferior
Substitution2: "'sups' Superscript lookup 0 subtable" seven.superior
EndChar

StartChar: eight
Encoding: 56 56 72
Width: 548
Flags: W
HStem: -10.0078 101<193.629 354.741> 344.008 106.043<214.642 339.884> 374.051 60.957<151.274 402.726> 638.992 100<209.431 344.867>
VStem: 25 109<146.031 290.173> 71 103<483.173 604.988> 380 103<483.173 604.988> 414 109<146.031 290.173>
LayerCount: 2
Back
SplineSet
209 545.05859375 m 4xd6
 209 506.362249215 235.986463398 480.05078125 278.16796875 480.05078125 c 4
 318.672008386 480.05078125 345 506.362249215 345 545.05859375 c 4
 345 583.25541332 318.672008386 608.9921875 278.16796875 608.9921875 c 4
 235.986463398 608.9921875 209 583.25541332 209 545.05859375 c 4xd6
61 550.05859375 m 0
 61 658.997853888 145.170673077 738.9921875 277 738.9921875 c 0
 408.829326923 738.9921875 493 658.997853888 493 550.05859375 c 0
 493 447.747275392 408.829326923 374.05078125 277 374.05078125 c 0xb6
 145.170673077 374.05078125 61 447.747275392 61 550.05859375 c 0
174 219 m 0xd9
 174 163.636464165 213.471531911 125.9921875 275.16796875 125.9921875 c 0
 335.065841614 125.9921875 374 163.636464165 374 219 c 0
 374 272.77473676 335.065841614 309.0078125 275.16796875 309.0078125 c 0
 213.471531911 309.0078125 174 272.77473676 174 219 c 0xd9
15 217 m 0
 15 342.70347775 115.926871884 435.0078125 274 435.0078125 c 0xb9
 432.073128116 435.0078125 533 342.70347775 533 217 c 0
 533 85.04296784 432.073128116 -10.0078125 274 -10.0078125 c 0
 115.926871884 -10.0078125 15 85.04296784 15 217 c 0
EndSplineSet
Fore
SplineSet
174 545.05859375 m 4xd6
 174 488.504544251 214.642007084 450.05078125 278.16796875 450.05078125 c 4
 339.884013479 450.05078125 380 488.504544251 380 545.05859375 c 4
 380 601.178769727 339.884013479 638.9921875 278.16796875 638.9921875 c 4
 214.642007084 638.9921875 174 601.178769727 174 545.05859375 c 4xd6
71 550.05859375 m 4
 71 658.997853888 151.273882657 738.9921875 277 738.9921875 c 4
 402.726117343 738.9921875 483 658.997853888 483 550.05859375 c 4
 483 447.747275392 402.726117343 374.05078125 277 374.05078125 c 4xb6
 151.273882657 374.05078125 71 447.747275392 71 550.05859375 c 4
134 219 m 4xd9
 134 142.802475039 189.077867553 90.9921875 275.16796875 90.9921875 c 4
 359.308133148 90.9921875 414 142.802475039 414 219 c 4
 414 293.685319234 359.308133148 344.0078125 275.16796875 344.0078125 c 4
 189.077867553 344.0078125 134 293.685319234 134 219 c 4xd9
25 217 m 4
 25 342.70347775 122.030081464 435.0078125 274 435.0078125 c 4xb9
 425.969918536 435.0078125 523 342.70347775 523 217 c 4
 523 85.04296784 425.969918536 -10.0078125 274 -10.0078125 c 4
 122.030081464 -10.0078125 25 85.04296784 25 217 c 4
EndSplineSet
Substitution2: "'numr' Numerators lookup 0 subtable" eight.numerator
Substitution2: "'dnom' Denominators lookup 0 subtable" eight.dnom
Substitution2: "'numr' Numerators lookup 0 subtable" eight.numr
Substitution2: "'sinf' Scientific Inferiors lookup 0 subtable" eight.inferior
Substitution2: "'sups' Superscript lookup 0 subtable" eight.superior
EndChar

StartChar: nine
Encoding: 57 57 73
Width: 574
Flags: W
HStem: -2.02344 98<72.6816 268.825> 250.977 93.1299<200.09 362.512> 636.862 102.13<200.593 361.694>
VStem: 25 110.06<408.349 570.83> 426.94 122.06<282.714 557.276>
LayerCount: 2
Fore
SplineSet
425.186523438 312.909179688 m 1
 425.186523438 312.909179688 369.660376619 250.9765625 267 250.9765625 c 0
 119.302328169 250.9765625 25 354.28927661 25 494.984375 c 0
 25 636.823311761 123.19911859 738.9921875 277 738.9921875 c 0
 452.862373034 738.9921875 549 619.75654636 549 404.984375 c 0
 549 160.443015611 399.609200944 -2.0234375 148.681640625 -2.0234375 c 2
 72.681640625 -2.0234375 l 1
 72.681640625 95.9765625 l 1
 129.16796875 95.9765625 l 2
 292.676456485 95.9765625 401.787563227 159.912412224 425.186523438 312.909179688 c 1
426.940429688 488.954101562 m 4
 426.940429688 576.997470006 369.535709309 636.862304688 279.80859375 636.862304688 c 4
 192.082393111 636.862304688 135.059570312 576.997470006 135.059570312 488.954101562 c 4
 135.059570312 402.415562643 192.082393111 344.106445312 279.80859375 344.106445312 c 4
 369.535709309 344.106445312 426.940429688 402.415562643 426.940429688 488.954101562 c 4
EndSplineSet
Substitution2: "'numr' Numerators lookup 0 subtable" nine.numerator
Substitution2: "'dnom' Denominators lookup 0 subtable" nine.dnom
Substitution2: "'numr' Numerators lookup 0 subtable" nine.numr
Substitution2: "'sinf' Scientific Inferiors lookup 0 subtable" nine.inferior
Substitution2: "'sups' Superscript lookup 0 subtable" nine.superior
EndChar

StartChar: exclam
Encoding: 33 33 74
Width: 189
Flags: W
HStem: -10 121.801<48.462 140.538> 711.008 20G<40 149>
VStem: 33.5996 121.801<4.86242 96.9384> 40 109<352.302 731.008> 50 89<190 568.705>
LayerCount: 2
Fore
SplineSet
50 190 m 5xc8
 40 731.0078125 l 1
 149 731.0078125 l 1xd0
 139 190 l 5
 50 190 l 5xc8
EndSplineSet
Refer: 58 46 N 1 0 0 1 8.59961 0 2
Validated: 1
EndChar

StartChar: question
Encoding: 63 63 75
Width: 517
Flags: W
HStem: -10 121.801<143.462 235.538> 633 98<25 333.952>
VStem: 128.6 121.801<4.86242 96.9384> 141 99<190 309.862> 384 108<453.784 587.399>
LayerCount: 2
Fore
SplineSet
141 270 m 6xd8
 141 354.543098096 170.571053797 396.043273203 263 411 c 4
 346.118946803 424.450195312 384 451.690429688 384 521 c 4
 384 599.180664062 332.666015625 633 214 633 c 6
 25 633 l 5
 25 731 l 5
 231 731 l 6
 392.735351562 731 492 655.31640625 492 532 c 4
 492 404.966796875 423.713222755 349.284179688 305 327 c 4
 259.359049076 318.432536933 240 307.222510494 240 250 c 6
 240 190 l 5
 141 190 l 5
 141 270 l 6xd8
EndSplineSet
Refer: 58 46 S 1 0 0 1 103.6 0 2
Validated: 1
EndChar

StartChar: backslash
Encoding: 92 92 76
Width: 359
Flags: W
LayerCount: 2
Fore
SplineSet
349 -189 m 1
 243 -189 l 1
 10 761.0078125 l 1
 116 761.0078125 l 1
 349 -189 l 1
EndSplineSet
Validated: 1
EndChar

StartChar: slash
Encoding: 47 47 77
Width: 359
Flags: W
LayerCount: 2
Fore
SplineSet
10 -189 m 1
 243 761.0078125 l 1
 349 761.0078125 l 1
 116 -189 l 1
 10 -189 l 1
EndSplineSet
Validated: 1
EndChar

StartChar: hyphen
Encoding: 45 45 78
Width: 338
Flags: W
HStem: 202 98<25 313>
VStem: 25 288<202 300>
LayerCount: 2
Fore
SplineSet
25 300 m 5
 313 300 l 5
 313 202 l 5
 25 202 l 5
 25 300 l 5
EndSplineSet
Validated: 1
EndChar

StartChar: underscore
Encoding: 95 95 79
Width: 598
Flags: W
HStem: -98 98<25 573>
LayerCount: 2
Fore
SplineSet
25 0 m 1
 573 0 l 5
 573 -98 l 5
 25 -98 l 1
 25 0 l 1
EndSplineSet
Validated: 1
EndChar

StartChar: plus
Encoding: 43 43 80
Width: 500
Flags: W
HStem: 312 98<25 475>
VStem: 201 98<136 586>
LayerCount: 2
Fore
SplineSet
201 136 m 5
 201 586 l 5
 299 586 l 5
 299 136 l 5
 201 136 l 5
25 410 m 1
 475 410 l 1
 475 312 l 1
 25 312 l 1
 25 410 l 1
EndSplineSet
Validated: 5
EndChar

StartChar: bar
Encoding: 124 124 81
Width: 179
Flags: W
VStem: 40 99<-189 761.008>
LayerCount: 2
Fore
SplineSet
40 -189 m 1
 40 761.0078125 l 1
 139 761.0078125 l 5
 139 -189 l 5
 40 -189 l 1
EndSplineSet
Validated: 1
EndChar

StartChar: percent
Encoding: 37 37 82
Width: 848
Flags: W
HStem: -10.0078 85<585.786 700.544> 0 21G<142 255.667> 265.934 85<585 701.31> 378.051 85<147.786 262.544> 653.992 85<147 263.31> 711.008 20G<592.333 706>
VStem: 25 93<493.793 623.635> 292 93<493.793 623.635> 463 93<105.735 235.576> 730 93<105.735 235.576>
LayerCount: 2
Fore
SplineSet
118 559.05859375 m 0x3bc0
 118 501.909345232 152.399333686 463.05078125 206.16796875 463.05078125 c 0
 258.187098878 463.05078125 292 501.909345232 292 559.05859375 c 0
 292 615.776233969 258.187098878 653.9921875 206.16796875 653.9921875 c 0
 152.399333686 653.9921875 118 615.776233969 118 559.05859375 c 0x3bc0
25 559.05859375 m 0
 25 662.80859375 95.142578125 738.9921875 205 738.9921875 c 0
 314.857421875 738.9921875 385 662.80859375 385 559.05859375 c 0
 385 453.840820312 314.857421875 378.05078125 205 378.05078125 c 0
 95.142578125 378.05078125 25 453.840820312 25 559.05859375 c 0
556 171 m 0
 556 113.850751482 590.399333686 74.9921875 644.16796875 74.9921875 c 0xb3c0
 696.187098878 74.9921875 730 113.850751482 730 171 c 0
 730 227.717640219 696.187098878 265.93359375 644.16796875 265.93359375 c 0
 590.399333686 265.93359375 556 227.717640219 556 171 c 0
463 171 m 0
 463 274.75 533.142578125 350.93359375 643 350.93359375 c 0
 752.857421875 350.93359375 823 274.75 823 171 c 0
 823 65.7822265625 752.857421875 -10.0078125 643 -10.0078125 c 0
 533.142578125 -10.0078125 463 65.7822265625 463 171 c 0
EndSplineSet
Refer: 162 8260 S 1 0 0 1 278.5 0 2
EndChar

StartChar: equal
Encoding: 61 61 83
Width: 500
Flags: W
HStem: 212 98<25 475> 412 98<25 475>
LayerCount: 2
Fore
SplineSet
25 310 m 5
 475 310 l 5
 475 212 l 5
 25 212 l 5
 25 310 l 5
25 510 m 5
 475 510 l 5
 475 412 l 5
 25 412 l 5
 25 510 l 5
EndSplineSet
Validated: 1
EndChar

StartChar: multiply
Encoding: 215 215 84
Width: 500
Flags: W
LayerCount: 2
Fore
SplineSet
394.451171875 147.252929688 m 5
 36.2529296875 505.451171875 l 5
 105.548828125 574.747070312 l 5
 463.747070312 216.548828125 l 5
 394.451171875 147.252929688 l 5
36.2529296875 216.548828125 m 5
 394.451171875 574.747070312 l 5
 463.747070312 505.451171875 l 5
 105.548828125 147.252929688 l 5
 36.2529296875 216.548828125 l 5
EndSplineSet
Validated: 5
EndChar

StartChar: ampersand
Encoding: 38 38 85
Width: 660
Flags: W
HStem: 0 98<182.713 425.394> 0 88<533.644 635> 323 98.0078<190.41 415 514 624> 323 58.0078<415 514> 633.008 98<196.24 476>
VStem: 24 108<143.751 279.47> 44 108<456.598 595.111> 415 99<108.4 381.008>
LayerCount: 2
Fore
SplineSet
514 381.0078125 m 5x9d
 514 173 l 6
 514 114.066666667 540.572315705 88 602 88 c 6
 635 88 l 1
 635 0 l 1x5d
 282 0 l 2
 113.102429797 0 24 78.3458142785 24 206 c 0x8d
 24 344.707882855 144.775390625 378.603515625 144.775390625 378.603515625 c 1
 144.775390625 378.603515625 44 411.049573221 44 531.0078125 c 0
 44 654.943915142 126.195264696 731.0078125 282 731.0078125 c 2
 476 731.0078125 l 1
 476 633.0078125 l 1
 299 633.0078125 l 2
 196.389317909 633.0078125 152 600.698554943 152 526.0078125 c 0
 152 452.713295384 192.76570012 421.0078125 287 421.0078125 c 2
 624 421.0078125 l 1
 624 323 l 1
 287 323 l 2xab
 178.805063101 323 132 289.180818257 132 211 c 0
 132 132.120991626 182.428680889 98 299 98 c 2
 425.393554688 98 l 5
 425.393554688 98 415 116 415 166 c 6
 415 381.0078125 l 5
 514 381.0078125 l 5x9d
EndSplineSet
Validated: 5
EndChar

StartChar: less
Encoding: 60 60 86
Width: 500
Flags: W
LayerCount: 2
Fore
SplineSet
25 400 m 5
 475 570 l 5
 475 462 l 5
 207.125 361 l 5
 475 260 l 5
 475 152 l 5
 25 322 l 5
 25 400 l 5
EndSplineSet
Validated: 1
EndChar

StartChar: greater
Encoding: 62 62 87
Width: 500
Flags: W
LayerCount: 2
Fore
SplineSet
475 400 m 1
 475 322 l 1
 25 152 l 1
 25 260 l 1
 292.875 361 l 5
 25 462 l 1
 25 570 l 1
 475 400 l 1
EndSplineSet
Validated: 1
EndChar

StartChar: quotesingle
Encoding: 39 39 88
Width: 189
Flags: W
HStem: 539.994 211.008<50 139>
VStem: 40 109<603.296 751.002> 50 89<539.994 687.7>
LayerCount: 2
Fore
SplineSet
50 539.994140625 m 1xa0
 40 751.001953125 l 1
 149 751.001953125 l 1xc0
 139 539.994140625 l 1
 50 539.994140625 l 1xa0
EndSplineSet
EndChar

StartChar: asciicircum
Encoding: 94 94 90
Width: 443
Flags: W
HStem: 452 279.008
LayerCount: 2
Fore
SplineSet
183 731.0078125 m 1
 260 731.0078125 l 1
 426 452 l 5
 332 452 l 5
 221.5 643.583984375 l 1
 111 452 l 5
 17 452 l 5
 183 731.0078125 l 1
EndSplineSet
Validated: 1
EndChar

StartChar: grave
Encoding: 96 96 91
Width: 219
Flags: W
HStem: 550 181.008
VStem: 10 199
LayerCount: 2
Fore
SplineSet
110 550 m 1
 10 731.0078125 l 1
 109 731.0078125 l 5
 209 550 l 1
 110 550 l 1
EndSplineSet
Validated: 1
EndChar

StartChar: dollar
Encoding: 36 36 92
Width: 570
Flags: W
HStem: 0 98<37 390.223> 633 98<170.339 502>
VStem: 25 108<474.575 599.32> 241 89<-90 821.008> 437 108<139.896 279.942>
LayerCount: 2
Fore
SplineSet
241 -90 m 5
 241 821.0078125 l 5
 330 821.0078125 l 5
 330 -90 l 5
 241 -90 l 5
EndSplineSet
Refer: 18 83 N 1 0 0 1 0 0 2
Validated: 5
EndChar

StartChar: bracketleft
Encoding: 91 91 93
Width: 325
Flags: W
HStem: -189 88<139 300> 673.008 88<139 300>
VStem: 40 260<-189 -101 673.008 761.008> 40 99<-101 673.008>
LayerCount: 2
Fore
SplineSet
40 761.0078125 m 5xe0
 300 761.0078125 l 5
 300 673.0078125 l 5xe0
 139 673.0078125 l 5
 139 -101 l 5xd0
 300 -101 l 5
 300 -189 l 5
 40 -189 l 5
 40 761.0078125 l 5xe0
EndSplineSet
Validated: 1
EndChar

StartChar: bracketright
Encoding: 93 93 94
Width: 325
Flags: W
HStem: -189 88<25 186> 673.008 88<25 186>
VStem: 25 260<-189 -101 673.008 761.008> 186 99<-101 673.008>
LayerCount: 2
Fore
SplineSet
285 761.0078125 m 1xe0
 285 -189 l 1
 25 -189 l 1
 25 -101 l 1xe0
 186 -101 l 1
 186 673.0078125 l 1xd0
 25 673.0078125 l 1
 25 761.0078125 l 1
 285 761.0078125 l 1xe0
EndSplineSet
Validated: 1
EndChar

StartChar: parenleft
Encoding: 40 40 95
Width: 391
Flags: W
HStem: -188.994 98<226.006 366.318> 663.008 98<226.006 366.318>
VStem: 40 109<-1.95061 573.964>
LayerCount: 2
Fore
SplineSet
149 127 m 18
 149 -47.1591796875 215.587890625 -90.994140625 329.83203125 -90.994140625 c 2
 366.318359375 -90.994140625 l 1
 366.318359375 -188.994140625 l 1
 330.318359375 -188.994140625 l 2
 118.340820312 -188.994140625 40 -71.6552734375 40 120.013671875 c 2
 40 452 l 18
 40 643.668945312 118.340820312 761.0078125 330.318359375 761.0078125 c 2
 366.318359375 761.0078125 l 1
 366.318359375 663.0078125 l 1
 329.83203125 663.0078125 l 2
 215.587890625 663.0078125 149 619.172851562 149 445 c 2
 149 127 l 18
EndSplineSet
Validated: 1
EndChar

StartChar: braceleft
Encoding: 123 123 96
Width: 480
Flags: W
HStem: -188.994 98<328.313 455.318> 232 98<25 118.582> 663.008 98<328.313 455.318>
VStem: 149 109<-17.3543 202.688 362.378 589.364>
LayerCount: 2
Fore
SplineSet
258 107 m 2
 258 -51.1806640625 317.223632812 -90.994140625 418.83203125 -90.994140625 c 2
 455.318359375 -90.994140625 l 1
 455.318359375 -188.994140625 l 1
 419.318359375 -188.994140625 l 2
 221.944335938 -188.994140625 149 -79.25 149 100.013671875 c 2
 149 126 l 6
 149 202.544259208 118.43233817 232 39 232 c 2
 25 232 l 1
 25 330 l 1
 39 330 l 2
 117.252232143 330 149 360.882024397 149 437 c 2
 149 472 l 2
 149 651.263671875 221.944335938 761.0078125 419.318359375 761.0078125 c 2
 455.318359375 761.0078125 l 1
 455.318359375 663.0078125 l 1
 418.83203125 663.0078125 l 2
 317.223632812 663.0078125 258 623.194335938 258 465 c 2
 258 416 l 2
 258 304.651325185 175 283 175 283 c 1
 175 283 258 243.293791118 258 148 c 2
 258 107 l 2
EndSplineSet
Validated: 1
EndChar

StartChar: parenright
Encoding: 41 41 97
Width: 391
Flags: W
HStem: -188.994 98<25 165.313> 663.008 98<25 165.313>
VStem: 242.318 109<-1.95061 573.964>
LayerCount: 2
Fore
SplineSet
242.318359375 127 m 10
 242.318359375 445 l 2
 242.318359375 619.172851562 175.73046875 663.0078125 61.486328125 663.0078125 c 2
 25 663.0078125 l 1
 25 761.0078125 l 1
 61 761.0078125 l 2
 272.977539062 761.0078125 351.318359375 643.668945312 351.318359375 452 c 10
 351.318359375 120.013671875 l 2
 351.318359375 -71.6552734375 272.977539062 -188.994140625 61 -188.994140625 c 2
 25 -188.994140625 l 1
 25 -90.994140625 l 1
 61.486328125 -90.994140625 l 2
 175.73046875 -90.994140625 242.318359375 -47.1591796875 242.318359375 127 c 10
EndSplineSet
Validated: 1
EndChar

StartChar: at
Encoding: 64 64 98
Width: 845
Flags: W
HStem: -140 98<361.72 709> 83.0078 92.7998<500.819 702.832> 395.015 92.7998<500.535 761.832> 633.008 98<318.964 559.421>
VStem: 25 109<171.602 436.842> 353.832 102.2<219.109 354.332> 702.832 103<175.808 387.502> 702.832 59<395.015 487.814>
LayerCount: 2
Back
SplineSet
563.83203125 524.814453125 m 2
 761.83203125 524.814453125 l 1
 761.83203125 432.014648438 l 1
 585.897460938 432.014648438 l 2
 503.232421875 432.014648438 456.032226562 393.991210938 456.032226562 322.807617188 c 0
 456.032226562 251.374023438 503.232421875 212.807617188 585.642578125 212.807617188 c 6
 702.83203125 212.807617188 l 1
 702.83203125 412.0078125 l 2
 702.83203125 579.609260856 606.869134658 673.0078125 438 673.0078125 c 0
 256.418078785 673.0078125 134 553.892744828 134 335 c 0
 134 120.315366068 287.412461106 -2 500.513671875 -2 c 2
 709 -2 l 1
 709 -100 l 1
 496 -100 l 2
 213.842011242 -100 25 66.0820336732 25 333 c 0
 25 602.572946087 189.450139606 771.0078125 436.83203125 771.0078125 c 0
 666.508139886 771.0078125 805.83203125 633.959568366 805.83203125 440.0078125 c 2
 805.83203125 120.0078125 l 1
 563.83203125 120.0078125 l 2
 432.232421875 120.0078125 353.83203125 210.732421875 353.83203125 322.807617188 c 0
 353.83203125 433.484375 431.431640625 524.814453125 563.83203125 524.814453125 c 2
EndSplineSet
Fore
SplineSet
563.83203125 487.814453125 m 6xfe
 761.83203125 487.814453125 l 5
 761.83203125 395.014648438 l 5xfd
 585.897460938 395.014648438 l 6
 503.232421875 395.014648438 456.032226562 356.991210938 456.032226562 285.807617188 c 4
 456.032226562 214.374023438 503.232421875 175.807617188 585.642578125 175.807617188 c 6
 702.83203125 175.807617188 l 5
 702.83203125 372.0078125 l 2
 702.83203125 539.609260856 606.869134658 633.0078125 438 633.0078125 c 0
 256.418078785 633.0078125 134 513.892744828 134 295 c 0
 134 80.3153660678 287.412461106 -42 500.513671875 -42 c 2
 709 -42 l 1
 709 -140 l 1
 496 -140 l 2
 213.842011242 -140 25 26.0820336732 25 293 c 0
 25 562.572946087 189.450139606 731.0078125 436.83203125 731.0078125 c 0
 666.508139886 731.0078125 805.83203125 593.959568366 805.83203125 400.0078125 c 2
 805.83203125 83.0078125 l 5
 563.83203125 83.0078125 l 6
 432.232421875 83.0078125 353.83203125 173.732421875 353.83203125 285.807617188 c 4
 353.83203125 396.484375 431.431640625 487.814453125 563.83203125 487.814453125 c 6xfe
EndSplineSet
EndChar

StartChar: sterling
Encoding: 163 163 99
Width: 617
Flags: W
HStem: 0 98<25 160 269 485.4> 30 68<160 269> 312 98<85 413> 638.008 93<311.386 450>
VStem: 160 109<30 595.074> 504 98<113.728 220>
LayerCount: 2
Fore
SplineSet
85 410 m 5x3c
 413 410 l 5
 413 312 l 5
 85 312 l 5
 85 410 l 5x3c
269 30 m 5x7c
 160 30 l 5
 160 525.0078125 l 6
 160 649.104198042 236.444840387 731.0078125 361 731.0078125 c 6
 450 731.0078125 l 5
 450 638.0078125 l 5
 397 638.0078125 l 6
 307.650568182 638.0078125 269 601.208180148 269 518.0078125 c 6
 269 30 l 5x7c
25 98 m 5xbc
 429 98 l 6
 481.352539062 98 504 121.55254962 504 176 c 6
 504 220 l 5
 602 220 l 5
 602 151 l 6
 602 57.428511639 538.866403839 -1.26010313295e-14 436 0 c 6
 25 0 l 5
 25 98 l 5xbc
EndSplineSet
Validated: 5
EndChar

StartChar: cent
Encoding: 162 162 100
Width: 436
Flags: W
HStem: 129.992 88<197.571 411> 519.934 91<189.102 408>
VStem: 25 99<287.818 456.53> 221 89<30 701.008>
LayerCount: 2
Fore
SplineSet
221 30 m 5
 221 701.0078125 l 5
 310 701.0078125 l 5
 310 30 l 5
 221 30 l 5
EndSplineSet
Refer: 44 99 N 1 0 0 1 0 130 2
Validated: 5
EndChar

StartChar: yen
Encoding: 165 165 101
Width: 629
Flags: W
HStem: 0 21G<260 369> 112 88<129.5 499.5> 262 88<129.5 499.5> 272 49.0078<276 353> 711.008 20G<10 145.226 483.774 619>
VStem: 260 109<0 321.008>
LayerCount: 2
Fore
SplineSet
129.5 200 m 1xcc
 499.5 200 l 5
 499.5 112 l 5
 129.5 112 l 1
 129.5 200 l 1xcc
129.5 350 m 1xec
 499.5 350 l 5
 499.5 262 l 5
 129.5 262 l 1
 129.5 350 l 1xec
EndSplineSet
Refer: 32 89 N 1 0 0 1 0 0 2
Validated: 5
EndChar

StartChar: numbersign
Encoding: 35 35 102
Width: 710
Flags: W
HStem: 0 21G<104.5 209.604 354.5 459.604> 172 98<25 635> 452 98<75 685> 711.008 20G<250.396 355.5 500.396 605.5>
LayerCount: 2
Fore
SplineSet
25 270 m 5
 635 270 l 5
 635 172 l 5
 25 172 l 5
 25 270 l 5
75 550 m 5
 685 550 l 5
 685 452 l 5
 75 452 l 5
 75 550 l 5
354.5 0 m 1
 504.5 731.0078125 l 1
 605.5 731.0078125 l 1
 455.5 0 l 1
 354.5 0 l 1
104.5 0 m 1
 254.5 731.0078125 l 1
 355.5 731.0078125 l 1
 205.5 0 l 1
 104.5 0 l 1
EndSplineSet
Validated: 5
EndChar

StartChar: asterisk
Encoding: 42 42 103
Width: 298
Flags: W
HStem: 443.607 287.4<115.387 186.268>
VStem: 115.387 70.8809<443.607 731.008>
LayerCount: 2
Fore
SplineSet
48.08203125 478.374023438 m 1
 10 536.915039062 l 1
 250.572265625 695.241210938 l 1
 288.654296875 636.700195312 l 1
 48.08203125 478.374023438 l 1
115.38671875 443.607421875 m 1
 115.38671875 731.0078125 l 1
 186.267578125 731.0078125 l 1
 186.267578125 443.607421875 l 1
 115.38671875 443.607421875 l 1
250.572265625 478.374023438 m 1
 10 636.700195312 l 1
 48.08203125 695.241210938 l 1
 288.654296875 536.915039062 l 1
 250.572265625 478.374023438 l 1
EndSplineSet
Validated: 5
EndChar

StartChar: braceright
Encoding: 125 125 104
Width: 480
Flags: W
HStem: -188.994 98<25 152.005> 232 98<361.737 455.318> 663.008 98<25 152.005>
VStem: 222.318 109<-17.3543 202.688 362.378 589.364>
LayerCount: 2
Fore
SplineSet
222.318359375 107 m 2
 222.318359375 148 l 2
 222.318359375 243.293945312 305.318359375 283 305.318359375 283 c 1
 305.318359375 283 222.318359375 304.651367188 222.318359375 416 c 2
 222.318359375 465 l 2
 222.318359375 623.194335938 163.094726562 663.0078125 61.486328125 663.0078125 c 2
 25 663.0078125 l 1
 25 761.0078125 l 1
 61 761.0078125 l 2
 258.374023438 761.0078125 331.318359375 651.263671875 331.318359375 472 c 2
 331.318359375 437 l 2
 331.318359375 360.881835938 363.06640625 330 441.318359375 330 c 2
 455.318359375 330 l 1
 455.318359375 232 l 1
 441.318359375 232 l 2
 361.885742188 232 331.318359375 202.543945312 331.318359375 126 c 6
 331.318359375 100.013671875 l 2
 331.318359375 -79.25 258.374023438 -188.994140625 61 -188.994140625 c 2
 25 -188.994140625 l 1
 25 -90.994140625 l 1
 61.486328125 -90.994140625 l 2
 163.094726562 -90.994140625 222.318359375 -51.1806640625 222.318359375 107 c 2
EndSplineSet
Validated: 1
EndChar

StartChar: brokenbar
Encoding: 166 166 105
Width: 179
Flags: W
VStem: 40 99<-189 251.008 321 761.008>
LayerCount: 2
Fore
SplineSet
40 -189 m 1
 40 251.0078125 l 5
 139 251.0078125 l 5
 139 -189 l 1
 40 -189 l 1
40 321 m 5
 40 761.0078125 l 1
 139 761.0078125 l 1
 139 321 l 5
 40 321 l 5
EndSplineSet
Validated: 1
EndChar

StartChar: asciitilde
Encoding: 126 126 106
Width: 528
Flags: W
HStem: 234 79.2002<319.335 396.555> 385.199 79.2002<131.095 208.25>
VStem: 40 81<253.8 378.053> 407.199 81<322.769 444.6>
LayerCount: 2
Fore
SplineSet
301.279296875 365.703125 m 4
 317.431640625 334.884765625 324.907226562 313.200195312 359.5 313.200195312 c 4
 392.795898438 313.200195312 407.19921875 341.223632812 407.19921875 385.200195312 c 6
 407.19921875 444.599609375 l 5
 488.19921875 444.599609375 l 5
 488.19921875 369.900390625 l 6
 488.19921875 285.686523438 439.9375 234 361.299804688 234 c 4
 284.678710938 234 256.797851562 273.786132812 236.823242188 313.318359375 c 4
 211.078125 364.270507812 200.491210938 385.19921875 167.69921875 385.19921875 c 4
 134.403320312 385.19921875 121 360.17578125 121 316.19921875 c 6
 121 253.799804688 l 5
 40 253.799804688 l 5
 40 331.499023438 l 6
 40 415.712890625 88.26171875 464.399414062 166.899414062 464.399414062 c 4
 243.520507812 464.399414062 270.48046875 424.466796875 301.279296875 365.703125 c 4
EndSplineSet
Validated: 1
EndChar

StartChar: currency
Encoding: 164 164 107
Width: 507
Flags: W
HStem: 159.992 91<191.968 315.848> 449.934 91<191.968 315.848>
VStem: 63.7471 94<285.7 415.633> 349.747 94<283.456 417.858>
LayerCount: 2
Fore
SplineSet
157.747070312 351 m 0
 157.747070312 291.469726562 195.658203125 250.9921875 254.915039062 250.9921875 c 0
 312.388671875 250.9921875 349.747070312 291.469726562 349.747070312 351 c 0
 349.747070312 410.107421875 312.388671875 449.93359375 254.915039062 449.93359375 c 0
 195.658203125 449.93359375 157.747070312 410.107421875 157.747070312 351 c 0
63.7470703125 351 m 0
 63.7470703125 460.515625 137.786132812 540.93359375 253.747070312 540.93359375 c 0
 369.708007812 540.93359375 443.747070312 460.515625 443.747070312 351 c 0
 443.747070312 239.969726562 369.708007812 159.9921875 253.747070312 159.9921875 c 0
 137.786132812 159.9921875 63.7470703125 239.969726562 63.7470703125 351 c 0
418.112304688 265.931640625 m 5
 497.494140625 186.548828125 l 5
 428.198242188 117.252929688 l 5
 348.815429688 196.634765625 l 5
 418.112304688 265.931640625 l 5
175.678710938 508.365234375 m 1
 106.381835938 439.068359375 l 1
 10 535.451171875 l 1
 79.2958984375 604.747070312 l 1
 175.678710938 508.365234375 l 1
159.264648438 197.220703125 m 1
 79.2958984375 117.252929688 l 1
 10 186.548828125 l 1
 89.9677734375 266.517578125 l 1
 159.264648438 197.220703125 l 1
404.526367188 442.482421875 m 1
 335.229492188 511.779296875 l 1
 428.198242188 604.747070312 l 1
 497.494140625 535.451171875 l 1
 404.526367188 442.482421875 l 1
EndSplineSet
Validated: 5
EndChar

StartChar: section
Encoding: 167 167 108
Width: 490
Flags: W
HStem: -20 88<57 325.041> 201 91.3311<149.746 328.949> 451.683 92.3252<156.888 339.658> 663.008 88<158.88 409>
VStem: 25 98.3652<318.385 426.116> 45 98<558.926 645.394> 347 98<90.1101 183.152> 366.298 98.7021<319.116 425.693>
LayerCount: 2
Fore
SplineSet
45 610.0078125 m 4xf4
 45 697.3828125 113.838867188 751.0078125 226 751.0078125 c 6
 409 751.0078125 l 5
 409 663.0078125 l 5
 243 663.0078125 l 6
 173.196289062 663.0078125 143 642.00390625 143 605.0078125 c 4
 143 574.763671875 153.8828125 544.0078125 234 544.0078125 c 6
 244 544.0078125 l 6
 388.893554688 544.0078125 465 482.729492188 465 373 c 4xf5
 465 266.009765625 375.212890625 233.366210938 375.212890625 233.366210938 c 5
 375.212890625 233.366210938 445 204.8515625 445 124 c 4
 445 32.1044921875 366.653320312 -20 239 -20 c 6
 57 -20 l 5
 57 68 l 5
 222 68 l 6
 309.25390625 68 347 87.00390625 347 134 c 4
 347 173.7890625 322.54296875 201 262 201 c 6
 232 201 l 6
 88.4599609375 201 25 264.661132812 25 369 c 4xfa
 25 479.915039062 109.625976562 501.185546875 109.625976562 501.185546875 c 5
 109.625976562 501.185546875 45 528.9375 45 610.0078125 c 4xf4
258.791992188 451.682617188 m 6
 230.875976562 451.682617188 l 6
 171.985351562 451.682617188 123.365234375 431.111328125 123.365234375 372.006835938 c 4xf9
 123.365234375 312.90234375 171.985351562 292.331054688 230.875976562 292.331054688 c 6
 258.791992188 292.331054688 l 6
 317.678710938 292.331054688 366.297851562 312.90234375 366.297851562 372.006835938 c 4
 366.297851562 431.111328125 317.678710938 451.682617188 258.791992188 451.682617188 c 6
EndSplineSet
Validated: 1
EndChar

StartChar: dieresis
Encoding: 168 168 109
Width: 361
Flags: W
HStem: 617.191 121.801<39.8624 131.938 229.862 321.938>
VStem: 25 121.801<632.054 724.13> 215 121.801<632.054 724.13>
LayerCount: 2
Fore
SplineSet
215 678.091796875 m 4
 215 711.69140625 242.30078125 738.9921875 275.900390625 738.9921875 c 4
 309.5 738.9921875 336.80078125 711.69140625 336.80078125 678.091796875 c 4
 336.80078125 644.4921875 309.5 617.19140625 275.900390625 617.19140625 c 4
 242.30078125 617.19140625 215 644.4921875 215 678.091796875 c 4
25 678.091796875 m 0
 25 711.69140625 52.30078125 738.9921875 85.900390625 738.9921875 c 0
 119.5 738.9921875 146.80078125 711.69140625 146.80078125 678.091796875 c 0
 146.80078125 644.4921875 119.5 617.19140625 85.900390625 617.19140625 c 0
 52.30078125 617.19140625 25 644.4921875 25 678.091796875 c 0
EndSplineSet
Validated: 1
EndChar

StartChar: logicalnot
Encoding: 172 172 110
Width: 500
Flags: W
HStem: 312 98<25 377>
VStem: 377 98<210 312>
LayerCount: 2
Fore
SplineSet
475 410 m 1
 475 210 l 1
 377 210 l 1
 377 312 l 1
 25 312 l 1
 25 410 l 1
 475 410 l 1
EndSplineSet
Validated: 1
EndChar

StartChar: uni00AD
Encoding: 173 173 111
Width: 338
Flags: W
HStem: 202 98<25 313>
VStem: 25 288<202 300>
LayerCount: 2
Fore
SplineSet
25 300 m 5
 313 300 l 5
 313 202 l 5
 25 202 l 5
 25 300 l 5
EndSplineSet
Validated: 1
EndChar

StartChar: macron
Encoding: 175 175 112
Width: 348
Flags: W
HStem: 643 88<25 323>
VStem: 25 298<643 731>
LayerCount: 2
Fore
SplineSet
25 731 m 1
 323 731 l 1
 323 643 l 5
 25 643 l 5
 25 731 l 1
EndSplineSet
Validated: 1
EndChar

StartChar: plusminus
Encoding: 177 177 113
Width: 500
Flags: W
HStem: 136 98<25 201 299 475> 156 78<201 299> 352 98<25 475>
VStem: 201 98<156 586>
LayerCount: 2
Fore
SplineSet
25 234 m 1xb0
 475 234 l 1
 475 136 l 1
 25 136 l 1
 25 234 l 1xb0
201 156 m 1x70
 201 586 l 1
 299 586 l 1
 299 156 l 1
 201 156 l 1x70
25 450 m 5
 475 450 l 5
 475 352 l 5
 25 352 l 5
 25 450 l 5
EndSplineSet
Validated: 5
EndChar

StartChar: acute
Encoding: 180 180 114
Width: 219
Flags: W
HStem: 550 181.008
VStem: 10 199
LayerCount: 2
Fore
SplineSet
109 550 m 5
 10 550 l 5
 110 731.0078125 l 5
 209 731.0078125 l 5
 109 550 l 5
EndSplineSet
Validated: 1
EndChar

StartChar: mu
Encoding: 181 181 115
Width: 512
Flags: W
HStem: 0.0078125 89<56 301.553> 461.011 20G<40 40 374 472>
VStem: 40 94<-178.997 0.0078125 89.0078 481.011> 56 78<0.0078125 89.0078> 374 98<191.008 481.008> 374 54<61.9378 191.008>
LayerCount: 2
Fore
SplineSet
40 481.010742188 m 1xe0
 134 481.010742188 l 1xe0
 134 -178.997070312 l 1xd0
 40 -178.997070312 l 1
 40 481.010742188 l 1xe0
56 89.0078125 m 1xd4
 162 89.0078125 l 6
 309.982807958 89.0078125 374 124.747070312 374 249.0078125 c 2
 374 481.0078125 l 1xd8
 428 481.0078125 l 1
 428 191.0078125 l 2
 428 61.9378137373 342.046898819 0.00781249999999 202 0.0078125 c 2
 56 0.0078125 l 1
 56 89.0078125 l 1xd4
472 481.0078125 m 1
 472 0 l 1xc8
 374 0 l 1xc4
 374 481.0078125 l 1
 472 481.0078125 l 1
EndSplineSet
Validated: 5
EndChar

StartChar: paragraph
Encoding: 182 182 116
Width: 792
Flags: W
HStem: 190.008 98<225.214 442> 633.008 98<225.214 767>
VStem: 25 108<368.274 552.204> 353 109<-179 190.008 288.008 731.008> 353 89<190.008 288.008> 563 109<-179 731.008>
LayerCount: 2
Fore
SplineSet
672 -179 m 5xe4
 563 -179 l 1
 563 731.0078125 l 1
 672 731.0078125 l 5
 672 -179 l 5xe4
25 465.0078125 m 0
 25 629.842309984 133.097069622 731.0078125 338 731.0078125 c 2
 767 731.0078125 l 1
 767 633.0078125 l 1
 355 633.0078125 l 2
 200.036529541 633.0078125 133 580.769449301 133 460.0078125 c 0
 133 339.944459727 200.036529541 288.0078125 355 288.0078125 c 2
 442 288.0078125 l 1
 442 190.0078125 l 1xec
 338 190.0078125 l 2
 133.097069622 190.0078125 25 294.596161511 25 465.0078125 c 0
462 -179 m 1xf4
 353 -179 l 1
 353 731.0078125 l 1
 462 731.0078125 l 1
 462 -179 l 1xf4
EndSplineSet
Validated: 5
EndChar

StartChar: cedilla
Encoding: 184 184 118
Width: 305
Flags: W
HStem: -149.006 80<25 143.74>
VStem: 170 95<-42.2992 82.002>
LayerCount: 2
Fore
SplineSet
170 82.001953125 m 5
 265 82.001953125 l 5
 265 6.994140625 l 6
 265 -86.9817899816 203.767501939 -149.005859375 104 -149.005859375 c 6
 25 -149.005859375 l 5
 25 -69.005859375 l 5
 68 -69.005859375 l 6
 139.201267149 -69.005859375 170 -39.8725260417 170 25.994140625 c 6
 170 82.001953125 l 5
EndSplineSet
Validated: 1
EndChar

StartChar: degree
Encoding: 176 176 119
Width: 360
Flags: W
HStem: 434.051 75<125.871 234.393> 663.992 75<125.871 234.393>
VStem: 25 79<531.657 641.77> 256 79<529.25 644.15>
LayerCount: 2
Fore
SplineSet
104 587.05859375 m 4
 104 540.623957372 134.107608744 509.05078125 181.16796875 509.05078125 c 4
 226.520468448 509.05078125 256 540.623957372 256 587.05859375 c 4
 256 633.022216517 226.520468448 663.9921875 181.16796875 663.9921875 c 4
 134.107608744 663.9921875 104 633.022216517 104 587.05859375 c 4
25 587.05859375 m 4
 25 674.663748647 85.4005533854 738.9921875 180 738.9921875 c 4
 274.599446615 738.9921875 335 674.663748647 335 587.05859375 c 4
 335 498.11690042 274.599446615 434.05078125 180 434.05078125 c 4
 85.4005533854 434.05078125 25 498.11690042 25 587.05859375 c 4
EndSplineSet
Validated: 1
EndChar

StartChar: AE
Encoding: 198 198 124
Width: 881
Flags: W
HStem: 0 98<532 856> 252 94<126 444> 312 94<471 819> 633.008 98<226.813 512 532 856>
VStem: 40 108<0.0078125 252 346 559.588> 126 22<252 346> 423 89<633.008 731.008> 423 21<252 346> 471 61<312 406>
LayerCount: 2
Fore
SplineSet
471 406 m 1xb080
 819 406 l 5
 819 312 l 5
 471 312 l 1
 471 406 l 1xb080
423 731.0078125 m 1x92
 856 731.0078125 l 5
 856 633.0078125 l 5
 532 633.0078125 l 1
 532 98 l 1
 856 98 l 5
 856 0 l 5
 423 0 l 1x9180
 423 731.0078125 l 1x92
444 346 m 1xd5
 444 252 l 1
 126 252 l 1
 126 346 l 1
 444 346 l 1xd5
512 633.0078125 m 1x9a
 346 633.0078125 l 2
 207.78921371 633.0078125 148 590.344590749 148 442.0078125 c 2
 148 0.0078125 l 1
 40 0.0078125 l 1
 40 470.0078125 l 2
 40 646.380952171 148.772508575 731.0078125 326 731.0078125 c 2
 512 731.0078125 l 1
 512 633.0078125 l 1x9a
EndSplineSet
Validated: 5
EndChar

StartChar: ordfeminine
Encoding: 170 170 126
Width: 475
Flags: W
HStem: 369.994 81<161.388 287 375 450> 399.994 51<287 375> 670.002 81<161.091 345>
VStem: 25 89<493.124 628.239> 287 88<399.994 670.002> 287 58<670.002 751.002>
LayerCount: 2
Fore
SplineSet
375 399.994140625 m 1x78
 287 399.994140625 l 1x78
 287 751.001953125 l 1x74
 375 751.001953125 l 1
 375 399.994140625 l 1x78
225 751.001953125 m 6
 345 751.001953125 l 1
 345 670.001953125 l 1
 233.83203125 670.001953125 l 6
 161.186771645 670.001953125 114 626.087897976 114 560.994140625 c 0
 114 495.512478761 161.161617745 450.994140625 233.513671875 450.994140625 c 6
 450 450.994140625 l 1
 450 369.994140625 l 1
 225 369.994140625 l 6xb4
 103.4 369.994140625 25 449.96443686 25 560.994140625 c 0
 25 670.518916807 102.6 751.001953125 225 751.001953125 c 6
EndSplineSet
Validated: 5
EndChar

StartChar: ordmasculine
Encoding: 186 186 127
Width: 450
Flags: W
HStem: 360.061 81<159.821 292.978> 680.002 81<157.394 292.978>
VStem: 25 89<484.878 636.576> 336 89<484.878 636.576>
LayerCount: 2
Fore
SplineSet
114 561.068359375 m 0
 114 489.632889071 157.763274213 441.060546875 226.16796875 441.060546875 c 4
 292.732471786 441.060546875 336 489.632889071 336 561.068359375 c 0
 336 632.12466569 292.732471786 680.001953125 226.16796875 680.001953125 c 0
 157.763274213 680.001953125 114 632.12466569 114 561.068359375 c 0
25 561.068359375 m 0
 25 676.350228245 102.935808405 761.001953125 225 761.001953125 c 0
 347.064191595 761.001953125 425 676.350228245 425 561.068359375 c 0
 425 444.224828369 347.064191595 360.060546875 225 360.060546875 c 0
 102.935808405 360.060546875 25 444.224828369 25 561.068359375 c 0
EndSplineSet
Validated: 1
EndChar

StartChar: Thorn
Encoding: 222 222 128
Width: 602
Flags: W
HStem: 0 21G<40 149> 160.008 98<60 413.795> 503.008 98<60 413.795> 711.008 20G<40 149>
VStem: 40 109<0 160.008 258.008 503.008 601.008 731.008> 60 89<160.008 258.008 503.008 601.008> 469 108<306.68 454.441>
LayerCount: 2
Fore
SplineSet
577 385.0078125 m 0xf6
 577 245.580098055 486.170832873 160.0078125 314 160.0078125 c 2
 60 160.0078125 l 1
 60 258.0078125 l 1
 297 258.0078125 l 2
 417.061787923 258.0078125 469 294.846597161 469 380.0078125 c 0
 469 465.867242133 417.061787923 503.0078125 297 503.0078125 c 2
 60 503.0078125 l 1
 60 601.0078125 l 1
 314 601.0078125 l 2
 486.170832873 601.0078125 577 518.858381886 577 385.0078125 c 0xf6
40 0 m 1xfa
 40 731.0078125 l 1
 149 731.0078125 l 1
 149 0 l 1
 40 0 l 1xfa
EndSplineSet
Validated: 5
EndChar

StartChar: thorn
Encoding: 254 254 129
Width: 530
Flags: W
HStem: 0.00292969 91<70 334.886> 390.011 91<40 334.515> 731.011 20G<40 138>
VStem: 40 98<-178.997 0.00292969 91.0029 390.011 481.011 751.011> 70 68<0.00292969 91.0029> 406 99<158.765 321.863>
LayerCount: 2
Fore
SplineSet
40 751.010742188 m 5xf4
 138 751.010742188 l 5
 138 -178.997070312 l 1
 40 -178.997070312 l 1
 40 751.010742188 l 5xf4
255 0.0029296875 m 2
 70 0.0029296875 l 1
 70 91.0029296875 l 1xec
 256.16796875 91.0029296875 l 2
 347 91.0029296875 406 151.03125 406 240.010742188 c 0
 406 329.303710938 347 390.010742188 256.486328125 390.010742188 c 2
 40 390.010742188 l 1
 40 481.010742188 l 1
 255 481.010742188 l 2
 407 481.010742188 505 380.10546875 505 240.010742188 c 0
 505 101.665039062 408 0.00292968749998 255 0.0029296875 c 2
EndSplineSet
Validated: 5
EndChar

StartChar: a.ss06
Encoding: 65543 -1 130
Width: 455
Flags: W
HStem: 0 85<147.749 316> 30 55<316 415> 220.008 81<143.683 385> 394.008 87<75 285.577>
VStem: 25 101<107.175 201.139> 316 99<30 220.008 288.008 364.924> 316 69<220.008 301.008>
LayerCount: 2
Fore
SplineSet
316 30 m 1x7c
 316 288.0078125 l 2
 316 365.113151042 283.388583097 394.0078125 208 394.0078125 c 2
 75 394.0078125 l 1
 75 481.0078125 l 1
 224 481.0078125 l 2
 342.358385503 481.0078125 415 421.856766374 415 315.0078125 c 2
 415 30 l 1
 316 30 l 1x7c
205 301.0078125 m 2
 385 301.0078125 l 1
 385 220.0078125 l 1
 209.83203125 220.0078125 l 2
 159.01089762 220.0078125 126 195.027818541 126 158 c 0
 126 114.543988036 158.955559039 85 209.513671875 85 c 2xba
 415 85 l 1x7c
 415 0 l 1
 205 0 l 2xbc
 95.56 0 25 65.3160534693 25 156 c 0
 25 239.585764184 94.84 301.0078125 205 301.0078125 c 2
EndSplineSet
Validated: 5
EndChar

StartChar: divide
Encoding: 247 247 131
Width: 500
Flags: W
HStem: 126 131.801<201.233 298.767> 312 98<25 475> 464 131.801<201.233 298.767>
VStem: 184.1 131.801<143.133 240.668 481.133 578.668>
LayerCount: 2
Fore
SplineSet
184.099609375 529.900390625 m 4
 184.099609375 566.258570925 213.6418197 595.80078125 250 595.80078125 c 0
 286.3581803 595.80078125 315.900390625 566.258570925 315.900390625 529.900390625 c 0
 315.900390625 493.542210325 286.3581803 464 250 464 c 0
 213.6418197 464 184.099609375 493.542210325 184.099609375 529.900390625 c 4
184.099609375 191.900390625 m 4
 184.099609375 228.258570925 213.6418197 257.80078125 250 257.80078125 c 0
 286.3581803 257.80078125 315.900390625 228.258570925 315.900390625 191.900390625 c 0
 315.900390625 155.542210325 286.3581803 126 250 126 c 0
 213.6418197 126 184.099609375 155.542210325 184.099609375 191.900390625 c 4
25 410 m 1
 475 410 l 1
 475 312 l 1
 25 312 l 1
 25 410 l 1
EndSplineSet
Validated: 1
EndChar

StartChar: Eth
Encoding: 208 208 132
Width: 779
Flags: W
HStem: 0 98<239 487.825> 312 98<25 413> 633.008 98<239 497.041>
VStem: 130 109<98 633.008> 645 109<254.703 488.603>
LayerCount: 2
Fore
SplineSet
25 410 m 1
 413 410 l 1
 413 312 l 1
 25 312 l 1
 25 410 l 1
EndSplineSet
Refer: 13 68 S 1 0 0 1 90 0 2
Validated: 5
EndChar

StartChar: eth
Encoding: 240 240 133
Width: 574
Flags: W
HStem: -10.0078 90.1299<195.522 361.645> 392.878 85.1299<195.098 362.097> 486.564 21G<267.245 313.433> 641.008 90<122.682 273.189>
VStem: 25 99.0596<153.068 320.852> 433.94 115.06<171.824 446.271>
LayerCount: 2
Fore
SplineSet
229.791992188 571.435546875 m 1
 479.208007812 715.435546875 l 1
 528.208007812 630.564453125 l 1
 278.791992188 486.564453125 l 1
 229.791992188 571.435546875 l 1
435.186523438 416.075195312 m 1
 420.989819462 564.802280498 307.152867334 641.0078125 149.16796875 641.0078125 c 2
 122.681640625 641.0078125 l 1
 122.681640625 731.0078125 l 1
 168.681640625 731.0078125 l 2
 407.07280063 731.0078125 549 568.541359389 549 324 c 0
 549 109.22782864 452.862373034 -10.0078125 277 -10.0078125 c 0
 123.19911859 -10.0078125 25 92.1610632394 25 234 c 0
 25 374.69509839 119.302328169 478.0078125 267 478.0078125 c 0
 376.150207382 478.0078125 435.186523438 416.075195312 435.186523438 416.075195312 c 1
433.940429688 238.030273438 m 4
 433.940429688 330.543264493 373.024283789 392.877929688 277.80859375 392.877929688 c 0
 184.627877516 392.877929688 124.059570312 330.543264493 124.059570312 238.030273438 c 0
 124.059570312 144.034336673 184.627877516 80.1220703125 277.80859375 80.1220703125 c 0
 373.024283789 80.1220703125 433.940429688 144.034336673 433.940429688 238.030273438 c 4
EndSplineSet
Validated: 5
EndChar

StartChar: Oslash
Encoding: 216 216 134
Width: 762
Flags: W
HStem: -10.0078 101<277.889 484.599> 638.008 101<277.889 484.599>
VStem: 25 109<248.249 485.512> 628 109<245.188 488.543>
LayerCount: 2
Fore
SplineSet
67.7138671875 -52.4 m 1
 583.190429688 783.405273438 l 5
 694.286132812 783.41 l 1
 178.809570312 -52.400390625 l 1
 178.809570312 -52.400390625 67.7138671875 -52.400390625 67.7138671875 -52.4 c 1
EndSplineSet
Refer: 7 79 N 1 0 0 1 0 0 2
EndChar

StartChar: oslash
Encoding: 248 248 135
Width: 550
Flags: W
HStem: -10.0078 91<194.322 356.085> 399.934 91<194.322 356.085>
VStem: 25 99<151.747 329.605> 426 99<151.747 329.605>
LayerCount: 2
Fore
SplineSet
45.1240234375 -57.26953125 m 1
 418.791015625 538.280273438 l 5
 504.875976562 538.28 l 1
 131.208984375 -57.26953125 l 1
 45.1240234375 -57.26953125 l 1
EndSplineSet
Refer: 34 111 N 1 0 0 1 0 0 2
EndChar

StartChar: germandbls
Encoding: 223 223 136
Width: 606
Flags: W
HStem: 0 88<243 468.758> 451 30<452 545> 660.008 91<201.52 393.755>
VStem: 40 99<0 599.135> 231 98<306.219 378.556> 452 93<451 603.052> 483 98<105.409 176.896>
LayerCount: 2
Fore
SplineSet
302 751.0078125 m 0xfc
 470 751.0078125 545 643.571289062 545 520 c 2
 545 451 l 1
 452 451 l 1
 452 515 l 2
 452 599.447265625 412.352539062 660.0078125 300 660.0078125 c 0
 168.572265625 660.0078125 139 583.474609375 139 528.0078125 c 2
 139 0 l 1
 40 0 l 1
 40 535.0078125 l 2
 40 628.983398438 98 751.0078125 302 751.0078125 c 0xfc
231 340 m 0
 231 427.375 299.838867188 481 412 481 c 2
 545 481 l 1
 545 393 l 1xfc
 429 393 l 2
 359.196289062 393 329 376.99609375 329 340 c 0
 329 309.755859375 357.814283361 297.865370261 426.874023438 279.607421875 c 0
 514.330071767 256.486357556 581 233.05078125 581 137 c 0
 581 52.1044921875 502.653320312 -1.31832940065e-14 395 0 c 2
 243 0 l 1
 243 88 l 1
 378 88 l 2
 445.25390625 88 483 104.00390625 483 141 c 0xfa
 483 180.7890625 443.771909696 187.059488852 371.16796875 204.4140625 c 0
 289.865296496 223.846615032 231 262.005859375 231 340 c 0
EndSplineSet
Validated: 5
EndChar

StartChar: kgreenlandic
Encoding: 312 312 137
Width: 493
Flags: W
HStem: 0 84<381.348 468> 220.008 88<60 316.667> 220.008 60.9922<180 280> 461.008 20G<40 139 354 452>
VStem: 40 99<0 220.008 308.008 481.008> 60 79<220.008 308.008> 354 98<349.43 481.008>
LayerCount: 2
Fore
SplineSet
60 308.0078125 m 1xd6
 239 308.0078125 l 2
 319.273893229 308.0078125 354 346.658150338 354 436.0078125 c 2
 354 481.0078125 l 1
 452 481.0078125 l 1
 452 411.0078125 l 2
 452 292.649174904 381.25994647 220.0078125 266 220.0078125 c 2
 60 220.0078125 l 1
 60 308.0078125 l 1xd6
40 0 m 1x9a
 40 481.0078125 l 5
 139 481.0078125 l 5
 139 0 l 1
 40 0 l 1x9a
320 0 m 1
 180 281 l 1
 280 281 l 1xb2
 381.34765625 84 l 1
 468 84 l 1
 468 0 l 1
 320 0 l 1
EndSplineSet
Validated: 5
EndChar

StartChar: Eng
Encoding: 330 330 138
Width: 622
Flags: W
HStem: -178.994 98<282 433.189> 0 21G<40 149> 633.008 98<149 395.186>
VStem: 40 109<0 633.008> 474 108<-43.06 559.592>
LayerCount: 2
Fore
SplineSet
40 0 m 1
 40 731.0078125 l 1
 60 731.0078125 l 1
 149 731.0078125 l 1
 296 731.0078125 l 2
 473.22552881 731.0078125 581.998046875 646.3828125 582 470.013671875 c 2
 582 27.005859375 l 2
 582 -97.0905261672 509.358385503 -178.994140625 391 -178.994140625 c 2
 282 -178.994140625 l 1
 282 -80.994140625 l 1
 354 -80.994140625 l 2
 435.670898438 -80.994140625 474 -45.7274739583 474 34.005859375 c 2
 474 442.0078125 l 2
 474 590.344590749 414.21078629 633.0078125 276 633.0078125 c 2
 149 633.0078125 l 1
 149 0 l 1
 40 0 l 1
EndSplineSet
Validated: 1
EndChar

StartChar: eng
Encoding: 331 331 139
Width: 512
Flags: W
HStem: -179 83<232 354.353> 0 21G<40 138> 392.008 89<60 317.223>
VStem: 40 98<0 392.008> 60 78<392.008 481.008> 378 94<-72.999 334.129>
LayerCount: 2
Fore
SplineSet
40 0 m 1xf4
 40 481.0078125 l 1xf4
 138 481.0078125 l 1xec
 138 0 l 1
 40 0 l 1xf4
60 392.0078125 m 1xec
 60 481.0078125 l 1
 226 481.0078125 l 2
 378.440429688 481.0078125 472 409.350585938 472 260.0078125 c 2
 472 -12.9921875 l 2
 472 -113 414.571289062 -179 321 -179 c 2
 232 -179 l 5
 232 -96 l 5
 285 -96 l 2
 349.91789363 -96 378 -68.4 378 -6 c 2
 378 232.0078125 l 2
 378 356.268987997 326.061895161 392.0078125 206 392.0078125 c 2
 60 392.0078125 l 1xec
EndSplineSet
Validated: 5
EndChar

StartChar: copyright
Encoding: 169 169 140
Width: 802
Flags: W
HStem: -10.0078 81<279.977 522.472> 182.752 69<369.214 526.08> 479.256 69<362.764 527.238> 658.008 81<279.977 522.472>
VStem: 25 79<247.287 482.064> 239.08 79.5<298.331 436.393> 698 79<247.287 482.064>
LayerCount: 2
Fore
SplineSet
429.23828125 548.255859375 m 2
 527.23828125 548.255859375 l 1
 527.23828125 479.255859375 l 1
 438.99609375 479.255859375 l 2
 362.921243745 479.255859375 318.580078125 437.338275734 318.580078125 365.251953125 c 0
 318.580078125 294.867854935 369.200833011 251.751953125 451.8359375 251.751953125 c 2
 526.080078125 251.751953125 l 1
 526.080078125 182.751953125 l 1
 439.580078125 182.751953125 l 2
 313.187847308 182.751953125 239.080078125 255.039450253 239.080078125 364.251953125 c 0
 239.080078125 474.806502658 310.043313377 548.255859375 429.23828125 548.255859375 c 2
104 366 m 0
 104 190.394584068 220.332734945 70.9921875 402.16796875 70.9921875 c 0
 581.459127423 70.9921875 698 190.394584068 698 366 c 0
 698 540.458669896 581.459127423 658.0078125 402.16796875 658.0078125 c 0
 220.332734945 658.0078125 104 540.458669896 104 366 c 0
25 364 m 0
 25 580.229802382 171.5193198 739.0078125 401 739.0078125 c 0
 630.4806802 739.0078125 777 580.229802382 777 364 c 0
 777 146.59355747 630.4806802 -10.0078125 401 -10.0078125 c 0
 171.5193198 -10.0078125 25 146.59355747 25 364 c 0
EndSplineSet
Validated: 1
EndChar

StartChar: registered
Encoding: 174 174 141
Width: 802
Flags: W
HStem: -10.0078 81<279.977 522.472> 182.752 61<506.924 559.75> 316.756 62<273.25 461.101> 316.756 40.4961<355.75 433.75> 486.256 62<273.25 457.375> 658.008 81<279.977 522.472>
VStem: 25 79<247.287 482.064> 263.25 74.5<182.752 316.756 378.756 486.256> 273.25 64.5<316.756 378.756 486.256 548.256> 469.25 75<389.057 475.262> 698 79<247.287 482.064>
LayerCount: 2
Fore
SplineSet
460.75 182.751953125 m 5xde60
 355.75 357.251953125 l 5
 433.75 357.251953125 l 5
 506.923828125 243.751953125 l 5
 559.75 243.751953125 l 5
 559.75 182.751953125 l 5
 460.75 182.751953125 l 5xde60
544.25 432.255859375 m 4
 544.25 360.683457031 493.666732788 316.755859375 411.25 316.755859375 c 6
 273.25 316.755859375 l 5
 273.25 378.755859375 l 5
 395.75 378.755859375 l 6
 447.055575284 378.755859375 469.25 394.155713691 469.25 429.755859375 c 4
 469.25 469.19534187 447.055575284 486.255859375 395.75 486.255859375 c 6
 273.25 486.255859375 l 5
 273.25 548.255859375 l 5xeee0
 411.25 548.255859375 l 6
 493.666732788 548.255859375 544.25 504.138827434 544.25 432.255859375 c 4
263.25 182.751953125 m 5xcf60
 263.25 548.255859375 l 5xcf60
 337.75 548.255859375 l 5xcee0
 337.75 182.751953125 l 5
 263.25 182.751953125 l 5xcf60
104 366 m 4
 104 190.394584068 220.332734945 70.9921875 402.16796875 70.9921875 c 4
 581.459127423 70.9921875 698 190.394584068 698 366 c 4
 698 540.458669896 581.459127423 658.0078125 402.16796875 658.0078125 c 4
 220.332734945 658.0078125 104 540.458669896 104 366 c 4
25 364 m 4
 25 580.229802382 171.5193198 739.0078125 401 739.0078125 c 4
 630.4806802 739.0078125 777 580.229802382 777 364 c 4
 777 146.59355747 630.4806802 -10.0078125 401 -10.0078125 c 4
 171.5193198 -10.0078125 25 146.59355747 25 364 c 4
EndSplineSet
Validated: 5
EndChar

StartChar: longs
Encoding: 383 383 142
Width: 275
Flags: W
HStem: 0 21G<40 139> 668.008 83<157.647 260>
VStem: 40 99<0 648.067>
LayerCount: 2
Fore
SplineSet
139 0 m 1
 40 0 l 1
 40 595.0078125 l 2
 40 688.983716114 97.4287109375 751.0078125 191 751.0078125 c 2
 260 751.0078125 l 1
 260 668.0078125 l 1
 227 668.0078125 l 2
 165.572265625 668.0078125 139 643.474724265 139 588.0078125 c 2
 139 0 l 1
EndSplineSet
Validated: 1
EndChar

StartChar: OE
Encoding: 338 338 143
Width: 989
Flags: W
HStem: 0 98<291.175 501 610 964> 50 48<501 610> 312 94<549 927> 633.008 98<281.959 501 610 964> 633.008 48<501 610>
VStem: 25 109<254.703 488.603> 501 109<50 312 406 681.008> 549 61<312 406>
LayerCount: 2
Fore
SplineSet
610 50 m 5x6e
 501 50 l 5
 501 681.0078125 l 1
 610 681.0078125 l 1
 610 50 l 5x6e
549 406 m 1x25
 927 406 l 1
 927 312 l 1
 549 312 l 1
 549 406 l 1x25
406 0 m 2xb4
 165.82355297 0 25 148.956465205 25 374 c 0
 25 588.499946157 166.648901039 731.0078125 406 731.0078125 c 2
 964 731.0078125 l 1
 964 633.0078125 l 1
 404.83203125 633.0078125 l 2
 233.580628227 633.0078125 134 538.510129527 134 376 c 0
 134 203.605721709 239.041100291 98 410.513671875 98 c 2
 964 98 l 1
 964 0 l 1
 406 0 l 2xb4
EndSplineSet
Validated: 5
EndChar

StartChar: florin
Encoding: 402 402 145
Width: 275
Flags: W
HStem: -179 88<-81 17.3781> 397.011 84<82 250> 668.008 83<157.647 260>
VStem: 40 99<-69.4608 397.011 481.011 648.067> 82 57<397.011 481.011>
LayerCount: 2
Fore
SplineSet
82 481.010742188 m 1xe8
 250 481.010742188 l 1
 250 397.010742188 l 1
 82 397.010742188 l 1
 82 481.010742188 l 1xe8
139 588.0078125 m 6xf0
 139 -13 l 6
 139 -113 81.5712890625 -179 -12 -179 c 6
 -81 -179 l 5
 -81 -91 l 5
 -48 -91 l 6
 13.4276842949 -91 40 -64.9333333333 40 -6 c 6
 40 595.0078125 l 6
 40 688.983716114 97.4287109375 751.0078125 191 751.0078125 c 6
 260 751.0078125 l 5
 260 668.0078125 l 5
 227 668.0078125 l 6
 165.572265625 668.0078125 139 643.474724265 139 588.0078125 c 6xf0
EndSplineSet
Validated: 5
EndChar

StartChar: dotlessi
Encoding: 305 305 148
Width: 178
HStem: 0 21G<40 138> 461.008 20G<40 138>
VStem: 40 98<0 481.008>
LayerCount: 2
Fore
SplineSet
40 0 m 5
 40 481.0078125 l 5
 138 481.0078125 l 5
 138 0 l 5
 40 0 l 5
EndSplineSet
Validated: 1
EndChar

StartChar: uni0237
Encoding: 567 567 149
Width: 178
HStem: -179 88<-81 17.3781> 461.008 20G<40 139>
VStem: 40 99<-69.4608 481.008>
LayerCount: 2
Fore
SplineSet
40 481.0078125 m 5
 139 481.0078125 l 5
 139 -13 l 6
 139 -113 81.5712890625 -179 -12 -179 c 6
 -81 -179 l 5
 -81 -91 l 5
 -48 -91 l 6
 13.4276842949 -91 40 -64.9333333333 40 -6 c 6
 40 481.0078125 l 5
EndSplineSet
Validated: 1
EndChar

StartChar: uni018F
Encoding: 399 399 151
Width: 700
Flags: W
HStem: -0.0078125 101<243.346 435.662> 642.934 98<82 414.105>
VStem: 566 109<247.958 444.389>
LayerCount: 2
Fore
SplineSet
613.3046875 407.642578125 m 5
 60.5 279.862304688 l 5
 25 365.9921875 l 5
 577.8046875 493.772460938 l 5
 613.3046875 407.642578125 l 5
346 -0.0078125 m 4
 132.071289062 -0.0078125 25 153.069335938 25 336.9921875 c 6
 25 365.9921875 l 5
 133 365.9921875 l 5
 133 333.9921875 l 6
 133 203.208007812 190.315429688 100.9921875 344.83203125 100.9921875 c 4
 479.708984375 100.9921875 566 211.265625 566 374.92578125 c 4
 566 541.758789062 464.349609375 642.93359375 303.83203125 642.93359375 c 6
 82 642.93359375 l 5
 82 740.93359375 l 5
 305 740.93359375 l 6
 531.440429688 740.93359375 675 596.509765625 675 374.92578125 c 4
 675 158.73828125 548.112304688 -0.0078125 346 -0.0078125 c 4
EndSplineSet
Validated: 5
EndChar

StartChar: uni01B7
Encoding: 439 439 152
Width: 612
Flags: W
HStem: -179 98<45 375.373> 633.008 98<141.6 426.468>
VStem: 25 98<511.008 617.28> 479 108<-2.10867 155.625>
LayerCount: 2
Fore
SplineSet
341.532226562 324 m 1
 341.532226562 324 347.668240956 323.416575133 357.999999118 321.542357438 c 4
 413.01563734 311.562324896 587 264.982350894 587 75 c 0
 587 -82.3988503556 463.3617447 -179 229 -179 c 2
 45 -179 l 1
 45 -81 l 1
 212 -81 l 2
 398.374504207 -81 479 -32.3851358249 479 80 c 0
 479 193.781012285 378.277191762 243 224 243 c 2
 217 243 l 1
 217 311.0078125 l 1
 426.467773438 633.0078125 l 1
 198 633.0078125 l 2
 145.647460938 633.0078125 123 609.455078125 123 555.0078125 c 2
 123 511.0078125 l 1
 25 511.0078125 l 1
 25 580.0078125 l 2
 25 673.579101562 88.1337890625 731.0078125 191 731.0078125 c 2
 573 731.0078125 l 1
 573 677.0078125 l 1
 341.532226562 324 l 1
EndSplineSet
EndChar

StartChar: uni0292
Encoding: 658 658 153
Width: 484
Flags: W
HStem: -179 88<48 311.431> 393.011 88<120.366 321.468>
VStem: 25 88<281.011 385.696> 361 98<-48.7062 74.9561>
LayerCount: 2
Fore
SplineSet
177 166.0078125 m 1
 321.467773438 393.010742188 l 1
 168 393.010742188 l 2
 129.608138021 393.010742188 113 375.497170473 113 335.010742188 c 2
 113 281.010742188 l 1
 25 281.010742188 l 1
 25 350.010742188 l 2
 25 431.18848303 80.5273084526 481.010742188 171 481.010742188 c 2
 443 481.010742188 l 1
 443 427.010742188 l 1
 291.532226562 185 l 1
 291.532226562 185 297.361928626 184.651513043 306.845958859 183 c 4
 348.19371506 175.799858607 459 143.832846093 459 8 c 0
 459 -107.88025597 369.206853693 -179 199 -179 c 2
 48 -179 l 1
 48 -91 l 1
 182 -91 l 2
 306.947701323 -91 361 -59.596609477 361 13 c 0
 361 83.5023450353 313.591000601 114 204 114 c 2
 177 114 l 1
 177 166.0078125 l 1
EndSplineSet
EndChar

StartChar: perthousand
Encoding: 8240 8240 154
Width: 1238
Flags: W
HStem: -10.0078 85<585.786 700.544 975.786 1090.54> 0 21G<142 255.667> 265.934 85<585 701.31 975 1091.31> 378.051 85<147.786 262.544> 653.992 85<147 263.31> 711.008 20G<592.333 706>
VStem: 25 93<493.793 623.635> 292 93<493.793 623.635> 463 93<105.735 235.576> 730 93<105.735 235.576> 853 93<105.735 235.576> 1120 93<105.735 235.576>
LayerCount: 2
Fore
SplineSet
946 171 m 0xb3f0
 946 113.850751482 980.399333686 74.9921875 1034.16796875 74.9921875 c 0
 1086.18709888 74.9921875 1120 113.850751482 1120 171 c 0
 1120 227.717640219 1086.18709888 265.93359375 1034.16796875 265.93359375 c 0
 980.399333686 265.93359375 946 227.717640219 946 171 c 0xb3f0
853 171 m 0
 853 274.75 923.142578125 350.93359375 1033 350.93359375 c 0
 1142.85742188 350.93359375 1213 274.75 1213 171 c 0
 1213 65.7822265625 1142.85742188 -10.0078125 1033 -10.0078125 c 0
 923.142578125 -10.0078125 853 65.7822265625 853 171 c 0
118 559.05859375 m 0
 118 501.909345232 152.399333686 463.05078125 206.16796875 463.05078125 c 0
 258.187098878 463.05078125 292 501.909345232 292 559.05859375 c 0
 292 615.776233969 258.187098878 653.9921875 206.16796875 653.9921875 c 0x3bf0
 152.399333686 653.9921875 118 615.776233969 118 559.05859375 c 0
25 559.05859375 m 0
 25 662.80859375 95.142578125 738.9921875 205 738.9921875 c 0
 314.857421875 738.9921875 385 662.80859375 385 559.05859375 c 0
 385 453.840820312 314.857421875 378.05078125 205 378.05078125 c 0
 95.142578125 378.05078125 25 453.840820312 25 559.05859375 c 0
556 171 m 0
 556 113.850751482 590.399333686 74.9921875 644.16796875 74.9921875 c 0xb3f0
 696.187098878 74.9921875 730 113.850751482 730 171 c 0
 730 227.717640219 696.187098878 265.93359375 644.16796875 265.93359375 c 0
 590.399333686 265.93359375 556 227.717640219 556 171 c 0
463 171 m 0
 463 274.75 533.142578125 350.93359375 643 350.93359375 c 0
 752.857421875 350.93359375 823 274.75 823 171 c 0
 823 65.7822265625 752.857421875 -10.0078125 643 -10.0078125 c 0
 533.142578125 -10.0078125 463 65.7822265625 463 171 c 0
EndSplineSet
Refer: 162 8260 S 1 0 0 1 278.5 0 2
EndChar

StartChar: uni203D
Encoding: 8253 8253 161
Width: 517
Flags: W
HStem: -10 121.801<143.462 235.538> 633 98<25 333.952>
VStem: 128.6 121.801<4.86242 96.9384> 141 99<190 541.008> 191 49<190 384> 384 108<453.551 587.399>
LayerCount: 2
Fore
SplineSet
141 190 m 1xd4
 141 541.0078125 l 1
 240 541.0078125 l 1
 240 190 l 1
 141 190 l 1xd4
191 312 m 2xcc
 191 384 207.81559383 403.096342774 263 411 c 0
 346.349636006 422.937556253 384 451.690429688 384 521 c 0
 384 599.180664062 332.666015625 633 214 633 c 2
 25 633 l 1
 25 731 l 1
 231 731 l 2
 392.735351562 731 492 655.31640625 492 532 c 0
 492 404.966796875 423.713222755 349.284179688 305 327 c 0
 259.359049076 318.432536933 240 307.222510494 240 250 c 2
 240 190 l 1xd4
 191 190 l 1
 191 312 l 2xcc
EndSplineSet
Refer: 58 46 N 1 0 0 1 103.6 0 2
Validated: 5
EndChar

StartChar: fraction
Encoding: 8260 8260 162
Width: 291
Flags: W
HStem: 0 21G<-136.5 -22.8326> 711.008 20G<313.833 427.5>
LayerCount: 2
Fore
SplineSet
-136.5 0 m 5
 326.5 731.0078125 l 5
 427.5 731.0078125 l 1
 -35.5 0 l 1
 -136.5 0 l 5
EndSplineSet
EndChar

StartChar: guilsinglleft
Encoding: 8249 8249 163
Width: 299
Flags: W
VStem: 25 264
LayerCount: 2
Fore
SplineSet
25 278 m 5
 171 444 l 5
 289 444 l 5
 127.125 249 l 5
 289 54 l 5
 171 54 l 5
 25 220 l 5
 25 278 l 5
EndSplineSet
EndChar

StartChar: guilsinglright
Encoding: 8250 8250 164
Width: 299
Flags: W
VStem: 10 264
LayerCount: 2
Fore
SplineSet
274 278 m 1
 274 220 l 1
 128 54 l 1
 10 54 l 1
 171.875 249 l 1
 10 444 l 1
 128 444 l 1
 274 278 l 1
EndSplineSet
EndChar

StartChar: lira
Encoding: 8356 8356 165
Width: 617
Flags: W
HStem: 0 98<25 160 269 485.4> 30 68<160 269> 242 88<85 413> 392 88<85 413> 638.008 93<311.386 450>
VStem: 160 109<30 595.074> 504 98<113.728 220>
LayerCount: 2
Fore
SplineSet
85 330 m 5x3e
 413 330 l 5
 413 242 l 5
 85 242 l 5
 85 330 l 5x3e
85 480 m 5
 413 480 l 5
 413 392 l 5
 85 392 l 5
 85 480 l 5
269 30 m 1x7e
 160 30 l 1
 160 525.0078125 l 2
 160 649.104198042 236.444840387 731.0078125 361 731.0078125 c 2
 450 731.0078125 l 1
 450 638.0078125 l 1
 397 638.0078125 l 2
 307.650568182 638.0078125 269 601.208180148 269 518.0078125 c 2
 269 30 l 1x7e
25 98 m 1xbe
 429 98 l 2
 481.352539062 98 504 121.55254962 504 176 c 2
 504 220 l 1
 602 220 l 1
 602 151 l 2
 602 57.428511639 538.866403839 -1.26010313295e-14 436 0 c 2
 25 0 l 1
 25 98 l 1xbe
EndSplineSet
Validated: 5
EndChar

StartChar: Euro
Encoding: 8364 8364 166
Width: 610
Flags: W
HStem: 0 98<374.856 592.682> 232 88<25 445> 402 88<25 475> 633.008 98<360.862 595>
VStem: 108.682 109<321.541 394.767>
LayerCount: 2
Fore
SplineSet
469 731.0078125 m 2
 595 731.0078125 l 1
 595 633.0078125 l 1
 468.513671875 633.0078125 l 2
 310.046303106 633.0078125 217.681640625 534.465225089 217.681640625 365 c 0
 217.681640625 199.426835094 322.72265625 98 494.1953125 98 c 2
 592.681640625 98 l 1
 592.681640625 0 l 1
 489.681640625 0 l 2
 249.504882813 0 108.681640625 144.574994256 108.681640625 363 c 0
 108.681640625 584.109099066 243.14524031 731.0078125 469 731.0078125 c 2
25 320 m 5
 465 320 l 5
 445 232 l 5
 25 232 l 5
 25 320 l 5
25 490 m 1
 495 490 l 1
 475 402 l 1
 25 402 l 1
 25 490 l 1
EndSplineSet
Validated: 5
EndChar

StartChar: franc
Encoding: 8355 8355 167
Width: 578
Flags: W
HStem: 0 21G<100 209> 132 88<25 333> 322 94<148 506> 633.008 98<209 553>
VStem: 100 109<0 322 416 633.008> 148 61<322 416>
LayerCount: 2
Fore
SplineSet
148 416 m 5xf4
 506 416 l 1
 506 322 l 1
 148 322 l 5
 148 416 l 5xf4
100 731.0078125 m 5xf8
 553 731.0078125 l 1
 553 633.0078125 l 1
 209 633.0078125 l 5
 209 0 l 5
 100 0 l 5
 100 731.0078125 l 5xf8
25 220 m 1
 333 220 l 1
 333 132 l 1
 25 132 l 1
 25 220 l 1
EndSplineSet
Validated: 5
EndChar

StartChar: uni2116
Encoding: 8470 8470 168
Width: 1345
Flags: W
HStem: 0 99<574 1187.39> 218.051 91<885.902 1048.73> 647.992 91<885.902 1048.73> 711.008 20G<40 162.444 514 623>
VStem: 40 109<0 543.008> 514 109<188 731.008> 574 49<0 99> 715 99<385.238 572.226> 1126 99<386.971 570.505> 1209.01 96<121.622 230>
LayerCount: 2
Fore
SplineSet
814 479.05859375 m 0xe980
 814 377.860173364 873.370149326 309.05078125 966.16796875 309.05078125 c 0
 1063.03526357 309.05078125 1126 377.860173364 1126 479.05859375 c 0
 1126 579.987635597 1063.03526357 647.9921875 966.16796875 647.9921875 c 0
 873.370149326 647.9921875 814 579.987635597 814 479.05859375 c 0xe980
715 479.05859375 m 0
 715 628.936975286 812.419433594 738.9921875 965 738.9921875 c 0
 1123.68378906 738.9921875 1225 628.936975286 1225 479.05859375 c 0
 1225 327.337468026 1123.68378906 218.05078125 965 218.05078125 c 0
 812.419433594 218.05078125 715 327.337468026 715 479.05859375 c 0
40 0 m 1
 40 731.0078125 l 1
 149 731.0078125 l 1
 514 188 l 1
 514 731.0078125 l 1
 623 731.0078125 l 1xdd
 623 0 l 1xdb
 514 0 l 1xdd
 149 543.0078125 l 1
 149 0 l 1
 40 0 l 1
574 99 m 1xcb40
 1124.0078125 99 l 6
 1182.94140625 99 1209.0078125 125.572265625 1209.0078125 187 c 6
 1209.0078125 230 l 5
 1305.0078125 230 l 5
 1305.0078125 151 l 6
 1305.0078125 57.4287109375 1239.0078125 -1.22402088465e-14 1139.0078125 0 c 6
 574 0 l 1
 574 99 l 1xcb40
EndSplineSet
Validated: 5
EndChar

StartChar: uni2117
Encoding: 8471 8471 169
Width: 802
Flags: W
HStem: -10.0078 81<279.977 522.472> 296.756 62<283.25 474.278> 486.256 62<283.25 474.278> 658.008 81<279.977 522.472>
VStem: 25 79<247.287 482.064> 273.25 74.5<182.752 296.756 358.756 486.256> 283.25 64.5<296.756 358.756 486.256 548.256> 489.25 75<372.563 471.684> 698 79<247.287 482.064>
LayerCount: 2
Fore
SplineSet
564.25 422.255859375 m 4xfb80
 564.25 344.48671224 509.863479614 296.755859375 421.25 296.755859375 c 6
 283.25 296.755859375 l 5
 283.25 358.755859375 l 5
 405.75 358.755859375 l 6
 464.035925663 358.755859375 489.25 377.175292969 489.25 419.755859375 c 4
 489.25 466.17578125 464.035925663 486.255859375 405.75 486.255859375 c 6
 283.25 486.255859375 l 5
 283.25 548.255859375 l 5
 421.25 548.255859375 l 6
 509.863479614 548.255859375 564.25 500.335635025 564.25 422.255859375 c 4xfb80
273.25 182.751953125 m 5xfd80
 273.25 548.255859375 l 5xfd80
 347.75 548.255859375 l 5xfb80
 347.75 182.751953125 l 5
 273.25 182.751953125 l 5xfd80
104 366 m 0
 104 190.394584068 220.332734945 70.9921875 402.16796875 70.9921875 c 0
 581.459127423 70.9921875 698 190.394584068 698 366 c 0
 698 540.458669896 581.459127423 658.0078125 402.16796875 658.0078125 c 0
 220.332734945 658.0078125 104 540.458669896 104 366 c 0
25 364 m 0
 25 580.229802382 171.5193198 739.0078125 401 739.0078125 c 0
 630.4806802 739.0078125 777 580.229802382 777 364 c 0
 777 146.59355747 630.4806802 -10.0078125 401 -10.0078125 c 0
 171.5193198 -10.0078125 25 146.59355747 25 364 c 0
EndSplineSet
Validated: 5
EndChar

StartChar: dagger
Encoding: 8224 8224 170
Width: 568
Flags: W
HStem: 383.011 98<25 543> 731.002 20G<229.5 338.5>
VStem: 229.5 109<-178.994 751.002>
LayerCount: 2
Fore
SplineSet
229.5 -178.994140625 m 5
 229.5 751.001953125 l 5
 338.5 751.001953125 l 5
 338.5 -178.994140625 l 5
 229.5 -178.994140625 l 5
25 481.010742188 m 1
 543 481.010742188 l 1
 543 383.010742188 l 1
 25 383.010742188 l 1
 25 481.010742188 l 1
EndSplineSet
Validated: 5
EndChar

StartChar: daggerdbl
Encoding: 8225 8225 171
Width: 568
Flags: W
HStem: 103.011 98<25 543> 443.011 98<25 543> 731.002 20G<229.5 338.5>
VStem: 229.5 109<-178.994 751.002>
LayerCount: 2
Fore
SplineSet
25 201.010742188 m 1
 543 201.010742188 l 1
 543 103.010742188 l 1
 25 103.010742188 l 1
 25 201.010742188 l 1
229.5 -178.994140625 m 1
 229.5 751.001953125 l 1
 338.5 751.001953125 l 1
 338.5 -178.994140625 l 1
 229.5 -178.994140625 l 1
25 541.010742188 m 5
 543 541.010742188 l 5
 543 443.010742188 l 5
 25 443.010742188 l 5
 25 541.010742188 l 5
EndSplineSet
Validated: 5
EndChar

StartChar: bullet
Encoding: 8226 8226 172
Width: 271
Flags: W
HStem: 260 221.801<67.3775 204.423>
VStem: 25 221.801<302.459 439.342>
LayerCount: 2
Fore
SplineSet
25 370.900390625 m 0
 25 432.085709246 64.715072004 481.80078125 135.900390625 481.80078125 c 4
 207.085709246 481.80078125 246.80078125 432.085709246 246.80078125 370.900390625 c 4
 246.80078125 309.715072004 207.085709246 260 135.900390625 260 c 4
 64.715072004 260 25 309.715072004 25 370.900390625 c 0
EndSplineSet
Validated: 1
EndChar

StartChar: uni1E9E
Encoding: 7838 7838 173
Width: 677
Flags: W
HStem: 0 98<252 488.365> 639.008 92<229.045 480.619>
VStem: 40 109<0 561.526> 544 108<143.751 277.325>
LayerCount: 2
Fore
SplineSet
149 0 m 1
 40 0 l 1
 40 465.0078125 l 2
 40 625.248776355 135.460969837 731.0078125 291 731.0078125 c 2
 610 731.0078125 l 1
 610 677.0078125 l 1
 438.532226562 414 l 1
 438.532226562 414 652 402.235824808 652 206 c 0
 652 78.3458142785 560.134704163 -2.06779038336e-14 386 0 c 2
 252 0 l 1
 252 98 l 1
 369 98 l 2
 491.155573919 98 544 132.120991626 544 211 c 0
 544 289.180818257 488.739828726 323 361 323 c 2
 304 323 l 1
 304 381.0078125 l 1
 480.619140625 639.0078125 l 5
 337 639.0078125 l 2
 205.768129006 639.0078125 149 582.274479166 149 454.0078125 c 2
 149 0 l 1
EndSplineSet
EndChar

StartChar: emdash
Encoding: 8212 8212 175
Width: 768
Flags: W
HStem: 202 98<25 743>
LayerCount: 2
Fore
SplineSet
25 300 m 5
 743 300 l 5
 743 202 l 5
 25 202 l 5
 25 300 l 5
EndSplineSet
Validated: 1
EndChar

StartChar: endash
Encoding: 8211 8211 176
Width: 508
Flags: W
HStem: 202 98<25 483>
LayerCount: 2
Fore
SplineSet
25 300 m 1
 483 300 l 5
 483 202 l 5
 25 202 l 1
 25 300 l 1
EndSplineSet
Validated: 1
EndChar

StartChar: uni2031
Encoding: 8241 8241 183
Width: 1628
Flags: W
HStem: -10.0078 85<585.786 700.544 975.786 1090.54 1365.79 1480.54> 0 21G<142 255.667> 265.934 85<585 701.31 975 1091.31 1365 1481.31> 378.051 85<147.786 262.544> 653.992 85<147 263.31> 711.008 20G<592.333 706>
VStem: 25 93<493.793 623.635> 292 93<493.793 623.635> 463 93<105.735 235.576> 730 93<105.735 235.576> 853 93<105.735 235.576> 1120 93<105.735 235.576> 1243 93<105.735 235.576> 1510 93<105.735 235.576>
LayerCount: 2
Fore
SplineSet
1336 171 m 0xb3fc
 1336 113.850751482 1370.39933369 74.9921875 1424.16796875 74.9921875 c 0
 1476.18709888 74.9921875 1510 113.850751482 1510 171 c 0
 1510 227.717640219 1476.18709888 265.93359375 1424.16796875 265.93359375 c 0
 1370.39933369 265.93359375 1336 227.717640219 1336 171 c 0xb3fc
1243 171 m 0
 1243 274.75 1313.14257812 350.93359375 1423 350.93359375 c 0
 1532.85742188 350.93359375 1603 274.75 1603 171 c 0
 1603 65.7822265625 1532.85742188 -10.0078125 1423 -10.0078125 c 0
 1313.14257812 -10.0078125 1243 65.7822265625 1243 171 c 0
946 171 m 0
 946 113.850751482 980.399333686 74.9921875 1034.16796875 74.9921875 c 0
 1086.18709888 74.9921875 1120 113.850751482 1120 171 c 0
 1120 227.717640219 1086.18709888 265.93359375 1034.16796875 265.93359375 c 0
 980.399333686 265.93359375 946 227.717640219 946 171 c 0
853 171 m 0
 853 274.75 923.142578125 350.93359375 1033 350.93359375 c 0
 1142.85742188 350.93359375 1213 274.75 1213 171 c 0
 1213 65.7822265625 1142.85742188 -10.0078125 1033 -10.0078125 c 0
 923.142578125 -10.0078125 853 65.7822265625 853 171 c 0
118 559.05859375 m 0
 118 501.909345232 152.399333686 463.05078125 206.16796875 463.05078125 c 0
 258.187098878 463.05078125 292 501.909345232 292 559.05859375 c 0
 292 615.776233969 258.187098878 653.9921875 206.16796875 653.9921875 c 0x3bfc
 152.399333686 653.9921875 118 615.776233969 118 559.05859375 c 0
25 559.05859375 m 0
 25 662.80859375 95.142578125 738.9921875 205 738.9921875 c 0
 314.857421875 738.9921875 385 662.80859375 385 559.05859375 c 0
 385 453.840820312 314.857421875 378.05078125 205 378.05078125 c 0
 95.142578125 378.05078125 25 453.840820312 25 559.05859375 c 0
556 171 m 0
 556 113.850751482 590.399333686 74.9921875 644.16796875 74.9921875 c 0xb3fc
 696.187098878 74.9921875 730 113.850751482 730 171 c 0
 730 227.717640219 696.187098878 265.93359375 644.16796875 265.93359375 c 0
 590.399333686 265.93359375 556 227.717640219 556 171 c 0
463 171 m 0
 463 274.75 533.142578125 350.93359375 643 350.93359375 c 0
 752.857421875 350.93359375 823 274.75 823 171 c 0
 823 65.7822265625 752.857421875 -10.0078125 643 -10.0078125 c 0
 533.142578125 -10.0078125 463 65.7822265625 463 171 c 0
EndSplineSet
Refer: 162 8260 N 1 0 0 1 278.5 0 2
EndChar

StartChar: uni2052
Encoding: 8274 8274 184
Width: 595
Flags: W
HStem: -10 161.801<435.523 544.278> 0 21G<15.5 129.167> 577 161.801<51.5232 160.278> 711.008 20G<465.833 579.5>
VStem: 25 161.801<603.523 712.278> 409 161.801<16.5232 125.278>
LayerCount: 2
Fore
SplineSet
409 70.900390625 m 0x8c
 409 115.534179688 445.266601562 151.80078125 489.900390625 151.80078125 c 0
 534.534179688 151.80078125 570.80078125 115.534179688 570.80078125 70.900390625 c 0
 570.80078125 26.2666015625 534.534179688 -10 489.900390625 -10 c 0
 445.266601562 -10 409 26.2666015625 409 70.900390625 c 0x8c
25 657.900390625 m 0
 25 702.534179688 61.2666015625 738.80078125 105.900390625 738.80078125 c 0
 150.534179688 738.80078125 186.80078125 702.534179688 186.80078125 657.900390625 c 0
 186.80078125 613.266601562 150.534179688 577 105.900390625 577 c 0x2c
 61.2666015625 577 25 613.266601562 25 657.900390625 c 0
EndSplineSet
Refer: 162 8260 N 1 0 0 1 152 0 2
EndChar

StartChar: minute
Encoding: 8242 8242 185
Width: 235
Flags: W
HStem: 506 225.008
VStem: 10 215
LayerCount: 2
Fore
SplineSet
10 506 m 1
 120 731.0078125 l 1
 225 731.0078125 l 1
 95 506 l 5
 10 506 l 1
EndSplineSet
Validated: 1
EndChar

StartChar: uni20B5
Encoding: 8373 8373 188
Width: 586
Flags: W
HStem: 0 98<291.174 559> 633.008 98<277.18 561.318>
VStem: 25 109<247.863 489.242> 311 89<-90 821.008>
LayerCount: 2
Fore
SplineSet
311 -90 m 5
 311 821.0078125 l 5
 400 821.0078125 l 5
 400 -90 l 5
 311 -90 l 5
EndSplineSet
Refer: 14 67 N 1 0 0 1 0 0 2
Validated: 5
EndChar

StartChar: uni20B2
Encoding: 8370 8370 189
Width: 697
Flags: W
HStem: -10 98<268.961 491.1> 317 94<354 578> 633.008 98<291.174 609>
VStem: 25 109<231.169 476.305> 341 89<-90 821.008> 578 104<173.95 317>
LayerCount: 2
Fore
SplineSet
341 -90 m 5
 341 821.0078125 l 5
 430 821.0078125 l 5
 430 -90 l 5
 341 -90 l 5
EndSplineSet
Refer: 15 71 N 1 0 0 1 0 0 2
EndChar

StartChar: uni20BA
Encoding: 8378 8378 190
Width: 593
Flags: W
HStem: 0 98<215 410.609> 711.008 20G<106 215>
VStem: 106 109<98 731.008> 480 98<170.079 300>
LayerCount: 2
Fore
SplineSet
25 280 m 1
 363 400 l 1
 363 312 l 1
 25 192 l 1
 25 280 l 1
25 430 m 5
 363 550 l 5
 363 462 l 5
 25 342 l 5
 25 430 l 5
106 0 m 1
 106 731.0078125 l 1
 215 731.0078125 l 1
 215 98 l 1
 305 98 l 2
 427.155924478 98 480 151.748126056 480 276 c 2
 480 300 l 1
 578 300 l 1
 578 251 l 2
 578 95.4606385522 476.834116995 -2.01921812604e-14 312 0 c 2
 106 0 l 1
EndSplineSet
Validated: 5
EndChar

StartChar: uni20BF
Encoding: 8383 8383 191
Width: 607
Flags: W
HStem: -90 152<151 240 331 420> 0 98<149 423.287> 323 98.0078<232 411.404> 633.008 98<149 409.76> 683 138.008<151 240 331 420>
VStem: 40 109<98 633.008> 151 89<-90 62 683 821.008> 331 89<-90 62 683 821.008> 454 108<460.475 595.111> 474 108<143.751 278.368>
LayerCount: 2
Fore
SplineSet
331 683 m 1x2f
 331 821.0078125 l 1
 420 821.0078125 l 1
 420 683 l 1
 331 683 l 1x2f
151 683 m 1
 151 821.0078125 l 1
 240 821.0078125 l 1
 240 683 l 1
 151 683 l 1
331 62 m 1xa7
 420 62 l 1
 420 -90 l 1
 331 -90 l 1
 331 62 l 1xa7
151 62 m 1
 240 62 l 1
 240 -90 l 1
 151 -90 l 1
 151 62 l 1
EndSplineSet
Refer: 26 66 N 1 0 0 1 0 0 2
Validated: 5
EndChar

StartChar: uni20B8
Encoding: 8376 8376 192
Width: 581
Flags: W
HStem: 0 21G<236.004 345.004> 452.008 99<25 236.004 345.004 556.008> 452.008 39<236.004 345.004> 632.008 99<25 556.008>
VStem: 236.004 109<0 491.008>
LayerCount: 2
Fore
SplineSet
556.0078125 452.0078125 m 5xd8
 25 452.0078125 l 5
 25 551.0078125 l 5
 556.0078125 551.0078125 l 5
 556.0078125 452.0078125 l 5xd8
556.0078125 632.0078125 m 1
 25 632.0078125 l 1
 25 731.0078125 l 1
 556.0078125 731.0078125 l 1
 556.0078125 632.0078125 l 1
236.00390625 0 m 1
 236.00390625 491.0078125 l 5
 345.00390625 491.0078125 l 5xb8
 345.00390625 0 l 1
 236.00390625 0 l 1
EndSplineSet
Validated: 5
EndChar

StartChar: uni20B3
Encoding: 8371 8371 193
Width: 802
Flags: W
HStem: 0 21G<130 239 564 672> 211 88<25 777> 401 88<25 777> 633.008 98<150 485.187>
VStem: 130 109<0 633.008> 150 89<633.008 731.008> 564 108<0.0078125 559.588>
LayerCount: 2
Fore
SplineSet
25 299 m 1xf2
 147 299 l 1
 177 299 l 1
 626 299 l 1
 656 299 l 1
 777 299 l 5
 777 211 l 5
 656 211 l 1
 626 211 l 1
 177 211 l 1
 147 211 l 1
 25 211 l 1
 25 299 l 1xf2
25 489 m 1
 147 489 l 1
 177 489 l 1
 626 489 l 1
 656 489 l 1
 777 489 l 5
 777 401 l 5
 656 401 l 1
 626 401 l 1
 177 401 l 1
 147 401 l 1
 25 401 l 1
 25 489 l 1
130 0 m 1xfa
 130 731.0078125 l 1xfa
 239 731.0078125 l 1xf6
 239 0 l 1
 130 0 l 1xfa
150 633.0078125 m 1xf6
 150 731.0078125 l 1
 386 731.0078125 l 2
 563.227539062 731.0078125 672 646.380859375 672 470.0078125 c 2
 672 0.0078125 l 1
 564 0.0078125 l 1
 564 442.0078125 l 2
 564 590.344726562 504.2109375 633.0078125 366 633.0078125 c 2
 150 633.0078125 l 1xf6
EndSplineSet
Validated: 5
EndChar

StartChar: uni20AE
Encoding: 8366 8366 194
Width: 581
Flags: W
HStem: 0 21G<236.004 345.004> 632.008 39<236.004 345.004> 632.008 99<25 236.004 345.004 556.008>
VStem: 236.004 109<0 671.008>
LayerCount: 2
Fore
SplineSet
125.5 250 m 5x90
 463.5 370 l 5
 463.5 282 l 5
 125.5 162 l 5
 125.5 250 l 5x90
125.5 400 m 5
 463.5 520 l 5
 463.5 432 l 5
 125.5 312 l 5
 125.5 400 l 5
EndSplineSet
Refer: 11 84 N 1 0 0 1 0 0 2
Validated: 5
EndChar

StartChar: uni20A6
Encoding: 8358 8358 195
Width: 842
Flags: W
HStem: 0 21G<129.5 238.5 590.056 712.5> 261 88<25 817> 451 88<25 817> 711.008 20G<129.5 251.944 603.5 712.5>
VStem: 129.5 109<0 543.008> 603.5 109<188 731.008>
LayerCount: 2
Fore
SplineSet
25 349 m 1
 167 349 l 1
 197 349 l 1
 646 349 l 1
 676 349 l 1
 817 349 l 5
 817 261 l 5
 676 261 l 1
 646 261 l 1
 197 261 l 1
 167 261 l 1
 25 261 l 1
 25 349 l 1
25 539 m 1
 167 539 l 1
 197 539 l 1
 646 539 l 1
 676 539 l 1
 817 539 l 5
 817 451 l 5
 676 451 l 1
 646 451 l 1
 197 451 l 1
 167 451 l 1
 25 451 l 1
 25 539 l 1
EndSplineSet
Refer: 5 78 N 1 0 0 1 89.5 0 2
Validated: 5
EndChar

StartChar: Lslash
Encoding: 321 321 196
Width: 608
Flags: W
HStem: 0 98<219 475.4> 711.008 20G<110 219>
VStem: 110 109<98 731.008> 494 98<113.728 220>
LayerCount: 2
Fore
SplineSet
15 350 m 5
 353 500 l 5
 353 402 l 5
 15 252 l 5
 15 350 l 5
EndSplineSet
Refer: 4 76 S 1 0 0 1 70 0 2
Validated: 5
EndChar

StartChar: lslash
Encoding: 322 322 197
Width: 317
Flags: W
HStem: 0 88<203.622 302> 731.008 20G<82 181>
VStem: 82 99<109.539 751.008>
LayerCount: 2
Fore
SplineSet
15 410 m 5
 283 520 l 5
 283 432 l 5
 15 322 l 5
 15 410 l 5
EndSplineSet
Refer: 42 108 N 1 0 0 1 42 0 2
Validated: 5
EndChar

StartChar: uni2011
Encoding: 8209 8209 198
Width: 338
Flags: W
HStem: 202 98<25 313>
VStem: 25 288<202 300>
LayerCount: 2
Fore
SplineSet
25 300 m 5
 313 300 l 5
 313 202 l 5
 25 202 l 5
 25 300 l 5
EndSplineSet
Validated: 1
EndChar

StartChar: colonmonetary
Encoding: 8353 8353 199
Width: 586
Flags: W
HStem: 0 98<291.174 559> 633.008 98<277.18 561.318>
VStem: 25 109<247.863 489.242>
LayerCount: 2
Fore
SplineSet
271 -90 m 1
 441 821.0078125 l 5
 528 821.0078125 l 5
 358 -90 l 1
 271 -90 l 1
111 -90 m 1
 281 821.0078125 l 5
 368 821.0078125 l 5
 198 -90 l 1
 111 -90 l 1
EndSplineSet
Refer: 14 67 N 1 0 0 1 0 0 2
Validated: 5
EndChar

StartChar: uni20B1
Encoding: 8369 8369 200
Width: 731
Flags: W
HStem: 0 21G<101 210> 250.008 98<121 461.324> 391 78<25 147 585 706> 401 68<177 555> 511 78<25 147 585 706> 511 68<177 555> 633.008 98<121 461.324>
VStem: 101 109<0 250.008 348.008 391 401 579 589 633.008> 121 89<250.008 348.008 633.008 731.008>
LayerCount: 2
Fore
SplineSet
638 495.0078125 m 0xc280
 638 343.186523438 540.263671875 250.0078125 355 250.0078125 c 6
 121 250.0078125 l 1
 121 348.0078125 l 1
 338 348.0078125 l 2
 472.022460938 348.0078125 530 390.885742188 530 490.0078125 c 0
 530 589.828125 472.022460938 633.0078125 338 633.0078125 c 2
 121 633.0078125 l 1
 121 731.0078125 l 1
 355 731.0078125 l 2
 540.263671875 731.0078125 638 641.251953125 638 495.0078125 c 0xc280
101 0 m 1xc3
 101 731.0078125 l 1xc3
 210 731.0078125 l 1xc280
 210 0 l 1
 101 0 l 1xc3
25 469 m 5xe2
 147 469 l 5xe2
 177 469 l 5
 555 469 l 5xd2
 585 469 l 5
 706 469 l 5
 706 391 l 5
 585 391 l 5xe2
 555 401 l 5
 177 401 l 5xd2
 147 391 l 5
 25 391 l 5
 25 469 l 5xe2
25 589 m 5xca
 147 589 l 5xca
 177 579 l 5
 555 579 l 5xc6
 585 589 l 5
 706 589 l 5
 706 511 l 5
 585 511 l 5xca
 555 511 l 5
 177 511 l 5xc6
 147 511 l 5
 25 511 l 5
 25 589 l 5xca
EndSplineSet
Validated: 5
EndChar

StartChar: uni20B9
Encoding: 8377 8377 201
Width: 528
Flags: W
HStem: 0 94<341.348 453> 280.008 98<25 270.931> 280.008 80.9922<85 195> 460.008 85<25 503> 633.008 98<25 503> 633.008 78<25 334.637>
VStem: 324 108<425.479 582.144>
LayerCount: 2
Fore
SplineSet
25 545.0078125 m 5x92
 503 545.0078125 l 5
 503 460.0078125 l 1
 25 460.0078125 l 1
 25 545.0078125 l 5x92
25 731.0078125 m 1x9a
 503 731.0078125 l 1
 503 633.0078125 l 1
 25 633.0078125 l 1
 25 731.0078125 l 1x9a
275 0 m 1
 85 361 l 1
 195 361 l 1xb2
 341.34765625 94 l 1
 453 94 l 1
 453 0 l 1
 275 0 l 1
432 505.0078125 m 0
 432 365.581054688 334.63671875 280.0078125 176 280.0078125 c 2
 25 280.0078125 l 1
 25 378.0078125 l 1
 159 378.0078125 l 2
 274.17578125 378.0078125 324 414.846679688 324 500.0078125 c 0
 324 592.84765625 274.17578125 633.0078125 159 633.0078125 c 2
 25 633.0078125 l 1xda
 25 711.0078125 l 1
 176 711.0078125 l 2x96
 334.63671875 711.0078125 432 632.66204888 432 505.0078125 c 0
EndSplineSet
Validated: 5
EndChar

StartChar: uni2113
Encoding: 8467 8467 202
Width: 520
Flags: W
HStem: -0.0078125 88<272.039 448> 253.926 88<15 280.452> 669.934 91<236.878 353.694>
VStem: 95 99<168.825 619.857> 397 98<433.947 622.199>
LayerCount: 2
Fore
SplineSet
495 524.93359375 m 0
 495 346.75 365.309570312 253.92578125 154 253.92578125 c 2
 15 253.92578125 l 1
 15 341.92578125 l 1
 118 341.92578125 l 2
 312.753532247 341.92578125 397 395.026367188 397 527.93359375 c 4
 397 611.638671875 361.671140927 669.93359375 293.16796875 669.93359375 c 0
 232.69140625 669.93359375 194 611.9921875 194 526 c 2
 194 276 l 2
 194 158.966796875 243.72265625 87.9921875 366.16796875 87.9921875 c 2
 448 87.9921875 l 1
 448 -0.0078125 l 1
 365 -0.0078125 l 2
 181.759765625 -0.0078125 95 108.90234375 95 276 c 2
 95 526 l 2
 95 661.462890625 172.521484375 760.93359375 296 760.93359375 c 0
 428.633789062 760.93359375 495 653.71875 495 524.93359375 c 0
EndSplineSet
Validated: 5
EndChar

StartChar: uni20BD
Encoding: 8381 8381 203
Width: 642
Flags: W
HStem: 0 21G<120 229> 132 88<25 403> 280.008 98<25 447.376> 633.008 98<140 442.907>
VStem: 120 109<0 633.008> 140 89<633.008 731.008> 509 108<430.659 577.726>
LayerCount: 2
Fore
SplineSet
25 220 m 5xf2
 403 220 l 5
 403 132 l 5
 25 132 l 5
 25 220 l 5xf2
617 505.0078125 m 0
 617 365.580098055 519.263671875 280.0078125 334 280.0078125 c 2
 25 280.0078125 l 1
 25 378.0078125 l 1
 317 378.0078125 l 2
 451.022460938 378.0078125 509 414.846597161 509 500.0078125 c 0
 509 592.847683566 451.022460938 633.0078125 317 633.0078125 c 2
 140 633.0078125 l 1
 140 731.0078125 l 1xf6
 334 731.0078125 l 2
 519.263671875 731.0078125 617 645.055167505 617 505.0078125 c 0
120 0 m 1xfa
 120 731.0078125 l 1xfa
 229 731.0078125 l 1xf6
 229 0 l 1
 120 0 l 1xfa
EndSplineSet
Validated: 5
EndChar

StartChar: dong
Encoding: 8363 8363 204
Width: 503
Flags: W
HStem: 0 98<25 443> 170 91<159.831 420> 460.008 91<159.801 390> 606 78<220 478> 731.008 20G<322 420>
VStem: 25 99<297.519 423.86> 322 98<170 460.008 551.008 751.008> 322 68<460.008 551.008>
LayerCount: 2
Fore
SplineSet
25 98 m 1xfc
 443 98 l 1
 443 0 l 1
 25 0 l 1
 25 98 l 1xfc
220 684 m 5
 478 684 l 5
 478 606 l 5
 220 606 l 5
 220 684 l 5
420 170 m 5xfe
 322 170 l 5
 322 751.0078125 l 1
 420 751.0078125 l 1
 420 170 l 5xfe
230 551.0078125 m 6
 390 551.0078125 l 5
 390 460.0078125 l 5xfd
 228.83203125 460.0078125 l 6
 165.280157468 460.0078125 124 420.122281009 124 361 c 4
 124 301.471216487 165.242426618 261 228.513671875 261 c 6
 420 261 l 5
 420 170 l 5
 230 170 l 6
 105.36 170 25 249.970296235 25 361 c 4
 25 470.524776182 104.54 551.0078125 230 551.0078125 c 6
EndSplineSet
Validated: 5
EndChar

StartChar: peseta
Encoding: 8359 8359 205
Width: 731
Flags: W
HStem: 0 21G<101 210> 250.008 98<121 461.324> 440 83<25 706> 633.008 98<121 461.324>
VStem: 101 109<0 250.008 348.008 633.008> 121 89<250.008 348.008 633.008 731.008> 530 108<375.185 572.254>
LayerCount: 2
Fore
SplineSet
638 495.0078125 m 0xf6
 638 343.186523438 540.263671875 250.0078125 355 250.0078125 c 2
 121 250.0078125 l 1
 121 348.0078125 l 1
 338 348.0078125 l 2
 472.022460938 348.0078125 530 390.885742188 530 490.0078125 c 0
 530 589.828125 472.022460938 633.0078125 338 633.0078125 c 2
 121 633.0078125 l 1
 121 731.0078125 l 1
 355 731.0078125 l 2
 540.263671875 731.0078125 638 641.251953125 638 495.0078125 c 0xf6
101 0 m 1xfa
 101 731.0078125 l 1xfa
 210 731.0078125 l 1xf6
 210 0 l 1
 101 0 l 1xfa
25 523 m 5
 706 523 l 5
 706 440 l 5
 25 440 l 5
 25 523 l 5
EndSplineSet
Validated: 5
EndChar

StartChar: uni20AD
Encoding: 8365 8365 206
Width: 748
Flags: W
HStem: 0 94<576.348 688> 315.008 88<25 723> 315.008 60.9922<356 430> 711.008 20G<130 239 544 652>
VStem: 130 109<0 731.008> 544 108<508.353 731.008>
LayerCount: 2
Fore
SplineSet
435 403.0078125 m 5xdc
 723 403.0078125 l 5
 723 315.0078125 l 5
 435 315.0078125 l 5
 435 403.0078125 l 5xdc
25 403.0078125 m 1
 339 403.0078125 l 6
 482.096940104 403.0078125 544 473.363505596 544 636.0078125 c 6
 544 731.0078125 l 5
 652 731.0078125 l 5
 652 611.0078125 l 6
 652 427.582908163 539.424430941 315.0078125 356 315.0078125 c 6
 25 315.0078125 l 1
 25 403.0078125 l 1
130 0 m 1
 130 731.0078125 l 1
 239 731.0078125 l 1
 239 0 l 1
 130 0 l 1
510 0 m 5
 320 376 l 5
 430 376 l 5xbc
 576.34765625 94 l 5
 688 94 l 5
 688 0 l 5
 510 0 l 5
EndSplineSet
EndChar

StartChar: estimated
Encoding: 8494 8494 207
Width: 700
Flags: W
HStem: -0.0078125 98<285.895 618> 639.934 101<264.338 456.654>
VStem: 25 160<144.416 582.188> 119 66<144 247.153 366 612> 119 15<292.741 529.66> 517 76<406.934 632> 567 26<394 442.903>
LayerCount: 2
Fore
SplineSet
517 632 m 5xc4
 593 632 l 1xc4
 593 394 l 1xc2
 517 394 l 5
 517 632 l 5xc4
119 612 m 1xd0
 185 612 l 1
 185 144 l 1
 119 144 l 1
 119 612 l 1xd0
86.6953125 333.283203125 m 1
 639.5 461.063476562 l 1
 675 374.93359375 l 1
 122.1953125 247.153320312 l 1
 86.6953125 333.283203125 l 1
354 740.93359375 m 0
 567.928710938 740.93359375 675 587.856343521 675 403.93359375 c 2
 675 374.93359375 l 1
 567 374.93359375 l 1
 567 406.93359375 l 2
 567 537.717773438 509.684570312 639.93359375 355.16796875 639.93359375 c 0
 220.291015625 639.93359375 134 529.660313522 134 366 c 0xca
 134 199.166992188 235.650390625 97.9921875 396.16796875 97.9921875 c 2
 618 97.9921875 l 1
 618 -0.0078125 l 1
 395 -0.0078125 l 2
 168.559570312 -0.0078125 25 144.416015625 25 366 c 0xe0
 25 582.1875 151.887695312 740.93359375 354 740.93359375 c 0
EndSplineSet
Validated: 5
EndChar

StartChar: Delta
Encoding: 8710 8710 208
Width: 699
Flags: W
HStem: 0 101<154 545> 711.008 20G<286.88 402.421>
LayerCount: 2
Fore
SplineSet
674 0 m 1
 25 0 l 1
 25 66 l 1
 295 731.0078125 l 1
 394 731.0078125 l 1
 674 66 l 1
 674 0 l 1
545 101 m 1
 345.393554688 595.313476562 l 5
 154 101 l 1
 545 101 l 1
EndSplineSet
Validated: 1
EndChar

StartChar: uni20BC
Encoding: 8380 8380 209
Width: 804
Flags: W
HStem: -0.0078125 21G<40 149 347.5 456.5 655.336 764.336> 513.008 98<277.861 526.586> 711.008 20G<347.5 456.5>
VStem: 40 109<-0.0078125 369.29> 347.5 109<0 731.008> 655.336 109<-0.0078125 369.29>
LayerCount: 2
Fore
SplineSet
655.3359375 212 m 2
 655.3359375 391.17709691 607.134882974 513.0078125 402.16796875 513.0078125 c 4
 197.201054526 513.0078125 149 391.17709691 149 212 c 2
 149 -0.0078125 l 1
 40 -0.0078125 l 1
 40 222 l 2
 40 448.125973078 135.598325136 611.0078125 402.3359375 611.0078125 c 4
 668.826545878 611.0078125 764.3359375 448.125973078 764.3359375 222 c 2
 764.3359375 -0.0078125 l 1
 655.3359375 -0.0078125 l 1
 655.3359375 212 l 2
347.5 0 m 1
 347.5 731.0078125 l 1
 456.5 731.0078125 l 1
 456.5 0 l 1
 347.5 0 l 1
EndSplineSet
EndChar

StartChar: uni20B4
Encoding: 8372 8372 210
Width: 690
Flags: W
HStem: 0 98<229.777 583> 261 88<25 665> 401 88<25 665> 633 98<118 449.661>
VStem: 75 108<139.896 260.282> 487 108<490.906 599.32>
LayerCount: 2
Fore
SplineSet
25 349 m 1
 665 349 l 1
 665 261 l 1
 25 261 l 1
 25 349 l 1
25 489 m 1
 665 489 l 1
 665 401 l 1
 25 401 l 1
 25 489 l 1
595 536 m 0
 595 406.487304688 526.502929688 352.1015625 338 327 c 0
 229.818359375 312.59375 183 291.671875 183 210 c 0
 183 131.819335938 229.8046875 98 338 98 c 2
 583 98 l 1
 583 0 l 1
 321 0 l 2
 168.559570312 0 75 78.3466796875 75 206 c 0
 75 345.428710938 146.754882812 397.946289062 356 431 c 4
 446.579101562 445.30859375 487 469.471679688 487 535 c 0
 487 603.408203125 444.724609375 633 347 633 c 2
 118 633 l 1
 118 731 l 1
 364 731 l 2
 507.14453125 731 595 656.837890625 595 536 c 0
EndSplineSet
Validated: 5
EndChar

StartChar: uni20A9
Encoding: 8361 8361 211
Width: 1042
Flags: W
HStem: 0 98<140 462 506 656.787> 40 58<462 571> 261 88<25 1017> 451 88<25 1017> 711.008 20G<120 229 462 571 824 932>
VStem: 120 109<98 731.008> 140 89<0 98> 462 109<40 731.008> 824 108<285.47 731>
LayerCount: 2
Fore
SplineSet
25 349 m 1x3980
 157 349 l 1
 187 349 l 1
 856 349 l 1
 886 349 l 1
 1017 349 l 5
 1017 261 l 5
 886 261 l 1
 856 261 l 1
 187 261 l 1
 157 261 l 1
 25 261 l 1
 25 349 l 1x3980
25 539 m 1
 157 539 l 1
 187 539 l 1
 856 539 l 1
 886 539 l 1
 1017 539 l 5
 1017 451 l 5
 886 451 l 1
 856 451 l 1
 187 451 l 1
 157 451 l 1
 25 451 l 1
 25 539 l 1
EndSplineSet
Refer: 30 87 N 1 0 0 1 80 0 2
Validated: 5
EndChar

StartChar: uni20BE
Encoding: 8382 8382 212
Width: 758
Flags: W
HStem: 0 98<25 164.131 318.968 733> 641.008 98<370.73 420.28>
VStem: 49 109<267.208 510.951> 277 89<433 821.008> 427 89<433 821.008> 611 104<360.008 543.964>
LayerCount: 2
Fore
SplineSet
427 433 m 1
 427 821.0078125 l 1
 516 821.0078125 l 1
 516 433 l 1
 427 433 l 1
277 433 m 1
 277 821.0078125 l 1
 366 821.0078125 l 1
 366 433 l 1
 277 433 l 1
25 0 m 1
 25 98 l 1
 164.130859375 98 l 5
 164.130859375 98 49 192.377016953 49 394 c 0
 49 601.290511117 183.212965084 739.0078125 410 739.0078125 c 0
 599.000925164 739.0078125 715 621.1073882 715 429.0078125 c 2
 715 360.0078125 l 1
 611 360.0078125 l 1
 611 422.0078125 l 2
 611 574.878788474 549.103264548 641.0078125 408.83203125 641.0078125 c 0
 250.22777092 641.0078125 158 550.921875 158 396 c 0
 158 211.203125 263.041015625 98 434.513671875 98 c 2
 733 98 l 1
 733 0 l 1
 25 0 l 1
EndSplineSet
Validated: 5
EndChar

StartChar: Omega
Encoding: 8486 8486 213
Width: 852
Flags: W
HStem: 0 98<25 174.227 677.773 827> 0 78<331.608 383 469 520.392> 638.006 101.002<322.538 529.462>
VStem: 70 109<243.342 484.993> 673 109<243.342 484.993>
LayerCount: 2
Fore
SplineSet
426 638.005859375 m 0x78
 275.327148438 637.443359375 179 528.091796875 179 366 c 0
 179 204.56640625 269.107462146 110.239257812 383 78 c 1
 383 0 l 1x78
 25 0 l 1
 25 98 l 1
 174.2265625 98 l 1
 174.2265625 98 70 197.105263158 70 367 c 0
 70 581.499692287 208.725585938 739.0078125 426 739.0078125 c 0
 643.274414062 739.0078125 782 581.499692287 782 367 c 0
 782 197.105263158 677.7734375 98 677.7734375 98 c 1
 827 98 l 1
 827 0 l 1xb8
 469 0 l 1
 469 78 l 1
 582.892537854 110.239257812 673 204.56640625 673 366 c 0
 673 528.091796875 576.672851562 637.443359375 426 638.005859375 c 0x78
EndSplineSet
Validated: 1
EndChar

StartChar: partialdiff
Encoding: 8706 8706 214
Width: 568
Flags: W
HStem: -10.0078 100.13<190.184 344.111> 392.878 91.1299<204.833 362.655> 633.008 98<146.682 310.702>
VStem: 25 108.06<147.322 315.335> 418.94 124.06<181.926 419.307>
LayerCount: 2
Fore
SplineSet
429.186523438 424.075195312 m 5
 411.320754268 571.429776942 328.011332424 633.0078125 203.16796875 633.0078125 c 6
 146.681640625 633.0078125 l 5
 146.681640625 731.0078125 l 5
 222.681640625 731.0078125 l 6
 423.463599686 731.0078125 543 574.528951573 543 339 c 4
 543 114.582597452 440.853771348 -10.0078125 254 -10.0078125 c 0
 114.236500623 -10.0078125 25 85.8803908282 25 219 c 0
 25 371.80371506 125.845755022 484.0078125 267 484.0078125 c 0
 388.943833225 484.0078125 429.186523438 424.075195312 429.186523438 424.075195312 c 5
418.940429688 258.030273438 m 4
 418.940429688 338.594360221 366.607768392 392.877929688 284.80859375 392.877929688 c 0
 192.839992092 392.877929688 133.059570312 324.504942696 133.059570312 223.030273438 c 0
 133.059570312 143.915757477 184.96113786 90.1220703125 264.80859375 90.1220703125 c 0
 358.804600571 90.1220703125 418.940429688 158.081768351 418.940429688 258.030273438 c 4
EndSplineSet
EndChar

StartChar: product
Encoding: 8719 8719 215
Width: 683
Flags: W
HStem: 632.992 98.0156<149 534>
VStem: 40 109<-178.994 632.992> 534 109<-178.994 632.992>
LayerCount: 2
Fore
SplineSet
40 -178.994140625 m 1
 40 731.0078125 l 1
 643 731.0078125 l 5
 643 -178.994140625 l 5
 534 -178.994140625 l 5
 534 632.9921875 l 5
 149 632.9921875 l 1
 149 -178.994140625 l 1
 40 -178.994140625 l 1
EndSplineSet
Validated: 1
EndChar

StartChar: minus
Encoding: 8722 8722 216
Width: 500
Flags: W
HStem: 312 98<25 475>
LayerCount: 2
Fore
SplineSet
25 410 m 5
 475 410 l 5
 475 312 l 5
 25 312 l 5
 25 410 l 5
EndSplineSet
Validated: 1
EndChar

StartChar: emptyset
Encoding: 8709 8709 218
Width: 762
Flags: W
HStem: -10.0078 91<275.201 487.277> 648.008 91<275.201 487.277>
VStem: 25 96<246.099 487.667> 641 96<246.099 487.667>
LayerCount: 2
Fore
SplineSet
121 366 m 0
 121 196.347239419 222.897274298 80.9921875 382.16796875 80.9921875 c 0
 539.034994061 80.9921875 641 196.347239419 641 366 c 4
 641 534.48421776 539.034994061 648.0078125 382.16796875 648.0078125 c 0
 222.897274298 648.0078125 121 534.48421776 121 366 c 0
25 364 m 0
 25 580.229492188 163.725585938 739.0078125 381 739.0078125 c 0
 598.274414062 739.0078125 737 580.229492188 737 364 c 0
 737 146.59375 598.274414062 -10.0078125 381 -10.0078125 c 0
 163.725585938 -10.0078125 25 146.59375 25 364 c 0
83.28125 17.9013671875 m 1
 605.814453125 764.154296875 l 1
 678.71875 713.106445312 l 1
 156.185546875 -33.146484375 l 1
 83.28125 17.9013671875 l 1
EndSplineSet
Validated: 5
EndChar

StartChar: summation
Encoding: 8721 8721 219
Width: 578
Flags: W
HStem: -179 98<192 553> 633.008 98<192 553>
LayerCount: 2
Back
SplineSet
40 731.0078125 m 5
 503 731.0078125 l 5
 503 633.0078125 l 5
 192 633.0078125 l 5
 379 386 l 5
 379 332 l 5
 192 98 l 5
 503 98 l 5
 503 0 l 5
 40 0 l 5
 40 63 l 5
 270 360 l 5
 40 668 l 5
 40 731.0078125 l 5
EndSplineSet
Fore
SplineSet
40 731.0078125 m 1
 553 731.0078125 l 1
 553 633.0078125 l 1
 192 633.0078125 l 1
 409 302 l 5
 409 248 l 5
 192 -81 l 1
 553 -81 l 1
 553 -179 l 1
 40 -179 l 1
 40 -116 l 1
 300 276 l 5
 40 668 l 1
 40 731.0078125 l 1
EndSplineSet
Validated: 1
EndChar

StartChar: integral
Encoding: 8747 8747 220
Width: 431
Flags: W
HStem: -179 88<10 108.007> 668.008 83<322.971 421>
LayerCount: 2
Fore
SplineSet
300 588.0078125 m 2
 230 -13 l 2
 218.393554688 -112.6484375 172.571289062 -179 79 -179 c 2
 10 -179 l 1
 10 -91 l 1
 43 -91 l 2
 104.427734375 -91 124.11328125 -65.130859375 131 -6 c 2
 201 595.0078125 l 2
 211.9140625 688.712890625 258.428710938 751.0078125 352 751.0078125 c 2
 421 751.0078125 l 1
 421 668.0078125 l 1
 388 668.0078125 l 2
 326.572265625 668.0078125 306.48828125 643.71875 300 588.0078125 c 2
EndSplineSet
Validated: 1
EndChar

StartChar: radical
Encoding: 8730 8730 222
Width: 705
Flags: W
HStem: 0 21G<319.65 423.633> 365.011 96<25 158.355> 711.008 20G<573.68 695>
LayerCount: 2
Fore
SplineSet
230 461.010742188 m 1
 368.606445312 150.694335938 l 1
 581 731.0078125 l 1
 695 731.0078125 l 1
 416 0 l 5
 329 0 l 5
 158.35546875 365.010742188 l 1
 25 365.010742188 l 1
 25 461.010742188 l 1
 230 461.010742188 l 1
EndSplineSet
Validated: 1
EndChar

StartChar: approxequal
Encoding: 8776 8776 223
Width: 450
Flags: W
HStem: 114 79.2002<276.689 341.161> 265.199 79.2002<108.201 171.875> 354 79.2002<276.689 341.161> 505.199 79.2002<108.201 171.875>
VStem: 20.9004 81<133.8 261.76 373.8 501.76> 348.1 81<199.311 324.6 439.311 564.6>
LayerCount: 2
Fore
SplineSet
262.1796875 485.703125 m 0
 275.55770135 454.884765625 281.749279102 433.200195312 310.400390625 433.200195312 c 0
 336.715902526 433.200195312 348.099609375 457.331488715 348.099609375 495.200195312 c 2
 348.099609375 564.599609375 l 1
 429.099609375 564.599609375 l 1
 429.099609375 479.900390625 l 2
 429.099609375 401.883258178 384.64103811 354 312.200195312 354 c 0
 241.734565066 354 216.093553805 393.786132812 197.723632812 433.318359375 c 0
 174.332580444 483.656103459 166.647665872 505.19921875 138.599609375 505.19921875 c 0
 112.43357292 505.19921875 101.900390625 483.802366395 101.900390625 446.19921875 c 2
 101.900390625 373.799804688 l 1
 20.900390625 373.799804688 l 1
 20.900390625 461.499023438 l 2
 20.900390625 539.37627515 65.3589618895 584.399414062 137.799804688 584.399414062 c 0
 208.719070742 584.399414062 236.172397927 545.615007693 262.1796875 485.703125 c 0
262.1796875 245.703125 m 0
 275.55770135 214.884765625 281.749279102 193.200195312 310.400390625 193.200195312 c 0
 336.715902526 193.200195312 348.099609375 217.331488715 348.099609375 255.200195312 c 2
 348.099609375 324.599609375 l 1
 429.099609375 324.599609375 l 1
 429.099609375 239.900390625 l 2
 429.099609375 161.883258178 384.64103811 114 312.200195312 114 c 0
 241.734565066 114 216.093553805 153.786132812 197.723632812 193.318359375 c 0
 174.332580444 243.656103459 166.647665872 265.19921875 138.599609375 265.19921875 c 0
 112.43357292 265.19921875 101.900390625 243.802366395 101.900390625 206.19921875 c 2
 101.900390625 133.799804688 l 1
 20.900390625 133.799804688 l 1
 20.900390625 221.499023438 l 2
 20.900390625 299.37627515 65.3589618895 344.399414062 137.799804688 344.399414062 c 0
 208.719070742 344.399414062 236.172397927 305.615007693 262.1796875 245.703125 c 0
EndSplineSet
EndChar

StartChar: lessequal
Encoding: 8804 8804 224
Width: 500
Flags: W
HStem: 72 98<25 475>
LayerCount: 2
Fore
SplineSet
25 170 m 1
 475 170 l 1
 475 72 l 1
 25 72 l 1
 25 170 l 1
25 460 m 1
 475 610 l 1
 475 512 l 1
 217.125 421 l 5
 475 330 l 1
 475 232 l 1
 25 382 l 1
 25 460 l 1
EndSplineSet
Validated: 1
EndChar

StartChar: greaterequal
Encoding: 8805 8805 225
Width: 500
Flags: W
HStem: 72 98<25 475>
LayerCount: 2
Fore
SplineSet
475 170 m 1
 475 72 l 1
 25 72 l 1
 25 170 l 1
 475 170 l 1
475 460 m 1
 475 382 l 1
 25 232 l 1
 25 330 l 1
 282.875 421 l 5
 25 512 l 1
 25 610 l 1
 475 460 l 1
EndSplineSet
Validated: 1
EndChar

StartChar: notequal
Encoding: 8800 8800 226
Width: 500
Flags: W
HStem: 212 98<25 475> 412 98<25 475>
LayerCount: 2
Fore
SplineSet
75 116 m 1
 315 606 l 1
 425 606 l 5
 185 116 l 5
 75 116 l 1
EndSplineSet
Refer: 83 61 N 1 0 0 1 0 0 2
Validated: 5
EndChar

StartChar: angleleft
Encoding: 9001 9001 227
Width: 342
Flags: W
VStem: 10 322.127
LayerCount: 2
Fore
SplineSet
332.126953125 -189 m 1
 212.126953125 -189 l 1
 10 294 l 1
 222.126953125 761 l 1
 332.126953125 761 l 1
 136.678710938 294 l 5
 332.126953125 -189 l 1
EndSplineSet
Validated: 1
EndChar

StartChar: angleright
Encoding: 9002 9002 228
Width: 342
Flags: W
VStem: 10 322.127
LayerCount: 2
Fore
SplineSet
10 -189 m 1
 205.448242188 294 l 5
 10 761 l 1
 120 761 l 1
 332.126953125 294 l 1
 130 -189 l 1
 10 -189 l 1
EndSplineSet
Validated: 1
EndChar

StartChar: S.ss07
Encoding: 65544 -1 229
Width: 501
Flags: W
HStem: 0 98<25 160.202> 633.008 98<340.798 476>
VStem: 196 109<135.934 595.074>
LayerCount: 2
Fore
SplineSet
196 525.0078125 m 2
 196 649.104198042 268.641614498 731.0078125 387 731.0078125 c 2
 476 731.0078125 l 1
 476 633.0078125 l 1
 423 633.0078125 l 2
 340.631059696 633.0078125 305 597.741145833 305 518.0078125 c 2
 305 206 l 2
 305 81.9036144578 232.358385502 0 114 0 c 6
 25 0 l 1
 25 98 l 1
 78 98 l 6
 160.368940304 98 196 133.266666667 196 213 c 2
 196 525.0078125 l 2
EndSplineSet
Validated: 1
EndChar

StartChar: s.ss07
Encoding: 65545 -1 230
Width: 421
Flags: W
HStem: 0 88<25 134.562> 393.008 88<286.438 396>
VStem: 161 99<114.404 366.604>
LayerCount: 2
Fore
SplineSet
161 325.0078125 m 2
 161 418.983716114 222.231936828 481.0078125 322 481.0078125 c 2
 396 481.0078125 l 1
 396 393.0078125 l 1
 358 393.0078125 l 2
 289.591897035 393.0078125 260 363.874479167 260 298.0078125 c 2
 260 156 l 2
 260 62.0240963855 198.768063172 0 99 0 c 6
 25 0 l 1
 25 88 l 1
 63 88 l 6
 131.408102965 88 161 117.133333333 161 183 c 2
 161 325.0078125 l 2
EndSplineSet
Validated: 1
EndChar

StartChar: caron
Encoding: 711 711 231
Width: 349
Flags: W
HStem: 550 181.008
VStem: 10 329
LayerCount: 2
Fore
SplineSet
145 550 m 1
 10 731.0078125 l 1
 109 731.0078125 l 1
 174.5 639.447265625 l 5
 240 731.0078125 l 1
 339 731.0078125 l 1
 204 550 l 1
 145 550 l 1
EndSplineSet
EndChar

StartChar: circumflex
Encoding: 710 710 232
Width: 349
Flags: W
HStem: 550 181.008
VStem: 10 329
LayerCount: 2
Fore
SplineSet
204 731.0078125 m 1
 339 550 l 1
 240 550 l 1
 174.5 641.560546875 l 5
 109 550 l 1
 10 550 l 1
 145 731.0078125 l 1
 204 731.0078125 l 1
EndSplineSet
EndChar

StartChar: breve
Encoding: 728 728 233
Width: 424
Flags: W
HStem: 560.992 75<147.92 276.522>
VStem: 40 89<654.009 731.008> 295.336 89<654.009 731.008>
LayerCount: 2
Fore
SplineSet
295.3359375 720 m 2
 295.3359375 731.0078125 l 1
 384.3359375 731.0078125 l 1
 384.3359375 710 l 2
 384.3359375 623.383393559 338.955784574 560.9921875 212.3359375 560.9921875 c 4
 85.4689289156 560.9921875 40 623.383393559 40 710 c 2
 40 731.0078125 l 1
 129 731.0078125 l 1
 129 720 l 2
 129 669.993736586 144.834482602 635.9921875 212.16796875 635.9921875 c 4
 279.501454898 635.9921875 295.3359375 669.993736586 295.3359375 720 c 2
EndSplineSet
EndChar

StartChar: dotaccent
Encoding: 729 729 234
Width: 170
Flags: W
HStem: 617.191 121.801<39.8624 131.938>
VStem: 25 121.801<632.054 724.13>
LayerCount: 2
Fore
SplineSet
25 678.091796875 m 0
 25 711.69140625 52.30078125 738.9921875 85.900390625 738.9921875 c 0
 119.5 738.9921875 146.80078125 711.69140625 146.80078125 678.091796875 c 0
 146.80078125 644.4921875 119.5 617.19140625 85.900390625 617.19140625 c 0
 52.30078125 617.19140625 25 644.4921875 25 678.091796875 c 0
EndSplineSet
EndChar

StartChar: ring
Encoding: 730 730 235
Width: 280
Flags: W
HStem: 514.051 65<100.645 179.501> 673.992 65<100.365 179.768>
VStem: 25 69<586.205 667.163> 186 69<585.927 667.435>
LayerCount: 2
Fore
SplineSet
94 627.05859375 m 0
 94 598.481644272 112.402904358 579.05078125 141.16796875 579.05078125 c 4
 168.338749093 579.05078125 186 598.481644272 186 627.05859375 c 4
 186 655.098854098 168.338749093 673.9921875 141.16796875 673.9921875 c 4
 112.402904358 673.9921875 94 655.098854098 94 627.05859375 c 0
25 627.05859375 m 0
 25 691.599684213 69.8133138021 738.9921875 140 738.9921875 c 4
 210.186686198 738.9921875 255 691.599684213 255 627.05859375 c 4
 255 561.36844343 210.186686198 514.05078125 140 514.05078125 c 4
 69.8133138021 514.05078125 25 561.36844343 25 627.05859375 c 0
EndSplineSet
EndChar

StartChar: ogonek
Encoding: 731 731 236
Width: 266
Flags: W
HStem: -149.006 80<128.429 241.131>
VStem: 25 97.2207<-63.6945 29.6564>
LayerCount: 2
Fore
SplineSet
166.130859375 82.001953125 m 1
 147.5078125 45.318359375 l 2
 123.839563665 -1.30325044376 122.220703125 -15.3720641313 122.220703125 -30.0390625 c 0
 122.220703125 -50.6653291298 136 -69.005859375 166 -69.005859375 c 2
 241.130859375 -69.005859375 l 1
 241.130859375 -149.005859375 l 1
 138.130859375 -149.005859375 l 2
 67.8399379712 -149.005859375 25 -111 25 -52 c 0
 25 -5.86916333576 40.5528685281 22.6310494052 60.3984375 52.4013671875 c 2
 80.130859375 82.001953125 l 1
 166.130859375 82.001953125 l 1
EndSplineSet
EndChar

StartChar: tilde
Encoding: 732 732 237
Width: 423
Flags: W
HStem: 551.632 76.2803<252.022 312.117> 662.712 76.2803<110.68 169.176> 711.172 20G<318.232 398.842>
VStem: 25 79.6094<559.452 658.565> 318.232 80.6094<631.524 731.172>
LayerCount: 2
Back
SplineSet
274.567382812 720 m 6
 274.567382812 731.0078125 l 5
 363.567382812 731.0078125 l 5
 363.567382812 710 l 6
 363.567382812 623.383789062 318.1875 560.9921875 191.567382812 560.9921875 c 4
 64.7001953125 560.9921875 19.2314453125 623.383789062 19.2314453125 710 c 6
 19.2314453125 731.0078125 l 5
 108.231445312 731.0078125 l 5
 108.231445312 720 l 6
 108.231445312 669.994140625 124.06640625 635.9921875 191.399414062 635.9921875 c 4
 258.732421875 635.9921875 274.567382812 669.994140625 274.567382812 720 c 6
EndSplineSet
Fore
SplineSet
247.436523438 660.165039062 m 0xd8
 255.767578125 639.999023438 262.314453125 627.912109375 284.095703125 627.912109375 c 0
 307.924804688 627.912109375 318.232421875 651.1875 318.232421875 687.712890625 c 2
 318.232421875 731.171875 l 1
 398.841796875 731.171875 l 1xb8
 398.841796875 673.942382812 l 2
 398.841796875 598.149414062 356.327148438 551.631835938 287.053710938 551.631835938 c 0
 221.078125 551.631835938 199.581054688 581.818359375 179.872070312 622.397460938 c 0
 167.236328125 648.413085938 157.830078125 662.711914062 137.936523438 662.711914062 c 0
 114.174804688 662.711914062 104.609375 642.00390625 104.609375 605.611328125 c 2
 104.609375 559.452148438 l 1
 25 559.452148438 l 1
 25 619.381835938 l 2
 25 695.173828125 67.5146484375 738.9921875 136.788085938 738.9921875 c 0
 199.877929688 738.9921875 227.048828125 709.516601562 247.436523438 660.165039062 c 0xd8
EndSplineSet
EndChar

StartChar: uni2E3A
Encoding: 11834 11834 240
Width: 968
Flags: W
HStem: 202 98<25 943>
LayerCount: 2
Fore
SplineSet
25 300 m 1
 943 300 l 5
 943 202 l 5
 25 202 l 1
 25 300 l 1
EndSplineSet
EndChar

StartChar: uni2E3B
Encoding: 11835 11835 241
Width: 1268
Flags: W
HStem: 202 98<25 1243>
LayerCount: 2
Fore
SplineSet
25 300 m 1
 1243 300 l 5
 1243 202 l 5
 25 202 l 1
 25 300 l 1
EndSplineSet
EndChar

StartChar: lozenge
Encoding: 9674 9674 242
Width: 596
Flags: W
HStem: 0 21G<268.144 343.484> 711.008 20G<259.281 334.549>
LayerCount: 2
Fore
SplineSet
119.168945312 360.571289062 m 1
 298.805664062 106.09375 l 1
 481.525390625 362.075195312 l 5
 301.600585938 628.9140625 l 1
 119.168945312 360.571289062 l 1
595.692382812 361.0078125 m 1
 328.692382812 0 l 1
 268.143554688 0.0078125 l 1
 1 360.05859375 l 1
 274 731.0078125 l 1
 334.548828125 731 l 1
 595.692382812 361.0078125 l 1
EndSplineSet
EndChar

StartChar: zero.superior
Encoding: 8304 8304 243
Width: 446
HStem: 338 77<156.645 290.042> 770 77<156.645 290.042>
VStem: 17 82<482.672 704.941> 348 82<482.672 704.941>
LayerCount: 2
Fore
SplineSet
99 593 m 0
 99 474 148 415 224 415 c 4
 299 415 348 474 348 593 c 4
 348 711 299 770 224 770 c 4
 148 770 99 711 99 593 c 0
17 592 m 0
 17 753 97 847 223 847 c 4
 349 847 430 753 430 592 c 4
 430 431 349 338 223 338 c 4
 97 338 17 431 17 592 c 0
EndSplineSet
EndChar

StartChar: one.superior
Encoding: 185 185 244
Width: 208
HStem: 763 74<17 100>
VStem: 100 82<350 763>
LayerCount: 2
Fore
SplineSet
182 837 m 1
 182 350 l 1
 100 350 l 1
 100 763 l 1
 17 763 l 1
 17 837 l 1
 182 837 l 1
EndSplineSet
EndChar

StartChar: two.superior
Encoding: 178 178 245
Width: 407
HStem: 350 74<150 311.534> 770 74<121.676 267.886>
VStem: 17 74<654 738.656> 292 77<629.808 746.008> 317 74<431.156 501>
LayerCount: 2
Fore
SplineSet
274 350 m 2xe8
 19 350 l 1
 19 391 l 1
 198 554 l 2
 240 592 292 637 292 691 c 0
 292 737 264 770 196 770 c 0
 130 770 91 742 91 676 c 6
 91 654 l 5
 17 654 l 5
 17 694 l 6
 17 787 88 844 197 844 c 0
 301 844 369 787 369 700 c 0xf0
 369 642 325 591 276 544 c 2
 150 424 l 1
 266 424 l 2
 301 424 317 439 317 474 c 2
 317 501 l 1
 391 501 l 1
 391 454 l 2
 391 390 346 350 274 350 c 2xe8
EndSplineSet
EndChar

StartChar: three.superior
Encoding: 179 179 246
Width: 399
HStem: 350 74<32 280.062> 763 74<98.4377 267>
VStem: 17 74<686 755.844> 302 81<445.611 544.22>
LayerCount: 2
Fore
SplineSet
243 624 m 5
 243 624 383 616 383 486 c 4
 383 401 320 350 202 350 c 6
 32 350 l 5
 32 424 l 5
 187 424 l 6
 267 424 302 446 302 496 c 4
 302 546 267 567 185 567 c 6
 153 567 l 5
 153 610 l 5
 267 763 l 5
 141 763 l 6
 106 763 91 748 91 714 c 6
 91 686 l 5
 17 686 l 5
 17 733 l 6
 17 797 61 837 133 837 c 6
 372 837 l 5
 372 796 l 5
 243 624 l 5
EndSplineSet
EndChar

StartChar: four.superior
Encoding: 8308 8308 247
Width: 442
HStem: 456 80<131 426>
VStem: 276 81<350 709>
LayerCount: 2
Fore
SplineSet
357 837 m 1
 357 350 l 1
 276 350 l 1
 276 709 l 1
 131 536 l 1
 426 536 l 1
 426 456 l 1
 17 456 l 1
 17 502 l 1
 295 837 l 1
 357 837 l 1
EndSplineSet
EndChar

StartChar: five.superior
Encoding: 8309 8309 248
Width: 386
HStem: 350 74<17 263.15> 571 74<111 262.088> 763 74<111 337>
VStem: 34 77<645 763> 289 81<448.21 546.041>
LayerCount: 2
Fore
SplineSet
180 645 m 6
 294 645 370 594 370 495 c 4
 370 405 302 350 174 350 c 6
 17 350 l 1
 17 424 l 1
 160 424 l 6
 250 424 289 447 289 499 c 4
 289 549 248 571 154 571 c 6
 34 571 l 1
 34 837 l 1
 337 837 l 5
 337 763 l 5
 111 763 l 1
 111 645 l 1
 180 645 l 6
EndSplineSet
EndChar

StartChar: six.superior
Encoding: 8310 8310 249
Width: 402
HStem: 343 75<142.902 273.386> 600 71<140.373 273.832> 763 74<198.93 350>
VStem: 17 93<449.501 626.95> 305 81<448.464 569.801>
LayerCount: 2
Fore
SplineSet
109 625 m 5
 109 625 148 671 219 671 c 4
 321 671 386 602 386 507 c 4
 386 412 316 343 208 343 c 4
 84 343 17 423 17 566 c 4
 17 729 121 837 297 837 c 6
 350 837 l 5
 350 763 l 5
 311 763 l 6
 199 763 125 722 109 625 c 5
110 510 m 4
 110 455 148 418 208 418 c 4
 267 418 305 455 305 510 c 4
 305 564 267 600 208 600 c 4
 148 600 110 564 110 510 c 4
EndSplineSet
EndChar

StartChar: seven.superior
Encoding: 8311 8311 250
Width: 396
HStem: 763 74<96.3803 292>
VStem: 17 74<685 756.131>
LayerCount: 2
Fore
SplineSet
179 350 m 5
 100 350 l 5
 292 763 l 1
 141 763 l 2
 106 763 91 748 91 713 c 2
 91 685 l 1
 17 685 l 1
 17 733 l 2
 17 798 60 837 130 837 c 2
 378 837 l 1
 378 796 l 1
 179 350 l 5
EndSplineSet
EndChar

StartChar: eight.superior
Encoding: 8312 8312 251
Width: 402
HStem: 338 77<128.708 273.93> 574 80<159 250> 596 47<111 297> 771 76<144.251 263.979>
VStem: 17 82<442.503 546.684> 52 77<670.85 754.423> 279 77<670.37 754.892> 304 82<442.503 546.684>
LayerCount: 2
Fore
SplineSet
129 713 m 0xd6
 129 678 159 654 205 654 c 4
 250 654 279 678 279 713 c 4
 279 748 250 771 205 771 c 4
 159 771 129 748 129 713 c 0xd6
52 717 m 0
 52 792 111 847 204 847 c 4
 297 847 356 792 356 717 c 4
 356 647 297 596 204 596 c 4xb6
 111 596 52 647 52 717 c 0
99 495 m 0xd9
 99 447 139 415 202 415 c 4
 264 415 304 447 304 495 c 4
 304 542 264 574 202 574 c 4
 139 574 99 542 99 495 c 0xd9
17 494 m 0
 17 580 88 643 201 643 c 4xb9
 314 643 386 580 386 494 c 4
 386 404 314 338 201 338 c 4
 88 338 17 404 17 494 c 0
EndSplineSet
EndChar

StartChar: nine.superior
Encoding: 8313 8313 252
Width: 403
HStem: 344 74<53 204.177> 512 71<130.728 261.38> 769 78<132.258 260.859>
VStem: 17 83<612.959 736.792> 295 92<557.662 736.917>
LayerCount: 2
Fore
SplineSet
293 559 m 1
 293 559 255 512 184 512 c 0
 82 512 17 583 17 680 c 0
 17 777 86 847 195 847 c 0
 319 847 387 766 387 620 c 0
 387 454 282 344 106 344 c 2
 53 344 l 1
 53 418 l 1
 91 418 l 2
 203 418 277 459 293 559 c 1
295 675 m 4
 295 731 256 769 196 769 c 4
 137 769 100 731 100 675 c 4
 100 620 137 583 196 583 c 4
 256 583 295 620 295 675 c 4
EndSplineSet
EndChar

StartChar: zero.inferior
Encoding: 8320 8320 253
Width: 446
HStem: -362 77<156.645 290.042> 70 77<156.645 290.042>
VStem: 17 82<-217.328 4.94108> 348 82<-217.328 4.94108>
LayerCount: 2
Fore
SplineSet
99 -107 m 0
 99 -226 148 -285 224 -285 c 4
 299 -285 348 -226 348 -107 c 4
 348 11 299 70 224 70 c 4
 148 70 99 11 99 -107 c 0
17 -108 m 0
 17 53 97 147 223 147 c 4
 349 147 430 53 430 -108 c 4
 430 -269 349 -362 223 -362 c 4
 97 -362 17 -269 17 -108 c 0
EndSplineSet
EndChar

StartChar: one.inferior
Encoding: 8321 8321 254
Width: 208
HStem: 63 74<17 100>
VStem: 100 82<-350 63>
LayerCount: 2
Fore
SplineSet
182 137 m 1
 182 -350 l 1
 100 -350 l 1
 100 63 l 1
 17 63 l 1
 17 137 l 1
 182 137 l 1
EndSplineSet
EndChar

StartChar: two.inferior
Encoding: 8322 8322 255
Width: 407
HStem: -350 74<150 311.534> 70 74<121.676 267.886>
VStem: 17 74<-46 38.6561> 292 77<-70.1922 46.0081> 317 74<-268.844 -199>
LayerCount: 2
Fore
SplineSet
274 -350 m 2xe8
 19 -350 l 1
 19 -309 l 1
 198 -146 l 2
 240 -108 292 -63 292 -9 c 0
 292 37 264 70 196 70 c 0
 130 70 91 42 91 -24 c 6
 91 -46 l 5
 17 -46 l 5
 17 -6 l 6
 17 87 88 144 197 144 c 0
 301 144 369 87 369 0 c 0xf0
 369 -58 325 -109 276 -156 c 2
 150 -276 l 1
 266 -276 l 2
 301 -276 317 -261 317 -226 c 2
 317 -199 l 1
 391 -199 l 1
 391 -246 l 2
 391 -310 346 -350 274 -350 c 2xe8
EndSplineSet
EndChar

StartChar: three.inferior
Encoding: 8323 8323 256
Width: 399
HStem: -350 74<32 280.062> 63 74<98.4377 267>
VStem: 17 74<-14 55.8438> 302 81<-254.389 -155.78>
LayerCount: 2
Fore
SplineSet
243 -76 m 5
 243 -76 383 -84 383 -214 c 4
 383 -299 320 -350 202 -350 c 6
 32 -350 l 5
 32 -276 l 5
 187 -276 l 6
 267 -276 302 -254 302 -204 c 4
 302 -154 267 -133 185 -133 c 6
 153 -133 l 5
 153 -90 l 5
 267 63 l 5
 141 63 l 6
 106 63 91 48 91 14 c 6
 91 -14 l 5
 17 -14 l 5
 17 33 l 6
 17 97 61 137 133 137 c 6
 372 137 l 5
 372 96 l 5
 243 -76 l 5
EndSplineSet
EndChar

StartChar: four.inferior
Encoding: 8324 8324 257
Width: 442
HStem: -244 80<131 426>
VStem: 276 81<-350 9>
LayerCount: 2
Fore
SplineSet
357 137 m 1
 357 -350 l 1
 276 -350 l 1
 276 9 l 1
 131 -164 l 1
 426 -164 l 1
 426 -244 l 1
 17 -244 l 1
 17 -198 l 1
 295 137 l 1
 357 137 l 1
EndSplineSet
EndChar

StartChar: five.inferior
Encoding: 8325 8325 258
Width: 386
HStem: -350 74<17 263.15> -129 74<111 262.088> 63 74<111 337>
VStem: 34 77<-55 63> 289 81<-251.79 -153.959>
LayerCount: 2
Fore
SplineSet
180 -55 m 6
 294 -55 370 -106 370 -205 c 4
 370 -295 302 -350 174 -350 c 6
 17 -350 l 1
 17 -276 l 1
 160 -276 l 6
 250 -276 289 -253 289 -201 c 4
 289 -151 248 -129 154 -129 c 6
 34 -129 l 1
 34 137 l 1
 337 137 l 5
 337 63 l 5
 111 63 l 1
 111 -55 l 1
 180 -55 l 6
EndSplineSet
EndChar

StartChar: six.inferior
Encoding: 8326 8326 259
Width: 402
HStem: -357 75<142.902 273.386> -100 71<140.373 273.832> 63 74<198.93 350>
VStem: 17 93<-250.499 -73.0502> 305 81<-251.536 -130.199>
LayerCount: 2
Fore
SplineSet
109 -75 m 5
 109 -75 148 -29 219 -29 c 4
 321 -29 386 -98 386 -193 c 4
 386 -288 316 -357 208 -357 c 4
 84 -357 17 -277 17 -134 c 4
 17 29 121 137 297 137 c 6
 350 137 l 5
 350 63 l 5
 311 63 l 6
 199 63 125 22 109 -75 c 5
110 -190 m 4
 110 -245 148 -282 208 -282 c 4
 267 -282 305 -245 305 -190 c 4
 305 -136 267 -100 208 -100 c 4
 148 -100 110 -136 110 -190 c 4
EndSplineSet
EndChar

StartChar: seven.inferior
Encoding: 8327 8327 260
Width: 396
HStem: 63 74<96.3803 292>
VStem: 17 74<-15 56.1309>
LayerCount: 2
Fore
SplineSet
179 -350 m 5
 100 -350 l 5
 292 63 l 1
 141 63 l 2
 106 63 91 48 91 13 c 2
 91 -15 l 1
 17 -15 l 1
 17 33 l 2
 17 98 60 137 130 137 c 2
 378 137 l 1
 378 96 l 1
 179 -350 l 5
EndSplineSet
EndChar

StartChar: eight.inferior
Encoding: 8328 8328 261
Width: 402
HStem: -362 77<128.708 273.93> -126 80<159 250> -104 47<111 297> 71 76<144.251 263.979>
VStem: 17 82<-257.497 -153.316> 52 77<-29.1503 54.4234> 279 77<-29.6302 54.8915> 304 82<-257.497 -153.316>
LayerCount: 2
Fore
SplineSet
129 13 m 0xd6
 129 -22 159 -46 205 -46 c 4
 250 -46 279 -22 279 13 c 4
 279 48 250 71 205 71 c 4
 159 71 129 48 129 13 c 0xd6
52 17 m 0
 52 92 111 147 204 147 c 4
 297 147 356 92 356 17 c 4
 356 -53 297 -104 204 -104 c 4xb6
 111 -104 52 -53 52 17 c 0
99 -205 m 0xd9
 99 -253 139 -285 202 -285 c 4
 264 -285 304 -253 304 -205 c 4
 304 -158 264 -126 202 -126 c 4
 139 -126 99 -158 99 -205 c 0xd9
17 -206 m 0
 17 -120 88 -57 201 -57 c 4xb9
 314 -57 386 -120 386 -206 c 4
 386 -296 314 -362 201 -362 c 4
 88 -362 17 -296 17 -206 c 0
EndSplineSet
EndChar

StartChar: nine.inferior
Encoding: 8329 8329 262
Width: 403
HStem: -356 74<53 204.177> -188 71<130.728 261.38> 69 78<132.258 260.859>
VStem: 17 83<-87.0412 36.7919> 295 92<-142.338 36.9165>
LayerCount: 2
Fore
SplineSet
293 -141 m 1
 293 -141 255 -188 184 -188 c 0
 82 -188 17 -117 17 -20 c 0
 17 77 86 147 195 147 c 0
 319 147 387 66 387 -80 c 0
 387 -246 282 -356 106 -356 c 2
 53 -356 l 1
 53 -282 l 1
 91 -282 l 2
 203 -282 277 -241 293 -141 c 1
295 -25 m 4
 295 31 256 69 196 69 c 4
 137 69 100 31 100 -25 c 4
 100 -80 137 -117 196 -117 c 4
 256 -117 295 -80 295 -25 c 4
EndSplineSet
EndChar

StartChar: arrowleft
Encoding: 8592 8592 263
Width: 600
Flags: W
HStem: 312 98<125 575>
LayerCount: 2
Fore
SplineSet
125 410 m 1
 575 410 l 1
 575 312 l 1
 125 312 l 1
 125 410 l 1
10 361 m 1
 263.747070312 614.747070312 l 5
 333.04296875 545.451171875 l 5
 148.591796875 361 l 1
 333.04296875 176.548828125 l 1
 263.747070312 107.252929688 l 1
 10 361 l 1
EndSplineSet
EndChar

StartChar: zero.numr
Encoding: 65546 -1 267
Width: 446
HStem: 229 77<156.645 290.042> 661 77<156.645 290.042>
VStem: 17 82<373.672 595.941> 348 82<373.672 595.941>
LayerCount: 2
Fore
SplineSet
99 484 m 0
 99 365 148 306 224 306 c 4
 299 306 348 365 348 484 c 4
 348 602 299 661 224 661 c 4
 148 661 99 602 99 484 c 0
17 483 m 0
 17 644 97 738 223 738 c 4
 349 738 430 644 430 483 c 4
 430 322 349 229 223 229 c 4
 97 229 17 322 17 483 c 0
EndSplineSet
EndChar

StartChar: one.numr
Encoding: 65547 -1 268
Width: 208
HStem: 654 74<17 100>
VStem: 100 82<241 654>
LayerCount: 2
Fore
SplineSet
182 728 m 1
 182 241 l 1
 100 241 l 1
 100 654 l 1
 17 654 l 1
 17 728 l 1
 182 728 l 1
EndSplineSet
EndChar

StartChar: two.numr
Encoding: 65548 -1 269
Width: 407
HStem: 241 74<150 311.534> 661 74<121.676 267.886>
VStem: 17 74<545 629.656> 292 77<520.808 637.008> 317 74<322.156 392>
LayerCount: 2
Fore
SplineSet
274 241 m 2xe8
 19 241 l 1
 19 282 l 1
 198 445 l 2
 240 483 292 528 292 582 c 0
 292 628 264 661 196 661 c 0
 130 661 91 633 91 567 c 6
 91 545 l 5
 17 545 l 5
 17 585 l 6
 17 678 88 735 197 735 c 0
 301 735 369 678 369 591 c 0xf0
 369 533 325 482 276 435 c 2
 150 315 l 1
 266 315 l 2
 301 315 317 330 317 365 c 2
 317 392 l 1
 391 392 l 1
 391 345 l 2
 391 281 346 241 274 241 c 2xe8
EndSplineSet
EndChar

StartChar: three.numr
Encoding: 65549 -1 270
Width: 399
HStem: 241 74<32 280.062> 654 74<98.4377 267>
VStem: 17 74<577 646.844> 302 81<336.611 435.22>
LayerCount: 2
Fore
SplineSet
243 515 m 5
 243 515 383 507 383 377 c 4
 383 292 320 241 202 241 c 6
 32 241 l 5
 32 315 l 5
 187 315 l 6
 267 315 302 337 302 387 c 4
 302 437 267 458 185 458 c 6
 153 458 l 5
 153 501 l 5
 267 654 l 5
 141 654 l 6
 106 654 91 639 91 605 c 6
 91 577 l 5
 17 577 l 5
 17 624 l 6
 17 688 61 728 133 728 c 6
 372 728 l 5
 372 687 l 5
 243 515 l 5
EndSplineSet
EndChar

StartChar: four.numr
Encoding: 65550 -1 271
Width: 442
HStem: 347 80<131 426>
VStem: 276 81<241 600>
LayerCount: 2
Fore
SplineSet
357 728 m 1
 357 241 l 1
 276 241 l 1
 276 600 l 1
 131 427 l 1
 426 427 l 1
 426 347 l 1
 17 347 l 1
 17 393 l 1
 295 728 l 1
 357 728 l 1
EndSplineSet
EndChar

StartChar: five.numr
Encoding: 65551 -1 272
Width: 386
HStem: 241 74<17 263.15> 462 74<111 262.088> 654 74<111 337>
VStem: 34 77<536 654> 289 81<339.21 437.041>
LayerCount: 2
Fore
SplineSet
180 536 m 6
 294 536 370 485 370 386 c 4
 370 296 302 241 174 241 c 6
 17 241 l 1
 17 315 l 1
 160 315 l 6
 250 315 289 338 289 390 c 4
 289 440 248 462 154 462 c 6
 34 462 l 1
 34 728 l 1
 337 728 l 5
 337 654 l 5
 111 654 l 1
 111 536 l 1
 180 536 l 6
EndSplineSet
EndChar

StartChar: six.numr
Encoding: 65552 -1 273
Width: 402
HStem: 234 75<142.902 273.386> 491 71<140.373 273.832> 654 74<198.93 350>
VStem: 17 93<340.501 517.95> 305 81<339.464 460.801>
LayerCount: 2
Fore
SplineSet
109 516 m 5
 109 516 148 562 219 562 c 4
 321 562 386 493 386 398 c 4
 386 303 316 234 208 234 c 4
 84 234 17 314 17 457 c 4
 17 620 121 728 297 728 c 6
 350 728 l 5
 350 654 l 5
 311 654 l 6
 199 654 125 613 109 516 c 5
110 401 m 4
 110 346 148 309 208 309 c 4
 267 309 305 346 305 401 c 4
 305 455 267 491 208 491 c 4
 148 491 110 455 110 401 c 4
EndSplineSet
EndChar

StartChar: seven.numr
Encoding: 65553 -1 274
Width: 396
HStem: 654 74<96.3803 292>
VStem: 17 74<576 647.131>
LayerCount: 2
Fore
SplineSet
179 241 m 5
 100 241 l 5
 292 654 l 1
 141 654 l 2
 106 654 91 639 91 604 c 2
 91 576 l 1
 17 576 l 1
 17 624 l 2
 17 689 60 728 130 728 c 2
 378 728 l 1
 378 687 l 1
 179 241 l 5
EndSplineSet
EndChar

StartChar: eight.numr
Encoding: 65554 -1 275
Width: 402
HStem: 229 77<128.708 273.93> 465 80<159 250> 487 47<111 297> 662 76<144.251 263.979>
VStem: 17 82<333.503 437.684> 52 77<561.85 645.423> 279 77<561.37 645.892> 304 82<333.503 437.684>
LayerCount: 2
Fore
SplineSet
129 604 m 0xd6
 129 569 159 545 205 545 c 4
 250 545 279 569 279 604 c 4
 279 639 250 662 205 662 c 4
 159 662 129 639 129 604 c 0xd6
52 608 m 0
 52 683 111 738 204 738 c 4
 297 738 356 683 356 608 c 4
 356 538 297 487 204 487 c 4xb6
 111 487 52 538 52 608 c 0
99 386 m 0xd9
 99 338 139 306 202 306 c 4
 264 306 304 338 304 386 c 4
 304 433 264 465 202 465 c 4
 139 465 99 433 99 386 c 0xd9
17 385 m 0
 17 471 88 534 201 534 c 4xb9
 314 534 386 471 386 385 c 4
 386 295 314 229 201 229 c 4
 88 229 17 295 17 385 c 0
EndSplineSet
EndChar

StartChar: nine.numr
Encoding: 65555 -1 276
Width: 403
HStem: 235 74<53 204.177> 403 71<130.728 261.38> 660 78<132.258 260.859>
VStem: 17 83<505.445 629.315> 295 92<448.662 627.917>
LayerCount: 2
Fore
SplineSet
293 450 m 1
 293 450 255 403 184 403 c 0
 82 403 17 473 17 570 c 0
 17 667 86 738 195 738 c 0
 319 738 387 657 387 511 c 0
 387 345 282 235 106 235 c 2
 53 235 l 1
 53 309 l 1
 91 309 l 2
 203 309 277 350 293 450 c 1
295 566 m 4
 295 622 256 660 196 660 c 4
 137 660 100 622 100 566 c 4
 100 511 137 474 196 474 c 4
 256 474 295 511 295 566 c 4
EndSplineSet
EndChar

StartChar: zero.dnom
Encoding: 65556 -1 277
Width: 446
Flags: W
HStem: -12 77<156.645 290.042> 420 77<156.645 290.042>
VStem: 17 82<132.672 354.941> 348 82<132.672 354.941>
LayerCount: 2
Fore
SplineSet
99 243 m 0
 99 124 148 65 224 65 c 4
 299 65 348 124 348 243 c 4
 348 361 299 420 224 420 c 4
 148 420 99 361 99 243 c 0
17 242 m 0
 17 403 97 497 223 497 c 4
 349 497 430 403 430 242 c 4
 430 81 349 -12 223 -12 c 4
 97 -12 17 81 17 242 c 0
EndSplineSet
EndChar

StartChar: one.dnom
Encoding: 65557 -1 278
Width: 208
HStem: 0 21G<100 182> 413 74<17 100>
VStem: 100 82<0 413>
LayerCount: 2
Fore
SplineSet
182 487 m 1
 182 0 l 1
 100 0 l 1
 100 413 l 1
 17 413 l 1
 17 487 l 1
 182 487 l 1
EndSplineSet
EndChar

StartChar: two.dnom
Encoding: 65558 -1 279
Width: 407
Flags: W
HStem: 0 74<150 311.534> 420 74<121.676 267.886>
VStem: 17 74<304 388.656> 292 77<279.808 396.008> 317 74<81.1562 151>
LayerCount: 2
Fore
SplineSet
274 0 m 2xe8
 19 0 l 1
 19 41 l 1
 198 204 l 2
 240 242 292 287 292 341 c 0
 292 387 264 420 196 420 c 0
 130 420 91 392 91 326 c 6
 91 304 l 5
 17 304 l 5
 17 344 l 6
 17 437 88 494 197 494 c 0
 301 494 369 437 369 350 c 0xf0
 369 292 325 241 276 194 c 2
 150 74 l 1
 266 74 l 2
 301 74 317 89 317 124 c 2
 317 151 l 1
 391 151 l 1
 391 104 l 2
 391 40 346 0 274 0 c 2xe8
EndSplineSet
EndChar

StartChar: three.dnom
Encoding: 65559 -1 280
Width: 399
Flags: W
HStem: 0 74<32 280.062> 413 74<98.4377 267>
VStem: 17 74<336 405.844> 302 81<95.611 194.22>
LayerCount: 2
Fore
SplineSet
243 274 m 5
 243 274 383 266 383 136 c 4
 383 51 320 0 202 0 c 6
 32 0 l 5
 32 74 l 5
 187 74 l 6
 267 74 302 96 302 146 c 4
 302 196 267 217 185 217 c 6
 153 217 l 5
 153 260 l 5
 267 413 l 5
 141 413 l 6
 106 413 91 398 91 364 c 6
 91 336 l 5
 17 336 l 5
 17 383 l 6
 17 447 61 487 133 487 c 6
 372 487 l 5
 372 446 l 5
 243 274 l 5
EndSplineSet
EndChar

StartChar: four.dnom
Encoding: 65560 -1 281
Width: 441
Flags: W
HStem: 0 21G<279 356> 113 73<122 425> 467 20G<277.463 356>
VStem: 279 77<0 370>
LayerCount: 2
Fore
SplineSet
356 487 m 1
 356 0 l 1
 279 0 l 1
 279 370 l 5
 122 186 l 1
 425 186 l 1
 425 113 l 1
 17 113 l 1
 17 152 l 1
 294 487 l 1
 356 487 l 1
EndSplineSet
EndChar

StartChar: five.dnom
Encoding: 65561 -1 282
Width: 386
Flags: W
HStem: 0 74<17 263.15> 221 74<111 262.088> 413 74<111 337>
VStem: 34 77<295 413> 289 81<98.2097 196.041>
LayerCount: 2
Fore
SplineSet
180 295 m 6
 294 295 370 244 370 145 c 4
 370 55 302 0 174 0 c 6
 17 0 l 1
 17 74 l 1
 160 74 l 6
 250 74 289 97 289 149 c 4
 289 199 248 221 154 221 c 6
 34 221 l 1
 34 487 l 1
 337 487 l 5
 337 413 l 5
 111 413 l 1
 111 295 l 1
 180 295 l 6
EndSplineSet
EndChar

StartChar: six.dnom
Encoding: 65562 -1 283
Width: 402
Flags: W
HStem: -7 75<142.902 273.386> 250 71<140.373 273.832> 413 74<198.93 350>
VStem: 17 93<99.5014 276.95> 305 81<98.4641 219.801>
LayerCount: 2
Fore
SplineSet
109 275 m 5
 109 275 148 321 219 321 c 4
 321 321 386 252 386 157 c 4
 386 62 316 -7 208 -7 c 4
 84 -7 17 73 17 216 c 4
 17 379 121 487 297 487 c 6
 350 487 l 5
 350 413 l 5
 311 413 l 6
 199 413 125 372 109 275 c 5
110 160 m 4
 110 105 148 68 208 68 c 4
 267 68 305 105 305 160 c 4
 305 214 267 250 208 250 c 4
 148 250 110 214 110 160 c 4
EndSplineSet
EndChar

StartChar: seven.dnom
Encoding: 65563 -1 284
Width: 396
HStem: 0 21G<100 187.924> 413 74<96.3803 292>
VStem: 17 74<335 406.131>
LayerCount: 2
Fore
SplineSet
179 0 m 5
 100 0 l 5
 292 413 l 1
 141 413 l 2
 106 413 91 398 91 363 c 2
 91 335 l 1
 17 335 l 1
 17 383 l 2
 17 448 60 487 130 487 c 2
 378 487 l 1
 378 446 l 1
 179 0 l 5
EndSplineSet
EndChar

StartChar: eight.dnom
Encoding: 65564 -1 285
Width: 402
Flags: W
HStem: -12 77<128.708 273.93> 224 80<159 250> 246 47<111 297> 421 76<144.251 263.979>
VStem: 17 82<92.5031 196.684> 52 77<320.85 404.423> 279 77<320.37 404.892> 304 82<92.5031 196.684>
LayerCount: 2
Fore
SplineSet
129 363 m 0xd6
 129 328 159 304 205 304 c 4
 250 304 279 328 279 363 c 4
 279 398 250 421 205 421 c 4
 159 421 129 398 129 363 c 0xd6
52 367 m 0
 52 442 111 497 204 497 c 4
 297 497 356 442 356 367 c 4
 356 297 297 246 204 246 c 4xb6
 111 246 52 297 52 367 c 0
99 145 m 0xd9
 99 97 139 65 202 65 c 4
 264 65 304 97 304 145 c 4
 304 192 264 224 202 224 c 4
 139 224 99 192 99 145 c 0xd9
17 144 m 0
 17 230 88 293 201 293 c 4xb9
 314 293 386 230 386 144 c 4
 386 54 314 -12 201 -12 c 4
 88 -12 17 54 17 144 c 0
EndSplineSet
EndChar

StartChar: nine.dnom
Encoding: 65565 -1 286
Width: 403
Flags: W
HStem: -6 74<53 204.177> 162 71<130.728 261.38> 419 78<132.258 260.859>
VStem: 17 83<262.959 386.792> 295 92<207.662 386.917>
LayerCount: 2
Fore
SplineSet
293 209 m 1
 293 209 255 162 184 162 c 0
 82 162 17 233 17 330 c 0
 17 427 86 497 195 497 c 0
 319 497 387 416 387 270 c 0
 387 104 282 -6 106 -6 c 2
 53 -6 l 1
 53 68 l 1
 91 68 l 2
 203 68 277 109 293 209 c 1
295 325 m 4
 295 381 256 419 196 419 c 4
 137 419 100 381 100 325 c 4
 100 270 137 233 196 233 c 4
 256 233 295 270 295 325 c 4
EndSplineSet
EndChar

StartChar: uni031B
Encoding: 795 795 291
Width: 0
Flags: W
HStem: 500 75<0 86.9401> 711.008 20G<130 220>
VStem: 130 90<618.313 731.008>
LayerCount: 2
Fore
SplineSet
130 731.0078125 m 1
 220 731.0078125 l 1
 220 686 l 2
 220 573.951775046 151.160980441 500 39 500 c 2
 0 500 l 1
 0 575 l 5
 3 575 l 6
 91.6525581174 575 130 614.866666667 130 705 c 2
 130 731.0078125 l 1
EndSplineSet
EndChar

StartChar: e.ss08
Encoding: 65566 -1 295
Width: 500
Flags: W
HStem: -0.0078125 88<202.164 448> 199.934 76.1299<95 469.5> 399.934 91<185.042 330.167>
VStem: 95 29<200 276.13>
LayerCount: 2
Fore
SplineSet
94.5 276.129882812 m 5
 469.5 276.063476562 l 5
 475 199.93359375 l 5
 95 200 l 5
 94.5 276.129882812 l 5
254 490.93359375 m 0
 401.283925413 490.93359375 475 392.364531675 475 273.93359375 c 2
 475 199.93359375 l 5
 377 199.93359375 l 5
 377 256.93359375 l 2
 377 337.199869792 351.512252804 399.93359375 255.16796875 399.93359375 c 0
 175.176283642 399.93359375 124 335.954114857 124 241 c 0
 124 145.75425641 190.754588628 87.9921875 296.16796875 87.9921875 c 2
 448 87.9921875 l 1
 448 -0.0078125 l 1
 295 -0.0078125 l 2
 129.76 -0.0078125 25 95.0920436983 25 241 c 0
 25 385.111908562 113.320648438 490.93359375 254 490.93359375 c 0
EndSplineSet
EndChar

StartChar: Dcroat
Encoding: 272 272 297
Width: 779
Flags: W
HStem: 0 98<239 487.825> 312 98<25 413> 633.008 98<239 497.041>
VStem: 130 109<98 633.008> 645 109<254.703 488.603>
LayerCount: 2
Fore
SplineSet
25 410 m 1
 413 410 l 1
 413 312 l 1
 25 312 l 1
 25 410 l 1
EndSplineSet
Refer: 13 68 S 1 0 0 1 90 0 2
EndChar

StartChar: dcroat
Encoding: 273 273 298
Width: 530
Flags: W
HStem: 0 91<195.485 490> 390.008 91<195.114 460> 566.008 85<250 568> 731.008 20G<392 490>
VStem: 25 99<159.148 322.245> 392 68<390.008 481.008> 392 98<0 390.008 481.008 751.008>
LayerCount: 2
Fore
SplineSet
250 651.0078125 m 5xf8
 568 651.0078125 l 5
 568 566.0078125 l 5
 250 566.0078125 l 5
 250 651.0078125 l 5xf8
EndSplineSet
Refer: 46 100 N 1 0 0 1 0 0 2
EndChar
